<svg width="21" height="20" viewBox="0 0 21 20" fill="none" xmlns="http://www.w3.org/2000/svg">
<mask id="path-1-inside-1_1221_514" fill="white">
<path fill-rule="evenodd" clip-rule="evenodd" d="M10.2532 0C4.59124 0 0 4.59022 0 10.2532C0 14.7835 2.93785 18.6266 7.01174 19.9825C7.524 20.0776 7.71212 19.7601 7.71212 19.4893C7.71212 19.2448 7.70261 18.4371 7.6982 17.5804C4.84576 18.2006 4.24386 16.3706 4.24386 16.3706C3.77745 15.1855 3.10543 14.8704 3.10543 14.8704C2.17499 14.234 3.17555 14.2473 3.17555 14.2473C4.20498 14.3194 4.74728 15.3039 4.74728 15.3039C5.66176 16.871 7.14588 16.418 7.73097 16.1562C7.82299 15.4935 8.08871 15.041 8.38194 14.785C6.10457 14.5261 3.71038 13.6467 3.71038 9.718C3.71038 8.59859 4.11108 7.68394 4.76697 6.96573C4.66035 6.70765 4.30939 5.66481 4.86613 4.25252C4.86613 4.25252 5.72696 3.97695 7.68631 5.3035C8.50435 5.07616 9.38165 4.96189 10.2532 4.95799C11.1242 4.96189 12.002 5.07582 12.8216 5.30317C14.7785 3.97661 15.6383 4.25218 15.6383 4.25218C16.1964 5.6643 15.8455 6.70731 15.739 6.96539C16.3964 7.6836 16.7943 8.59825 16.7943 9.71766C16.7943 13.6557 14.3957 14.5227 12.1125 14.7767C12.4805 15.0949 12.8081 15.719 12.8081 16.6754C12.8081 18.0473 12.7963 19.1514 12.7963 19.4891C12.7963 19.762 12.981 20.0817 13.5005 19.981C17.5721 18.6237 20.5065 14.7818 20.5065 10.2532C20.5063 4.59056 15.9156 0 10.2532 0Z"/>
<path d="M3.8834 14.7211C3.86081 14.7721 3.78067 14.7874 3.70767 14.7526C3.63296 14.7193 3.59136 14.6498 3.61547 14.5987C3.63754 14.5461 3.71785 14.5317 3.79205 14.5668C3.86676 14.6003 3.9092 14.6704 3.88323 14.7213L3.8834 14.7211ZM4.2987 15.1845C4.24997 15.2298 4.15438 15.2088 4.08952 15.137C4.02228 15.0656 4.00972 14.9701 4.05947 14.924C4.11006 14.8789 4.20277 14.9003 4.27 14.9716C4.3369 15.0439 4.35014 15.1387 4.29887 15.1847L4.2987 15.1845ZM4.70313 15.7749C4.64031 15.8187 4.53742 15.7777 4.47392 15.6866C4.4111 15.5952 4.4111 15.4857 4.47562 15.4421C4.53895 15.3983 4.64031 15.4378 4.70483 15.5282C4.76731 15.6207 4.76731 15.7304 4.70313 15.7749ZM5.25681 16.3455C5.20078 16.4075 5.08091 16.3908 4.9933 16.3065C4.90382 16.2238 4.87887 16.1061 4.93506 16.0443C4.99211 15.9822 5.11249 15.9995 5.20061 16.0834C5.29009 16.1659 5.31709 16.2837 5.25715 16.3453L5.25681 16.3455ZM6.02086 16.6768C5.9959 16.7571 5.88078 16.7936 5.76448 16.7593C5.64851 16.7241 5.57262 16.6302 5.59639 16.5491C5.62016 16.4681 5.73613 16.4302 5.85311 16.4667C5.96907 16.5017 6.04497 16.5951 6.02086 16.6768ZM6.86012 16.7381C6.86301 16.8226 6.76453 16.8926 6.64279 16.8943C6.52004 16.8972 6.42071 16.8286 6.41952 16.7454C6.41952 16.66 6.51596 16.5909 6.63855 16.5885C6.76029 16.5863 6.86029 16.6542 6.86029 16.7379L6.86012 16.7381ZM7.64081 16.6053C7.65541 16.6876 7.57069 16.7724 7.44963 16.7949C7.33078 16.817 7.22041 16.7657 7.20513 16.6841C7.19053 16.5995 7.27678 16.5148 7.39564 16.4929C7.51686 16.472 7.62553 16.5216 7.64081 16.6053Z"/>
</mask>
<path fill-rule="evenodd" clip-rule="evenodd" d="M10.2532 0C4.59124 0 0 4.59022 0 10.2532C0 14.7835 2.93785 18.6266 7.01174 19.9825C7.524 20.0776 7.71212 19.7601 7.71212 19.4893C7.71212 19.2448 7.70261 18.4371 7.6982 17.5804C4.84576 18.2006 4.24386 16.3706 4.24386 16.3706C3.77745 15.1855 3.10543 14.8704 3.10543 14.8704C2.17499 14.234 3.17555 14.2473 3.17555 14.2473C4.20498 14.3194 4.74728 15.3039 4.74728 15.3039C5.66176 16.871 7.14588 16.418 7.73097 16.1562C7.82299 15.4935 8.08871 15.041 8.38194 14.785C6.10457 14.5261 3.71038 13.6467 3.71038 9.718C3.71038 8.59859 4.11108 7.68394 4.76697 6.96573C4.66035 6.70765 4.30939 5.66481 4.86613 4.25252C4.86613 4.25252 5.72696 3.97695 7.68631 5.3035C8.50435 5.07616 9.38165 4.96189 10.2532 4.95799C11.1242 4.96189 12.002 5.07582 12.8216 5.30317C14.7785 3.97661 15.6383 4.25218 15.6383 4.25218C16.1964 5.6643 15.8455 6.70731 15.739 6.96539C16.3964 7.6836 16.7943 8.59825 16.7943 9.71766C16.7943 13.6557 14.3957 14.5227 12.1125 14.7767C12.4805 15.0949 12.8081 15.719 12.8081 16.6754C12.8081 18.0473 12.7963 19.1514 12.7963 19.4891C12.7963 19.762 12.981 20.0817 13.5005 19.981C17.5721 18.6237 20.5065 14.7818 20.5065 10.2532C20.5063 4.59056 15.9156 0 10.2532 0Z" fill="#787673"/>
<path d="M3.8834 14.7211C3.86081 14.7721 3.78067 14.7874 3.70767 14.7526C3.63296 14.7193 3.59136 14.6498 3.61547 14.5987C3.63754 14.5461 3.71785 14.5317 3.79205 14.5668C3.86676 14.6003 3.9092 14.6704 3.88323 14.7213L3.8834 14.7211ZM4.2987 15.1845C4.24997 15.2298 4.15438 15.2088 4.08952 15.137C4.02228 15.0656 4.00972 14.9701 4.05947 14.924C4.11006 14.8789 4.20277 14.9003 4.27 14.9716C4.3369 15.0439 4.35014 15.1387 4.29887 15.1847L4.2987 15.1845ZM4.70313 15.7749C4.64031 15.8187 4.53742 15.7777 4.47392 15.6866C4.4111 15.5952 4.4111 15.4857 4.47562 15.4421C4.53895 15.3983 4.64031 15.4378 4.70483 15.5282C4.76731 15.6207 4.76731 15.7304 4.70313 15.7749ZM5.25681 16.3455C5.20078 16.4075 5.08091 16.3908 4.9933 16.3065C4.90382 16.2238 4.87887 16.1061 4.93506 16.0443C4.99211 15.9822 5.11249 15.9995 5.20061 16.0834C5.29009 16.1659 5.31709 16.2837 5.25715 16.3453L5.25681 16.3455ZM6.02086 16.6768C5.9959 16.7571 5.88078 16.7936 5.76448 16.7593C5.64851 16.7241 5.57262 16.6302 5.59639 16.5491C5.62016 16.4681 5.73613 16.4302 5.85311 16.4667C5.96907 16.5017 6.04497 16.5951 6.02086 16.6768ZM6.86012 16.7381C6.86301 16.8226 6.76453 16.8926 6.64279 16.8943C6.52004 16.8972 6.42071 16.8286 6.41952 16.7454C6.41952 16.66 6.51596 16.5909 6.63855 16.5885C6.76029 16.5863 6.86029 16.6542 6.86029 16.7379L6.86012 16.7381ZM7.64081 16.6053C7.65541 16.6876 7.57069 16.7724 7.44963 16.7949C7.33078 16.817 7.22041 16.7657 7.20513 16.6841C7.19053 16.5995 7.27678 16.5148 7.39564 16.4929C7.51686 16.472 7.62553 16.5216 7.64081 16.6053Z" fill="#787673"/>
<path d="M7.01174 19.9825L6.69594 20.9314L6.76141 20.9532L6.82925 20.9658L7.01174 19.9825ZM7.6982 17.5804L8.69818 17.5752L8.69182 16.341L7.48572 16.6032L7.6982 17.5804ZM4.24386 16.3706L5.19379 16.0582L5.18486 16.031L5.17439 16.0044L4.24386 16.3706ZM3.10543 14.8704L2.54089 15.6958L2.60764 15.7415L2.68086 15.7758L3.10543 14.8704ZM3.17555 14.2473L3.24548 13.2497L3.21716 13.2477L3.18878 13.2474L3.17555 14.2473ZM4.74728 15.3039L3.87139 15.7864L3.87735 15.7972L3.88357 15.8079L4.74728 15.3039ZM7.73097 16.1562L8.13941 17.069L8.64524 16.8426L8.72146 16.2937L7.73097 16.1562ZM8.38194 14.785L9.03967 15.5382L10.747 14.0474L8.4949 13.7914L8.38194 14.785ZM4.76697 6.96573L5.50539 7.64008L5.93377 7.171L5.6912 6.58388L4.76697 6.96573ZM4.86613 4.25252L4.56125 3.30012L4.10969 3.44468L3.93581 3.88578L4.86613 4.25252ZM7.68631 5.3035L7.12568 6.13157L7.50857 6.3908L7.95408 6.26699L7.68631 5.3035ZM10.2532 4.95799L10.2577 3.95796L10.2487 3.958L10.2532 4.95799ZM12.8216 5.30317L12.5543 6.26678L12.9999 6.39039L13.3827 6.13092L12.8216 5.30317ZM15.6383 4.25218L16.5683 3.88463L16.3944 3.44437L15.9436 3.29989L15.6383 4.25218ZM15.739 6.96539L14.8146 6.58406L14.5722 7.1717L15.0014 7.64059L15.739 6.96539ZM12.1125 14.7767L12.002 13.7828L9.72713 14.0359L11.4584 15.5331L12.1125 14.7767ZM13.5005 19.981L13.6908 20.9628L13.7549 20.9503L13.8168 20.9297L13.5005 19.981ZM20.5065 10.2532H21.5065V10.2531L20.5065 10.2532ZM3.8834 14.7211L4.79758 15.1264L3.17629 14.014L3.8834 14.7211ZM3.70767 14.7526L4.13801 13.8499L4.12636 13.8443L4.11457 13.8391L3.70767 14.7526ZM3.61547 14.5987L4.51988 15.0254L4.52921 15.0056L4.53766 14.9855L3.61547 14.5987ZM3.79205 14.5668L3.36396 15.4705L3.37364 15.4751L3.38341 15.4795L3.79205 14.5668ZM3.88323 14.7213L2.99239 14.267L4.59033 15.4284L3.88323 14.7213ZM4.2987 15.1845L5.00581 14.4774L4.32377 13.7954L3.61756 14.4523L4.2987 15.1845ZM4.08952 15.137L4.83168 14.4667L4.82448 14.4588L4.81711 14.4509L4.08952 15.137ZM4.05947 14.924L3.39355 14.178L3.38695 14.1839L3.38046 14.1899L4.05947 14.924ZM4.27 14.9716L5.00418 14.2926L4.99759 14.2856L4.27 14.9716ZM4.29887 15.1847L3.59176 15.8918L4.26165 16.5617L4.96674 15.9289L4.29887 15.1847ZM4.70313 15.7749L4.13347 14.953L4.13116 14.9546L4.70313 15.7749ZM4.47392 15.6866L3.64995 16.2532L3.65333 16.2581L4.47392 15.6866ZM4.47562 15.4421L5.03587 16.2705L5.04448 16.2645L4.47562 15.4421ZM4.70483 15.5282L5.53359 14.9685L5.52622 14.9576L5.51857 14.9469L4.70483 15.5282ZM5.25681 16.3455L4.8096 15.4511L4.64126 15.5353L4.51504 15.6749L5.25681 16.3455ZM4.9933 16.3065L5.68702 15.5862L5.67958 15.579L5.67199 15.572L4.9933 16.3065ZM4.93506 16.0443L4.1984 15.368L4.19522 15.3715L4.93506 16.0443ZM5.20061 16.0834L4.51117 16.8077L4.51688 16.8131L4.52268 16.8185L5.20061 16.0834ZM5.25715 16.3453L5.70437 17.2398L5.85593 17.164L5.97407 17.0425L5.25715 16.3453ZM6.02086 16.6768L6.97581 16.9735L6.97792 16.9667L6.97994 16.9599L6.02086 16.6768ZM5.76448 16.7593L5.47443 17.7163L5.48163 17.7185L5.76448 16.7593ZM5.59639 16.5491L4.63686 16.2675L4.63671 16.268L5.59639 16.5491ZM5.85311 16.4667L5.55522 17.4214L5.56435 17.4241L5.85311 16.4667ZM6.86012 16.7381L6.15302 16.031L5.84589 16.3381L5.86071 16.7722L6.86012 16.7381ZM6.64279 16.8943L6.62885 15.8943L6.61929 15.8945L6.64279 16.8943ZM6.41952 16.7454H5.41952V16.7525L5.41963 16.7596L6.41952 16.7454ZM6.63855 16.5885L6.62042 15.5886L6.61916 15.5887L6.63855 16.5885ZM6.86029 16.7379L7.5674 17.445L7.86029 17.1521V16.7379H6.86029ZM7.64081 16.6053L8.62546 16.4307L8.62455 16.4257L7.64081 16.6053ZM7.44963 16.7949L7.63222 17.7781L7.633 17.778L7.44963 16.7949ZM7.20513 16.6841L6.21962 16.8543L6.22219 16.868L7.20513 16.6841ZM7.39564 16.4929L7.22586 15.5073L7.2144 15.5094L7.39564 16.4929ZM10.2532 -1C4.03902 -1 -1 4.03787 -1 10.2532H1C1 5.14257 5.14346 1 10.2532 1V-1ZM-1 10.2532C-1 15.2269 2.22576 19.4435 6.69594 20.9314L7.32755 19.0337C3.64993 17.8097 1 14.3401 1 10.2532H-1ZM6.82925 20.9658C7.31337 21.0556 7.83139 20.9738 8.22807 20.6118C8.59453 20.2774 8.71212 19.8339 8.71212 19.4893H6.71212C6.71212 19.4155 6.73565 19.2662 6.87999 19.1344C6.95538 19.0656 7.04007 19.0259 7.11312 19.0091C7.18131 18.9934 7.21453 19.0031 7.19424 18.9993L6.82925 20.9658ZM8.71212 19.4893C8.71212 19.2445 8.70252 18.4162 8.69818 17.5752L6.69821 17.5855C6.70271 18.4581 6.71212 19.2451 6.71212 19.4893H8.71212ZM7.48572 16.6032C6.2953 16.8621 5.7394 16.5865 5.50105 16.4079C5.36443 16.3055 5.27946 16.1954 5.23087 16.1175C5.2067 16.0788 5.19266 16.0498 5.18681 16.0368C5.18394 16.0304 5.18325 16.0284 5.18447 16.0316C5.18508 16.0332 5.18619 16.0361 5.18775 16.0405C5.18854 16.0427 5.18943 16.0453 5.19044 16.0482C5.19094 16.0497 5.19148 16.0512 5.19203 16.0529C5.19231 16.0537 5.1926 16.0546 5.19289 16.0555C5.19304 16.0559 5.19327 16.0566 5.19334 16.0568C5.19356 16.0575 5.19379 16.0582 4.24386 16.3706C3.29392 16.6831 3.29415 16.6838 3.29439 16.6845C3.29447 16.6848 3.29471 16.6855 3.29488 16.686C3.29521 16.687 3.29555 16.688 3.2959 16.689C3.29661 16.6912 3.29736 16.6934 3.29817 16.6957C3.29978 16.7004 3.30158 16.7056 3.30359 16.7113C3.3076 16.7225 3.31244 16.7357 3.31816 16.7505C3.32959 16.7802 3.34461 16.8169 3.36377 16.8593C3.40198 16.944 3.45725 17.0531 3.53407 17.1762C3.68748 17.4221 3.93126 17.7308 4.30167 18.0083C5.07739 18.5896 6.24866 18.9189 7.91067 18.5576L7.48572 16.6032ZM5.17439 16.0044C4.89073 15.2837 4.53009 14.7931 4.20781 14.47C4.04794 14.3097 3.90073 14.1937 3.78214 14.1127C3.72293 14.0722 3.67098 14.0405 3.62831 14.0163C3.60697 14.0042 3.58795 13.994 3.57148 13.9855C3.56325 13.9812 3.55566 13.9774 3.54873 13.974C3.54527 13.9723 3.54197 13.9707 3.53885 13.9692C3.53729 13.9684 3.53577 13.9677 3.53429 13.967C3.53355 13.9667 3.53282 13.9663 3.53211 13.966C3.53175 13.9658 3.53122 13.9656 3.53104 13.9655C3.53051 13.9652 3.52999 13.965 3.10543 14.8704C2.68086 15.7758 2.68034 15.7755 2.67983 15.7753C2.67966 15.7752 2.67914 15.775 2.67881 15.7748C2.67813 15.7745 2.67747 15.7742 2.67681 15.7739C2.6755 15.7733 2.67422 15.7726 2.67298 15.7721C2.67051 15.7709 2.66818 15.7697 2.66601 15.7687C2.66165 15.7665 2.65789 15.7646 2.65469 15.763C2.6483 15.7597 2.64417 15.7574 2.64212 15.7562C2.63802 15.7539 2.64222 15.7561 2.65329 15.7636C2.67529 15.7787 2.72523 15.8156 2.79167 15.8822C2.922 16.0129 3.13057 16.2725 3.31333 16.7369L5.17439 16.0044ZM3.66996 14.045C3.5835 13.9858 3.54797 13.9533 3.54174 13.9472C3.52839 13.9341 3.59268 13.9907 3.64592 14.1175C3.67508 14.187 3.70471 14.2868 3.70884 14.4105C3.71311 14.5383 3.68924 14.6696 3.63555 14.7929C3.53111 15.0327 3.35837 15.1482 3.28652 15.1891C3.21025 15.2326 3.15398 15.2459 3.14716 15.2476C3.1342 15.2508 3.13211 15.2504 3.14287 15.2492C3.15194 15.2482 3.16169 15.2476 3.16884 15.2473C3.17196 15.2472 3.17346 15.2472 3.17276 15.2472C3.17238 15.2472 3.17138 15.2473 3.16968 15.2472C3.16883 15.2472 3.1678 15.2472 3.16658 15.2472C3.16597 15.2472 3.16531 15.2472 3.1646 15.2472C3.16424 15.2472 3.16387 15.2472 3.16349 15.2472C3.1633 15.2472 3.16301 15.2472 3.16291 15.2472C3.16262 15.2472 3.16231 15.2472 3.17555 14.2473C3.18878 13.2474 3.18848 13.2474 3.18816 13.2473C3.18805 13.2473 3.18773 13.2473 3.18751 13.2473C3.18707 13.2473 3.18661 13.2473 3.18614 13.2473C3.18519 13.2473 3.18417 13.2473 3.18308 13.2473C3.1809 13.2473 3.17845 13.2473 3.17573 13.2473C3.17031 13.2472 3.1638 13.2472 3.15632 13.2473C3.14142 13.2474 3.12233 13.2478 3.09991 13.2485C3.05598 13.2501 2.99483 13.2534 2.92463 13.2611C2.82403 13.2722 2.55264 13.3054 2.29662 13.4513C2.15786 13.5303 1.93274 13.6939 1.80191 13.9943C1.65757 14.3257 1.70108 14.6517 1.80178 14.8916C1.96157 15.2723 2.29984 15.5309 2.54089 15.6958L3.66996 14.045ZM3.10562 15.2448C3.30391 15.2587 3.48723 15.3621 3.65287 15.522C3.73226 15.5987 3.79348 15.6754 3.83354 15.7313C3.85311 15.7586 3.86633 15.7792 3.87294 15.7898C3.87622 15.795 3.87775 15.7977 3.87753 15.7973C3.87741 15.7971 3.87684 15.7961 3.87582 15.7943C3.87531 15.7934 3.87469 15.7923 3.87395 15.791C3.87358 15.7903 3.87318 15.7896 3.87276 15.7888C3.87254 15.7885 3.87232 15.7881 3.87209 15.7877C3.87198 15.7874 3.8718 15.7871 3.87175 15.787C3.87157 15.7867 3.87139 15.7864 4.74728 15.3039C5.62317 14.8214 5.62299 14.821 5.6228 14.8207C5.62273 14.8206 5.62254 14.8202 5.62241 14.82C5.62215 14.8195 5.62188 14.819 5.6216 14.8185C5.62104 14.8175 5.62045 14.8164 5.61981 14.8153C5.61855 14.813 5.61713 14.8105 5.61556 14.8078C5.61243 14.8022 5.60869 14.7957 5.60435 14.7883C5.59567 14.7734 5.58455 14.7549 5.57099 14.7331C5.54392 14.6896 5.50673 14.6326 5.45937 14.5665C5.36558 14.4356 5.22689 14.2617 5.04202 14.0832C4.67916 13.7329 4.07662 13.308 3.24548 13.2497L3.10562 15.2448ZM3.88357 15.8079C4.50805 16.878 5.40035 17.3339 6.27362 17.4119C7.07788 17.4838 7.77906 17.2302 8.13941 17.069L7.32252 15.2434C7.09778 15.344 6.76436 15.4478 6.45167 15.4199C6.20798 15.3981 5.90099 15.2968 5.61098 14.7999L3.88357 15.8079ZM8.72146 16.2937C8.7864 15.8261 8.9585 15.6091 9.03967 15.5382L7.7242 14.0317C7.21892 14.4729 6.85958 15.1609 6.74047 16.0187L8.72146 16.2937ZM8.4949 13.7914C7.41451 13.6686 6.4895 13.4125 5.83604 12.8626C5.23092 12.3533 4.71038 11.4633 4.71038 9.718H2.71038C2.71038 11.9015 3.38694 13.4155 4.54825 14.3928C5.66122 15.3294 7.07199 15.6425 8.26897 15.7786L8.4949 13.7914ZM4.71038 9.718C4.71038 8.85979 5.00975 8.18281 5.50539 7.64008L4.02856 6.29138C3.21241 7.18507 2.71038 8.33738 2.71038 9.718H4.71038ZM5.6912 6.58388C5.64884 6.48136 5.36341 5.71778 5.79645 4.61925L3.93581 3.88578C3.25538 5.61185 3.67185 6.93394 3.84275 7.34758L5.6912 6.58388ZM4.86613 4.25252C5.17101 5.20491 5.17005 5.20521 5.1691 5.20552C5.16879 5.20562 5.16784 5.20592 5.16721 5.20611C5.16596 5.20651 5.16472 5.2069 5.16349 5.20728C5.16102 5.20805 5.15861 5.20879 5.15624 5.20951C5.1515 5.21094 5.14694 5.21228 5.14257 5.21352C5.13383 5.21601 5.12585 5.21813 5.11863 5.21993C5.10417 5.22354 5.09285 5.22587 5.08474 5.22733C5.06841 5.23028 5.06561 5.22966 5.07708 5.22914C5.09937 5.22811 5.18351 5.2271 5.33533 5.25908C5.64056 5.32337 6.22664 5.52289 7.12568 6.13157L8.24694 4.47544C7.18663 3.75757 6.36262 3.43159 5.74759 3.30203C5.43929 3.23708 5.18576 3.22205 4.98542 3.23124C4.88557 3.23582 4.80021 3.24636 4.72915 3.2592C4.69368 3.26561 4.66195 3.27256 4.63392 3.27956C4.61992 3.28305 4.60686 3.28656 4.59475 3.29001C4.58869 3.29174 4.58287 3.29345 4.57729 3.29514C4.57449 3.29598 4.57176 3.29682 4.56909 3.29765C4.56775 3.29807 4.56643 3.29848 4.56513 3.29889C4.56447 3.2991 4.5635 3.29941 4.56318 3.29951C4.56221 3.29982 4.56125 3.30012 4.86613 4.25252ZM7.95408 6.26699C8.67993 6.06526 9.46818 5.96151 10.2577 5.95798L10.2487 3.958C9.29511 3.96227 8.32877 4.08705 7.41855 4.34002L7.95408 6.26699ZM10.2487 5.95798C11.0379 5.96151 11.8268 6.06498 12.5543 6.26678L13.0889 4.33955C12.1772 4.08666 11.2105 3.96227 10.2577 3.958L10.2487 5.95798ZM13.3827 6.13092C14.2805 5.5223 14.8657 5.32291 15.1702 5.25869C15.3216 5.22674 15.4055 5.22778 15.4275 5.22879C15.4389 5.22931 15.436 5.22992 15.4196 5.22696C15.4114 5.22548 15.4001 5.22315 15.3856 5.21953C15.3784 5.21772 15.3704 5.21559 15.3616 5.21309C15.3572 5.21185 15.3527 5.21051 15.3479 5.20907C15.3456 5.20835 15.3431 5.20761 15.3407 5.20684C15.3394 5.20646 15.3382 5.20607 15.3369 5.20567C15.3363 5.20547 15.3354 5.20517 15.335 5.20507C15.3341 5.20477 15.3331 5.20446 15.6383 4.25218C15.9436 3.29989 15.9426 3.29958 15.9416 3.29927C15.9413 3.29917 15.9403 3.29886 15.9397 3.29866C15.9384 3.29824 15.937 3.29783 15.9357 3.29741C15.933 3.29658 15.9303 3.29574 15.9275 3.29489C15.9219 3.2932 15.9161 3.29149 15.91 3.28976C15.8979 3.2863 15.8848 3.28279 15.8708 3.27928C15.8428 3.27227 15.8111 3.26531 15.7756 3.2589C15.7045 3.24604 15.6191 3.23549 15.5193 3.2309C15.319 3.2217 15.0656 3.23675 14.7575 3.30174C14.1428 3.43137 13.3196 3.75748 12.2605 4.47542L13.3827 6.13092ZM14.7083 4.61973C15.1423 5.71773 14.857 6.4812 14.8146 6.58406L16.6635 7.34672C16.834 6.93342 17.2506 5.61088 16.5683 3.88463L14.7083 4.61973ZM15.0014 7.64059C15.4965 8.18151 15.7943 8.85763 15.7943 9.71766H17.7943C17.7943 8.33886 17.2964 7.18568 16.4767 6.29019L15.0014 7.64059ZM15.7943 9.71766C15.7943 11.4679 15.2726 12.3556 14.6677 12.8618C14.0136 13.4093 13.087 13.6621 12.002 13.7828L12.2231 15.7705C13.4212 15.6372 14.8355 15.3295 15.9514 14.3955C17.1167 13.4203 17.7943 11.9055 17.7943 9.71766H15.7943ZM11.4584 15.5331C11.5607 15.6215 11.8081 15.9425 11.8081 16.6754H13.8081C13.8081 15.4955 13.4002 14.5682 12.7666 14.0203L11.4584 15.5331ZM11.8081 16.6754C11.8081 17.3586 11.8052 17.9753 11.8022 18.464C11.7993 18.9486 11.7963 19.3163 11.7963 19.4891H13.7963C13.7963 19.3243 13.7992 18.971 13.8022 18.4762C13.8052 17.9854 13.8081 17.3642 13.8081 16.6754H11.8081ZM11.7963 19.4891C11.7963 19.8273 11.9086 20.2752 12.2794 20.6137C12.6819 20.9812 13.2066 21.0566 13.6908 20.9628L13.3103 18.9993C13.2868 19.0038 13.3191 18.9935 13.3882 19.0088C13.4626 19.0253 13.55 19.0656 13.6278 19.1366C13.7763 19.2722 13.7963 19.4239 13.7963 19.4891H11.7963ZM13.8168 20.9297C18.2845 19.4403 21.5065 15.2248 21.5065 10.2532H19.5065C19.5065 14.3387 16.8596 17.8071 13.1843 19.0323L13.8168 20.9297ZM21.5065 10.2531C21.5063 4.03827 16.4679 -1 10.2532 -1V1C15.3633 1 19.5064 5.14286 19.5065 10.2532L21.5065 10.2531ZM2.96921 14.3159C3.13162 13.9495 3.45101 13.8188 3.63493 13.7853C3.82832 13.75 4.00263 13.7854 4.13801 13.8499L3.27732 15.6552C3.48571 15.7546 3.73659 15.7997 3.99396 15.7528C4.24184 15.7075 4.61259 15.5437 4.79758 15.1264L2.96921 14.3159ZM4.11457 13.8391C4.24154 13.8956 4.38088 13.9991 4.48229 14.1683C4.58101 14.3331 4.69111 14.6624 4.51988 15.0254L2.71106 14.1721C2.51572 14.5861 2.63456 14.9758 2.76673 15.1963C2.90159 15.4214 3.09908 15.5762 3.30076 15.666L4.11457 13.8391ZM4.53766 14.9855C4.38022 15.3609 4.0549 15.4991 3.86178 15.534C3.66436 15.5696 3.49191 15.5312 3.36396 15.4705L4.22014 13.6631C4.018 13.5673 3.76829 13.5185 3.50665 13.5657C3.2493 13.6122 2.87279 13.7839 2.69328 14.212L4.53766 14.9855ZM3.38341 15.4795C3.25732 15.4231 3.11756 15.3196 3.01596 15.1488C2.91664 14.9818 2.80294 14.6385 2.99239 14.267L4.77406 15.1756C4.98949 14.7532 4.86755 14.3494 4.73483 14.1263C4.59982 13.8993 4.40149 13.744 4.20069 13.6541L3.38341 15.4795ZM4.59033 15.4284L4.5905 15.4283L3.17629 14.014L3.17612 14.0142L4.59033 15.4284ZM3.61756 14.4523C3.90838 14.1818 4.24804 14.1904 4.41974 14.2291C4.60173 14.27 4.73894 14.364 4.83168 14.4667L3.34736 15.8072C3.50496 15.9817 3.72239 16.1221 3.98057 16.1803C4.22847 16.2361 4.64029 16.2325 4.97983 15.9167L3.61756 14.4523ZM4.81711 14.4509C4.90929 14.5487 4.99491 14.6938 5.02122 14.8842C5.04687 15.0699 5.01891 15.3988 4.73847 15.6582L3.38046 14.1899C3.05027 14.4953 3.00372 14.895 3.04003 15.1579C3.07699 15.4254 3.20252 15.6539 3.36193 15.823L4.81711 14.4509ZM4.72538 15.6701C4.44295 15.9222 4.11636 15.9201 3.93683 15.8793C3.75492 15.8379 3.62531 15.7455 3.54241 15.6576L4.99759 14.2856C4.84746 14.1263 4.63788 13.9876 4.38016 13.929C4.12482 13.871 3.72658 13.8807 3.39355 14.178L4.72538 15.6701ZM3.53586 15.6506C3.45058 15.5584 3.36434 15.4162 3.33798 15.2235C3.31157 15.0305 3.34473 14.6973 3.63099 14.4404L4.96674 15.9289C5.30428 15.6261 5.35645 15.2224 5.31952 14.9525C5.28264 14.6828 5.15633 14.4571 5.00415 14.2926L3.53586 15.6506ZM5.00597 14.4776L5.00581 14.4774L3.59159 15.8916L3.59176 15.8918L5.00597 14.4776ZM4.13116 14.9546C4.45717 14.7273 4.79162 14.7872 4.95137 14.8494C5.11776 14.9141 5.22763 15.019 5.29451 15.1151L3.65333 16.2581C3.78371 16.4453 3.97677 16.6162 4.22619 16.7133C4.46897 16.8077 4.88628 16.8663 5.27511 16.5951L4.13116 14.9546ZM5.29787 15.1199C5.3666 15.2198 5.42789 15.3658 5.427 15.5512C5.42613 15.7342 5.35271 16.0561 5.03584 16.2704L3.9154 14.6137C3.534 14.8717 3.42833 15.2701 3.42703 15.5416C3.42571 15.8155 3.51842 16.0619 3.64997 16.2532L5.29787 15.1199ZM5.04448 16.2645C4.72723 16.4839 4.39994 16.4325 4.23451 16.3696C4.0661 16.3056 3.95658 16.2011 3.8911 16.1094L5.51857 14.9469C5.38856 14.7649 5.1961 14.5955 4.94505 14.5C4.69697 14.4058 4.28734 14.3564 3.90675 14.6196L5.04448 16.2645ZM3.87607 16.0878C3.81022 15.9902 3.75062 15.8472 3.75149 15.6648C3.75235 15.4849 3.82335 15.1679 4.13347 14.953L5.2728 16.5967C5.6471 16.3373 5.75019 15.9432 5.75147 15.6743C5.75276 15.4028 5.66192 15.1586 5.53359 14.9685L3.87607 16.0878ZM4.51504 15.6749C4.77522 15.3871 5.10709 15.366 5.28066 15.3913C5.46143 15.4175 5.59681 15.4993 5.68702 15.5862L4.29958 17.0267C4.47741 17.198 4.71652 17.3303 4.99315 17.3705C5.26255 17.4096 5.68238 17.3659 5.99859 17.0162L4.51504 15.6749ZM5.67199 15.572C5.76056 15.6539 5.84831 15.7797 5.88639 15.9536C5.92298 16.1206 5.92669 16.4402 5.67491 16.7171L4.19522 15.3715C3.88724 15.7102 3.87533 16.1195 3.93271 16.3815C3.9916 16.6504 4.13656 16.8764 4.31462 17.0409L5.67199 15.572ZM5.67172 16.7206C5.41163 17.0039 5.08302 17.0236 4.91166 16.9986C4.73353 16.9726 4.60025 16.8925 4.51117 16.8077L5.89006 15.359C5.71285 15.1904 5.47533 15.0597 5.20072 15.0196C4.93287 14.9805 4.51555 15.0226 4.19841 15.368L5.67172 16.7206ZM4.52268 16.8185C4.43762 16.74 4.34747 16.6153 4.30826 16.437C4.26942 16.2604 4.27008 15.926 4.54024 15.6482L5.97407 17.0425C6.30416 16.7031 6.3213 16.2789 6.26157 16.0074C6.20148 15.7341 6.05308 15.5092 5.87855 15.3482L4.52268 16.8185ZM4.80994 15.4509L4.8096 15.4511L5.70403 17.2399L5.70437 17.2398L4.80994 15.4509ZM5.06592 16.38C5.17865 16.0172 5.46179 15.86 5.62182 15.8087C5.78814 15.7554 5.93653 15.7674 6.04733 15.8001L5.48163 17.7185C5.70873 17.7854 5.97284 17.7964 6.23203 17.7133C6.48493 17.6323 6.83811 17.4166 6.97581 16.9735L5.06592 16.38ZM6.05453 15.8023C6.16593 15.836 6.29774 15.9082 6.40801 16.0456C6.51479 16.1787 6.66252 16.4667 6.55607 16.8302L4.63671 16.268C4.50649 16.7126 4.68028 17.0881 4.84806 17.2973C5.01932 17.5107 5.24706 17.6474 5.47443 17.7163L6.05453 15.8023ZM6.55592 16.8307C6.44748 17.2002 6.16096 17.3626 5.99677 17.4156C5.82577 17.4707 5.67154 17.4576 5.55523 17.4213L6.15099 15.5121C5.91769 15.4393 5.64699 15.4269 5.38282 15.5121C5.12545 15.5952 4.76907 15.817 4.63686 16.2675L6.55592 16.8307ZM5.56435 17.4241C5.45393 17.3908 5.32117 17.3191 5.2098 17.1804C5.10074 17.0446 4.95492 16.7556 5.06178 16.3936L6.97994 16.9599C7.11091 16.5163 6.9392 16.1398 6.76923 15.9281C6.59694 15.7136 6.36826 15.5776 6.14187 15.5093L5.56435 17.4241ZM5.86071 16.7722C5.84743 16.3832 6.07297 16.1366 6.21596 16.0342C6.36268 15.9291 6.5121 15.896 6.62885 15.8944L6.65674 17.8942C6.89523 17.8908 7.15476 17.8219 7.38043 17.6603C7.60236 17.5013 7.87571 17.1775 7.85954 16.7039L5.86071 16.7722ZM6.61929 15.8945C6.74202 15.8917 6.89493 15.922 7.0446 16.0229C7.18778 16.1195 7.414 16.3518 7.41942 16.7311L5.41963 16.7596C5.42623 17.2221 5.70272 17.5303 5.92654 17.6812C6.15686 17.8365 6.42081 17.8998 6.6663 17.894L6.61929 15.8945ZM7.41952 16.7454C7.41952 17.1091 7.21146 17.3441 7.06542 17.4487C6.91857 17.5539 6.77023 17.5861 6.65794 17.5883L6.61916 15.5887C6.38428 15.5932 6.12643 15.6612 5.90071 15.8229C5.67581 15.984 5.41952 16.2962 5.41952 16.7454H7.41952ZM6.65668 17.5883C6.5361 17.5905 6.38456 17.5604 6.23534 17.4596C6.09179 17.3627 5.86029 17.1253 5.86029 16.7379H7.86029C7.86029 16.2668 7.57879 15.9536 7.35481 15.8023C7.12515 15.6472 6.86274 15.5843 6.62042 15.5886L6.65668 17.5883ZM6.15319 16.0308L6.15302 16.031L7.56723 17.4452L7.5674 17.445L6.15319 16.0308ZM6.65617 16.7799C6.58986 16.4059 6.76893 16.1348 6.89095 16.0135C7.01687 15.8882 7.15574 15.8325 7.26626 15.8119L7.633 17.778C7.86458 17.7348 8.10634 17.6254 8.30123 17.4316C8.49223 17.2417 8.70636 16.887 8.62545 16.4307L6.65617 16.7799ZM7.26704 15.8118C7.39047 15.7888 7.54427 15.7958 7.70415 15.8689C7.85483 15.9377 8.11805 16.1259 8.18808 16.5002L6.22219 16.868C6.3075 17.3239 6.63354 17.5786 6.87294 17.688C7.12153 17.8015 7.38994 17.8231 7.63222 17.7781L7.26704 15.8118ZM8.19055 16.5139C8.25417 16.8823 8.07912 17.1508 7.95636 17.2732C7.83103 17.3981 7.69145 17.4552 7.57687 17.4763L7.2144 15.5094C6.98097 15.5525 6.73883 15.6629 6.54432 15.8568C6.35237 16.0482 6.14149 16.4013 6.21972 16.8542L8.19055 16.5139ZM7.5654 17.4784C7.45572 17.4973 7.30513 17.4939 7.14172 17.4191C6.98028 17.3452 6.72406 17.1519 6.65707 16.7849L8.62455 16.4257C8.54228 15.975 8.22408 15.715 7.97419 15.6006C7.72232 15.4853 7.45678 15.4676 7.22587 15.5074L7.5654 17.4784Z" fill="#787673" mask="url(#path-1-inside-1_1221_514)"/>
</svg>
