<svg width="20" height="20" viewBox="0 0 20 20" fill="none" xmlns="http://www.w3.org/2000/svg">
<path d="M13.4846 6.76565C12.5149 6.7658 11.7224 7.08199 11.1377 7.52808V7.4968V6.9968H10.6377H7.7918H7.2918V7.4968V17.0493V17.5493H7.7918H10.7557H11.2557V17.0493V12.3296C11.2557 11.7165 11.3235 11.213 11.5125 10.8736C11.6008 10.7149 11.7131 10.5973 11.8599 10.5156C12.0091 10.4325 12.2232 10.3706 12.5377 10.3706C12.8386 10.3706 13.0197 10.4399 13.135 10.5204C13.2513 10.6016 13.3438 10.7245 13.4151 10.9048C13.569 11.2945 13.5803 11.8261 13.5803 12.4017V17.0493V17.5493H14.0803H17.0492H17.5492V17.0493V11.8034C17.5492 10.5093 17.4142 9.24651 16.8173 8.30269C16.187 7.30618 15.1108 6.7622 13.4846 6.76565ZM13.4846 6.76565C13.4844 6.76565 13.4843 6.76565 13.4842 6.76565L13.4852 7.26565V6.76565C13.485 6.76565 13.4848 6.76565 13.4846 6.76565ZM10.6377 8.78748V8.80827H10.677M10.6377 8.78748L11.1377 8.19095C10.9415 8.38799 10.7872 8.59971 10.677 8.80827M10.6377 8.78748L10.677 8.80827M10.6377 8.78748V8.30827H10.677V8.80827M18.5246 0.500092L18.5286 0.50006C18.7826 0.498028 19.0271 0.596329 19.209 0.773595C19.39 0.949927 19.4944 1.19022 19.5 1.44271V18.5522C19.4958 18.8058 19.3918 19.0475 19.2105 19.225C19.0285 19.4032 18.7833 19.5021 18.5286 19.5001V19.5001H18.5246L1.47541 19.5L1.47031 19.5001C1.21626 19.5027 0.971529 19.4045 0.789672 19.2271C0.608591 19.0505 0.504532 18.8096 0.5 18.5567V1.44609C0.503841 1.19268 0.607672 0.951015 0.788934 0.773781C0.970853 0.595905 1.21591 0.497461 1.47032 0.50005L1.47032 0.500076H1.47541L18.5246 0.500092ZM5.92951 17.5493H6.42951V17.0493V7.4968V6.9968H5.92951H2.96066H2.46066V7.4968V17.0493V17.5493H2.96066H5.92951ZM4.45458 6.69516L4.4552 6.69189C4.74346 6.69153 5.02893 6.63508 5.29568 6.52563C5.56588 6.41476 5.81157 6.25169 6.01868 6.04576C6.22579 5.83983 6.39025 5.59508 6.50266 5.32551C6.61507 5.05595 6.67321 4.76686 6.67377 4.4748V4.47385C6.67377 4.03442 6.54344 3.60487 6.29926 3.23953C6.05509 2.87419 5.70804 2.58948 5.30203 2.42142C4.89601 2.25336 4.44927 2.20949 4.01832 2.29537C3.58737 2.38125 3.19158 2.59302 2.88101 2.90389C2.57043 3.21476 2.35904 3.61076 2.27357 4.04179C2.1881 4.47282 2.23239 4.91952 2.40084 5.32537C2.56929 5.73123 2.85433 6.078 3.2199 6.32183C3.58547 6.56565 4.01515 6.69558 4.45458 6.69516Z" fill="#787673" stroke="#787673"/>
</svg>
