<svg width="20" height="20" viewBox="0 0 20 20" fill="none" xmlns="http://www.w3.org/2000/svg">
<path d="M6.79688 9.37598H2.57812C1.15652 9.37598 0 8.21945 0 6.79785V2.5791C0 1.1575 1.15652 0.000976562 2.57812 0.000976562H6.79688C8.21848 0.000976562 9.375 1.1575 9.375 2.5791V6.79785C9.375 8.21945 8.21848 9.37598 6.79688 9.37598ZM2.57812 1.25098C1.84578 1.25098 1.25 1.84676 1.25 2.5791V6.79785C1.25 7.5302 1.84578 8.12598 2.57812 8.12598H6.79688C7.52922 8.12598 8.125 7.5302 8.125 6.79785V2.5791C8.125 1.84676 7.52922 1.25098 6.79688 1.25098H2.57812Z" fill="#787673"/>
<path d="M17.4219 9.37598H13.2031C11.7815 9.37598 10.625 8.21945 10.625 6.79785V2.5791C10.625 1.1575 11.7815 0.000976562 13.2031 0.000976562H17.4219C18.8435 0.000976562 20 1.1575 20 2.5791V6.79785C20 8.21945 18.8435 9.37598 17.4219 9.37598ZM13.2031 1.25098C12.4708 1.25098 11.875 1.84676 11.875 2.5791V6.79785C11.875 7.5302 12.4708 8.12598 13.2031 8.12598H17.4219C18.1542 8.12598 18.75 7.5302 18.75 6.79785V2.5791C18.75 1.84676 18.1542 1.25098 17.4219 1.25098H13.2031Z" fill="#787673"/>
<path d="M15.3125 20.001C12.7278 20.001 10.625 17.8982 10.625 15.3135C10.625 12.7288 12.7278 10.626 15.3125 10.626C17.8972 10.626 20 12.7288 20 15.3135C20 17.8982 17.8972 20.001 15.3125 20.001ZM15.3125 11.876C13.4171 11.876 11.875 13.418 11.875 15.3135C11.875 17.2089 13.4171 18.751 15.3125 18.751C17.2079 18.751 18.75 17.2089 18.75 15.3135C18.75 13.418 17.2079 11.876 15.3125 11.876Z" fill="#787673"/>
<path d="M6.79688 20.001H2.57812C1.15652 20.001 0 18.8445 0 17.4229V13.2041C0 11.7825 1.15652 10.626 2.57812 10.626H6.79688C8.21848 10.626 9.375 11.7825 9.375 13.2041V17.4229C9.375 18.8445 8.21848 20.001 6.79688 20.001ZM2.57812 11.876C1.84578 11.876 1.25 12.4718 1.25 13.2041V17.4229C1.25 18.1552 1.84578 18.751 2.57812 18.751H6.79688C7.52922 18.751 8.125 18.1552 8.125 17.4229V13.2041C8.125 12.4718 7.52922 11.876 6.79688 11.876H2.57812Z" fill="#787673"/>
</svg>
