<svg width="21" height="20" viewBox="0 0 21 20" fill="none" xmlns="http://www.w3.org/2000/svg">
<path d="M6.328 20C13.9214 20 18.0737 12.3041 18.0737 5.63165C18.0737 5.41314 18.0737 5.19511 18.0619 4.97833C18.87 4.26356 19.5677 3.37806 20.1215 2.36366C19.3685 2.77269 18.5698 3.0404 17.7512 3.15956C18.6127 2.52762 19.2575 1.53476 19.5652 0.365523C18.7546 0.953915 17.8679 1.36845 16.9431 1.59182C15.6641 -0.0722728 13.6309 -0.480044 11.984 0.598333C10.3378 1.67671 9.48736 3.9718 9.90912 6.19725C6.5902 5.99399 3.49718 4.07571 1.40158 0.921375C0.304021 3.22747 0.862701 6.18011 2.67598 7.66359C2.02392 7.63655 1.38586 7.41915 0.816014 7.02992V7.09437C0.816014 9.49526 2.19715 11.5648 4.12031 12.0448C3.51889 12.247 2.87285 12.2766 2.25547 12.1302C2.79576 14.1886 4.34573 15.5996 6.11232 15.6401C4.6496 17.042 2.84371 17.8016 0.985001 17.7969C0.655829 17.7969 0.326657 17.7733 0 17.7268C1.88763 19.2096 4.084 19.9969 6.32784 19.9939" fill="#787673"/>
</svg>
