<svg width="20" height="20" viewBox="0 0 20 20" fill="none" xmlns="http://www.w3.org/2000/svg">
<path d="M19.4434 13.2905C19.8036 12.2597 20 11.1522 20 10.0002C20 8.84807 19.8036 7.74118 19.4434 6.71039C19.4349 6.67954 19.4242 6.64928 19.4117 6.62031C18.023 2.76449 14.3286 0 10.0001 0C5.67152 0 1.97712 2.76435 0.588465 6.62031C0.575782 6.64913 0.564972 6.67954 0.556757 6.71039C0.196585 7.74118 0 8.84807 0 10.0002C0 11.1522 0.196585 12.2597 0.556757 13.2905C0.565549 13.3213 0.575926 13.3516 0.588465 13.3806C1.9777 17.2364 5.67152 20.0009 10.0001 20.0009C14.3286 20.0009 18.023 17.2365 19.4117 13.3806C19.4242 13.3516 19.4349 13.3213 19.4434 13.2905ZM9.99993 18.5672C9.61915 18.5672 9.00502 17.8779 8.49179 16.3382C8.24403 15.5952 8.04615 14.7408 7.90159 13.8118H12.0984C11.9543 14.741 11.756 15.5949 11.5082 16.3382C10.9948 17.8779 10.3807 18.5672 9.99993 18.5672ZM7.72749 12.3782C7.6583 11.6139 7.62199 10.8164 7.62199 10.0002C7.62199 9.18403 7.6583 8.38701 7.72749 7.62271H12.2725C12.3413 8.38701 12.3776 9.18403 12.3776 10.0002C12.3776 10.8164 12.3413 11.6139 12.2725 12.3782H7.72749ZM1.43333 10.0002C1.43333 9.17567 1.55037 8.37778 1.7693 7.62271H6.28968C6.22251 8.40286 6.1885 9.20219 6.1885 10.0002C6.1885 10.7987 6.22251 11.598 6.28968 12.3782H1.7693C1.55037 11.6226 1.43333 10.8252 1.43333 10.0002ZM9.99993 1.43363C10.3807 1.43363 10.9948 2.12298 11.5081 3.66269C11.7558 4.40566 11.9541 5.26004 12.0983 6.18908H7.90145C8.04557 5.25946 8.24389 4.40551 8.49164 3.66269C9.00502 2.12284 9.61915 1.43363 9.99993 1.43363ZM13.7102 7.62271H18.2304C18.4489 8.37764 18.5665 9.17567 18.5665 10.0002C18.5665 10.8252 18.4489 11.6232 18.2304 12.3782H13.7102C13.7773 11.598 13.8109 10.7987 13.8109 10.0002C13.8109 9.20219 13.7773 8.40286 13.7102 7.62271ZM17.6706 6.18922H13.546C13.2908 4.43088 12.8535 2.8537 12.2398 1.73139C14.6187 2.37621 16.5898 4.023 17.6706 6.18922ZM7.76006 1.73125C7.14637 2.85356 6.70923 4.43074 6.45384 6.18908H2.32923C3.41003 4.023 5.3811 2.37621 7.76006 1.73125ZM2.32937 13.8116H6.45398C6.70923 15.57 7.14651 17.1472 7.7602 18.2695C5.3811 17.6241 3.41003 15.9779 2.32937 13.8116ZM12.2398 18.2695C12.8535 17.1472 13.2906 15.57 13.546 13.8116H17.6706C16.5898 15.9779 14.6187 17.6241 12.2398 18.2695Z" fill="#787673"/>
</svg>
