<svg width="196" height="196" viewBox="0 0 196 196" fill="none" xmlns="http://www.w3.org/2000/svg">
<g clip-path="url(#clip0_1444_2872)">
<path d="M195.472 149.88H0.809692V149.978H195.472V149.88Z" fill="#EBEBEB"/>
<path d="M175.967 156.188H163.072V156.285H175.967V156.188Z" fill="#EBEBEB"/>
<path d="M107.182 154.96H102.164V155.057H107.182V154.96Z" fill="#EBEBEB"/>
<path d="M136.944 155.374H126.377V155.471H136.944V155.374Z" fill="#EBEBEB"/>
<path d="M162.682 152.549H140.837V152.646H162.682V152.549Z" fill="#EBEBEB"/>
<path d="M31.5609 157.083H21.2333V157.18H31.5609V157.083Z" fill="#EBEBEB"/>
<path d="M43.9814 157.083H35.027V157.18H43.9814V157.083Z" fill="#EBEBEB"/>
<path d="M75.4875 154.911H51.8112V155.008H75.4875V154.911Z" fill="#EBEBEB"/>
<path d="M93.085 132.405H17.9068C16.6816 132.405 15.6846 131.401 15.6846 130.168V23.8066C15.6846 22.5735 16.6816 21.5699 17.9068 21.5699H93.085C94.3098 21.5699 95.3068 22.5735 95.3068 23.8066V130.168C95.3068 131.401 94.3098 132.405 93.085 132.405ZM17.9068 21.6683C16.735 21.6683 15.7819 22.6276 15.7819 23.807V130.168C15.7819 131.348 16.735 132.307 17.9068 132.307H93.085C94.2565 132.307 95.2095 131.348 95.2095 130.168V23.8066C95.2095 22.6276 94.2565 21.6679 93.085 21.6679L17.9068 21.6683Z" fill="#EBEBEB"/>
<path d="M177.294 132.405H102.117C100.891 132.405 99.8947 131.401 99.8947 130.168V23.8066C99.8947 22.5735 100.892 21.5699 102.117 21.5699H177.294C178.52 21.5699 179.517 22.5735 179.517 23.8066V130.168C179.517 131.401 178.52 132.405 177.294 132.405ZM102.117 21.6683C100.945 21.6683 99.992 22.6276 99.992 23.807V130.168C99.992 131.348 100.945 132.307 102.117 132.307H177.294C178.466 132.307 179.419 131.348 179.419 130.168V23.8066C179.419 22.6276 178.466 21.6679 177.294 21.6679L102.117 21.6683Z" fill="#EBEBEB"/>
<path d="M182.649 76.1236C183.916 71.7019 183.684 67.205 182.263 63.1752C183.374 61.5753 184.25 59.7704 184.817 57.7904C187.424 48.6924 182.67 39.2154 174.096 35.8051C172.441 23.8869 164.037 13.4695 151.806 9.91935C142.137 7.11251 132.221 9.22263 124.682 14.774C122.795 12.7865 120.38 11.2571 117.567 10.4405C109.087 7.97889 100.23 12.9025 97.7849 21.4371C97.3757 22.8646 97.1764 24.3023 97.1604 25.7188C88.6268 27.4489 81.3192 33.78 78.7399 42.7801C76.423 50.8656 78.4736 59.1748 83.4865 65.1588C82.8387 66.3371 82.3065 67.6028 81.9199 68.9519C79.1436 78.6409 84.6966 88.7605 94.323 91.5548C97.4972 92.4764 100.716 92.4811 103.708 91.7331C107.247 96.6441 112.372 100.452 118.613 102.264C126.643 104.595 134.862 103.145 141.404 98.9663C144.332 105.821 146.74 116.103 141.559 126.185C160.38 124.327 173.973 106.156 171.202 89.5089C176.573 87.0214 180.882 82.2902 182.649 76.1236Z" fill="#EBEBEB"/>
<path d="M146.54 122.425C146.439 122.425 146.34 122.385 146.265 122.311C146.165 122.21 146.127 122.062 146.166 121.925C148.817 112.631 146.401 103.721 143.908 97.8828L142.644 94.9255L139.944 96.6504C135.866 99.2547 131.177 100.632 126.384 100.632C124.022 100.632 121.662 100.294 119.368 99.6285C113.904 98.0423 109.252 94.755 105.914 90.1221L104.834 88.6245L103.05 89.0712C100.435 89.7256 97.6813 89.6739 95.0787 88.9192C91.1223 87.7706 87.8474 85.1401 85.856 81.5124C83.8653 77.8842 83.3974 73.6937 84.5385 69.7117C84.8573 68.6 85.3058 67.515 85.8711 66.4868L86.7798 64.8339L85.5702 63.39C80.9513 57.877 79.3764 50.4561 81.3585 43.5399C83.5769 35.7993 89.838 30.001 97.6988 28.4077L99.8607 27.9696L99.8856 25.7498C99.8993 24.5441 100.073 23.3489 100.403 22.1973C102.031 16.5166 107.265 12.5491 113.132 12.5491C114.371 12.5491 115.609 12.7262 116.812 13.0757C119.06 13.7282 121.1 14.9707 122.711 16.669L124.362 18.4081L126.291 16.9884C131.164 13.4002 137.148 11.4241 143.142 11.4241C145.805 11.4241 148.466 11.8046 151.051 12.555C161.853 15.691 169.839 24.9665 171.397 36.1852L171.616 37.7687L173.094 38.3569C180.491 41.2997 184.406 49.3276 182.198 57.031C181.729 58.6678 180.999 60.2066 180.028 61.6047L179.225 62.7622L179.694 64.0933C180.981 67.7431 181.097 71.64 180.03 75.3642C178.552 80.5206 174.919 84.7683 170.063 87.0175L168.17 87.8941L168.514 89.9623C169.696 97.0662 167.57 104.826 162.681 111.252C158.608 116.603 152.915 120.566 146.649 122.41C146.614 122.42 146.577 122.425 146.54 122.425ZM142.822 93.9564C142.86 93.9564 142.899 93.9623 142.937 93.9741C143.046 94.0078 143.134 94.0881 143.179 94.1939L144.623 97.5736C147.105 103.385 149.51 112.187 147.103 121.451C152.945 119.574 158.237 115.803 162.063 110.775C166.821 104.521 168.893 96.9823 167.746 90.092L167.353 87.7283C167.324 87.5539 167.415 87.3815 167.574 87.3079L169.737 86.3059C174.388 84.1515 177.867 80.0845 179.282 75.1467C180.304 71.5809 180.192 67.8497 178.961 64.3551L178.424 62.8339C178.382 62.7148 178.4 62.5824 178.472 62.4789L179.39 61.156C180.311 59.828 181.004 58.3672 181.45 56.8135C183.546 49.5004 179.83 41.8788 172.807 39.0853L171.119 38.4133C170.988 38.3616 170.896 38.2428 170.877 38.1033L170.625 36.2938C169.11 25.3807 161.342 16.3583 150.835 13.3081C148.32 12.5781 145.731 12.2078 143.142 12.2078C137.312 12.2078 131.491 14.1302 126.75 17.6208L124.546 19.2439C124.388 19.3603 124.169 19.3403 124.035 19.1984L122.148 17.2109C120.631 15.613 118.711 14.4437 116.596 13.8297C115.463 13.5005 114.297 13.3336 113.131 13.3336C107.61 13.3336 102.684 17.0679 101.151 22.4155C100.841 23.4994 100.677 24.6244 100.664 25.7596L100.636 28.2965C100.634 28.4814 100.504 28.6393 100.323 28.6762L97.8522 29.1769C90.2775 30.7122 84.2442 36.2996 82.1068 43.7582C80.1971 50.4224 81.7147 57.5729 86.1659 62.8861L87.5484 64.5361C87.6523 64.66 87.6694 64.8363 87.5912 64.9785L86.5528 66.8673C86.0156 67.8438 85.5897 68.8743 85.2872 69.9296C84.2037 73.7098 84.6479 77.6895 86.5381 81.1342C88.4282 84.579 91.5381 87.0767 95.2943 88.1668C97.7662 88.8839 100.38 88.9325 102.863 88.311L104.902 87.8008C105.055 87.7612 105.217 87.8212 105.311 87.9513L106.544 89.6629C109.78 94.1527 114.289 97.3389 119.584 98.8761C121.808 99.5219 124.095 99.8487 126.384 99.8487C131.029 99.8487 135.574 98.5141 139.527 95.989L142.613 94.0179C142.676 93.9768 142.749 93.9564 142.822 93.9564Z" fill="white"/>
<path d="M119.239 57.3214L108.803 55.6862L108.965 54.636C109.242 52.8488 109.667 51.4291 110.243 50.3774C110.818 49.3256 111.575 48.4016 112.514 47.6046C113.453 46.8084 115.493 45.4671 118.635 43.5818C120.307 42.5975 121.22 41.5995 121.377 40.5861C121.534 39.5728 121.358 38.7386 120.85 38.083C120.342 37.4274 119.484 37.0054 118.276 36.8157C116.976 36.612 115.833 36.8769 114.848 37.6088C113.863 38.3416 113.084 39.7672 112.513 41.8863L102.063 38.8898C103.039 35.0038 104.953 32.0528 107.806 30.0375C110.659 28.021 114.648 27.4148 119.774 28.2181C123.765 28.8435 126.858 30.1872 129.051 32.2483C132.033 35.0363 133.231 38.3201 132.647 42.0967C132.405 43.6637 131.741 45.1069 130.655 46.4279C129.569 47.7488 127.537 49.2516 124.558 50.9357C122.48 52.1207 121.13 53.1211 120.507 53.9389C119.883 54.7567 119.461 55.8841 119.239 57.3214ZM108.014 58.4221L119.191 60.1733L117.656 70.0958L106.479 68.3446L108.014 58.4221Z" fill="white"/>
<path d="M145.869 72.6956L140.075 67.9718L140.544 67.3888C141.343 66.3962 142.103 65.6819 142.825 65.2453C143.547 64.8084 144.334 64.5149 145.189 64.3637C146.042 64.2128 147.761 64.1223 150.343 64.0933C151.71 64.089 152.619 63.8061 153.072 63.2434C153.525 62.6807 153.712 62.1086 153.633 61.5274C153.554 60.9459 153.178 60.3817 152.508 59.8346C151.786 59.2461 150.995 59 150.136 59.0952C149.276 59.1908 148.299 59.7829 147.203 60.8727L141.88 55.313C143.845 53.2895 146.054 52.1716 148.506 51.9596C150.958 51.7472 153.606 52.8013 156.452 55.1214C158.668 56.9279 160.082 58.8523 160.695 60.8934C161.532 63.6595 161.107 66.0921 159.419 68.1889C158.719 69.0588 157.805 69.7027 156.677 70.1215C155.549 70.5404 153.778 70.7321 151.366 70.6964C149.68 70.678 148.504 70.8065 147.835 71.0835C147.166 71.3606 146.511 71.8978 145.869 72.6956ZM138.629 69.3606L144.835 74.4198L140.401 79.9288L134.196 74.8696L138.629 69.3606Z" fill="white"/>
<path d="M147.489 38.7534L144.981 35.307L145.323 35.0547C145.906 34.6252 146.427 34.3431 146.888 34.2079C147.348 34.0731 147.824 34.0264 148.316 34.068C148.807 34.1095 149.766 34.3109 151.192 34.6722C151.945 34.8697 152.486 34.8466 152.816 34.6033C153.147 34.3599 153.332 34.0723 153.372 33.7408C153.412 33.4093 153.287 33.0441 152.997 32.6448C152.685 32.2153 152.285 31.9641 151.798 31.8912C151.311 31.8184 150.688 32.0014 149.928 32.441L147.799 28.6032C149.173 27.7764 150.55 27.4837 151.93 27.7255C153.31 27.9668 154.616 28.9339 155.848 30.6267C156.807 31.9449 157.308 33.2106 157.35 34.4238C157.412 36.0688 156.827 37.3454 155.596 38.253C155.085 38.6295 154.489 38.8505 153.808 38.916C153.127 38.9814 152.124 38.8286 150.802 38.4563C149.877 38.2001 149.21 38.099 148.803 38.1534C148.396 38.2079 147.958 38.4081 147.489 38.7534ZM143.985 35.8599L146.671 39.5512L143.436 41.9356L140.75 38.2443L143.985 35.8599Z" fill="white"/>
<path d="M50.7736 87.6448C47.5543 87.6448 44.3159 86.7572 41.4458 85.0358C37.4953 82.6663 34.7035 78.9935 33.7551 74.9319C30.5482 74.6995 27.5936 73.1145 25.6209 70.5592C24.1936 68.7105 23.378 66.5055 23.2565 64.1732C22.4101 63.5941 21.663 62.8887 21.0347 62.0748C17.9641 58.0975 18.3499 52.514 21.9103 49.0121C20.4258 42.6417 22.766 35.9583 27.9023 31.9414C31.9315 28.7897 37.0635 27.6827 42.0235 28.8857C42.6005 27.5628 43.5002 26.3998 44.6374 25.5107C46.4649 24.0816 48.7363 23.4543 51.0329 23.7435C53.3295 24.0334 55.3762 25.2062 56.7964 27.046C57.2243 27.6005 57.5844 28.2059 57.869 28.8485C62.5542 28.0766 67.2451 29.9194 70.1619 33.6977C72.7704 37.0758 73.5557 41.5042 72.281 45.5826C72.7914 46.0214 73.2547 46.5085 73.66 47.034C76.9739 51.3263 76.2004 57.5325 71.9357 60.8683C70.6334 61.8871 69.0929 62.5588 67.4682 62.8186C66.6199 66.0165 64.8009 68.7775 62.1983 70.8128C58.9128 73.3829 54.7054 74.4554 50.6011 73.7822C50.5599 77.5891 51.4389 82.7498 55.6721 86.4394C55.7566 86.5131 55.7943 86.6271 55.7706 86.7376C55.7464 86.8478 55.6647 86.9359 55.5572 86.9673C54.0007 87.421 52.3893 87.6444 50.7736 87.6448ZM38.0785 29.0264C34.5621 29.0264 31.1322 30.1937 28.2773 32.4265C23.2846 36.3317 21.0347 42.8517 22.5452 49.0383C22.5713 49.1457 22.5382 49.2593 22.458 49.3357C19.0086 52.6097 18.6041 57.9247 21.517 61.6979C22.1361 62.4996 22.8781 63.1893 23.7222 63.7469C23.8047 63.8017 23.8561 63.8926 23.86 63.9922C23.9472 66.2532 24.7231 68.3935 26.1037 70.1819C28.0149 72.6572 30.8998 74.1702 34.0186 74.3324C34.1565 74.3394 34.2721 74.4382 34.3013 74.5738C35.1613 78.5601 37.8796 82.1808 41.7588 84.508C45.7595 86.9081 50.4999 87.6303 54.8514 86.5233C50.6735 82.5903 49.8972 77.2525 49.9973 73.4096C49.9996 73.3194 50.0413 73.2352 50.111 73.1784C50.1807 73.122 50.271 73.0996 50.3594 73.1153C54.4033 73.8798 58.5815 72.8633 61.8242 70.328C64.3719 68.3351 66.1371 65.6176 66.9278 62.4691C66.9586 62.3472 67.059 62.2567 67.1824 62.2398C68.7756 62.0196 70.2896 61.3781 71.5612 60.3836C75.5599 57.2558 76.2852 51.4368 73.178 47.4117C72.7583 46.8682 72.2729 46.3674 71.734 45.9239C71.6359 45.8431 71.5978 45.7099 71.6375 45.5892C72.9374 41.6507 72.2059 37.347 69.68 34.0754C66.8535 30.4143 62.2785 28.6608 57.739 29.4955C57.5969 29.5217 57.4567 29.4441 57.4014 29.3101C57.1242 28.6334 56.7587 27.9986 56.3145 27.4233C54.9943 25.7137 53.092 24.6232 50.9574 24.354C48.8227 24.0828 46.7114 24.6678 45.0128 25.9962C43.8903 26.8744 43.0171 28.0385 42.4872 29.363C42.43 29.506 42.275 29.584 42.1279 29.546C40.7835 29.1976 39.4244 29.0264 38.0785 29.0264Z" fill="#E6E6E6"/>
<path d="M39.9737 54.8793L34.596 56.1536L34.4695 55.6124C34.2542 54.6912 34.1829 53.9188 34.2561 53.2954C34.3293 52.6716 34.5158 52.074 34.8148 51.5015C35.1142 50.9294 35.8407 49.8753 36.9954 48.3393C37.6129 47.5313 37.8605 46.8663 37.7386 46.3443C37.6164 45.822 37.3684 45.4525 36.9938 45.2354C36.6193 45.0183 36.121 44.9834 35.4981 45.1312C34.828 45.2899 34.3262 45.6445 33.9918 46.1946C33.6573 46.7452 33.5588 47.59 33.6963 48.7303L28.0452 49.3479C27.7587 47.2711 28.1095 45.4615 29.0983 43.9196C30.0868 42.3772 31.9019 41.2934 34.5438 40.6672C36.6006 40.1797 38.3623 40.2185 39.8285 40.7832C41.8187 41.5441 43.0416 42.8984 43.4971 44.8447C43.6859 45.6523 43.6462 46.4831 43.3784 47.3385C43.1105 48.1939 42.4191 49.3248 41.3041 50.7311C40.5289 51.717 40.0699 52.4694 39.9278 52.989C39.7849 53.5082 39.8005 54.1387 39.9737 54.8793ZM34.7482 57.636L40.5079 56.2711L41.7039 61.3844L35.9438 62.7492L34.7482 57.636Z" fill="#EBEBEB"/>
<path d="M53.6617 43.4494L49.93 42.3075L50.0433 41.9321C50.2364 41.293 50.4649 40.7961 50.7297 40.4415C50.994 40.0869 51.3187 39.7887 51.703 39.5461C52.0872 39.3039 52.9025 38.9199 54.1483 38.3941C54.8102 38.1213 55.1956 37.8039 55.305 37.4415C55.4144 37.079 55.3934 36.7647 55.2411 36.4987C55.0889 36.2326 54.7969 36.0332 54.3648 35.9011C53.8999 35.7589 53.4685 35.7961 53.0707 36.0124C52.6728 36.2291 52.3146 36.7095 51.9965 37.4548L48.3295 35.8141C48.8862 34.4442 49.738 33.4646 50.8854 32.8764C52.0323 32.2878 53.5223 32.2741 55.3556 32.8352C56.7829 33.2722 57.8446 33.9246 58.5407 34.7926C59.4875 35.9677 59.7565 37.2307 59.3485 38.5814C59.1792 39.1417 58.8623 39.6347 58.3974 40.0614C57.9322 40.4877 57.1118 40.9313 55.9357 41.3921C55.115 41.717 54.5699 42.0124 54.2998 42.2793C54.0296 42.545 53.817 42.9352 53.6617 43.4494ZM49.5006 43.2668L53.4974 44.4897L52.4256 48.0379L48.4287 46.815L49.5006 43.2668Z" fill="#EBEBEB"/>
<path d="M98.1407 167.578C139.83 167.578 173.626 165.591 173.626 163.141C173.626 160.69 139.83 158.704 98.1407 158.704C56.4511 158.704 22.655 160.69 22.655 163.141C22.655 165.591 56.4511 167.578 98.1407 167.578Z" fill="#F5F5F5"/>
<path d="M62.1719 96.9964L61.8134 96.8432C62.1353 96.0775 62.3207 95.4423 62.3794 94.9015L62.7664 94.9443C62.7034 95.5238 62.5087 96.1947 62.1719 96.9964ZM62.0189 92.5073C61.2636 90.8369 59.8593 89.7836 57.9579 89.4611L58.0225 89.0747C60.0571 89.4199 61.5615 90.5512 62.3732 92.3455L62.0189 92.5073Z" fill="#FD1B39"/>
<path d="M59.9804 100.938L56.1498 102.693L55.9754 102.307C55.6788 101.651 55.5117 101.085 55.4744 100.608C55.437 100.131 55.4884 99.6563 55.6274 99.1841C55.7667 98.7123 56.1545 97.8157 56.7903 96.4956C57.1325 95.7997 57.2197 95.266 57.0515 94.8941C56.8833 94.5222 56.6431 94.2832 56.3316 94.1766C56.0198 94.0704 55.6422 94.1186 55.1987 94.322C54.7214 94.5406 54.3987 94.8804 54.2301 95.3416C54.0615 95.8028 54.1121 96.449 54.3831 97.2805L50.252 98.5853C49.7314 97.0763 49.7271 95.6719 50.2387 94.3721C50.7499 93.0724 51.9463 91.9913 53.8279 91.1292C55.2929 90.4579 56.6147 90.224 57.7936 90.4266C59.3929 90.6977 60.506 91.5273 61.1332 92.9133C61.3933 93.4885 61.4863 94.1155 61.4119 94.7946C61.3376 95.4736 60.988 96.4219 60.3623 97.6394C59.9282 98.4917 59.6962 99.1226 59.667 99.5321C59.6374 99.9415 59.7417 100.41 59.9804 100.938ZM56.4827 103.777L60.585 101.898L62.2322 105.54L58.1299 107.419L56.4827 103.777Z" fill="#FD1B39"/>
<path d="M50.5034 109.65L48.5548 112.313L48.2905 112.117C47.8404 111.783 47.5126 111.461 47.3071 111.15C47.1015 110.839 46.9571 110.496 46.8737 110.12C46.7904 109.745 46.7161 108.986 46.6514 107.842C46.6218 107.237 46.4797 106.839 46.2243 106.65C45.969 106.461 45.7151 106.389 45.4624 106.436C45.2098 106.484 44.9707 106.661 44.7449 106.969C44.5024 107.301 44.4105 107.656 44.4697 108.035C44.5288 108.414 44.8076 108.835 45.3063 109.298L42.9824 111.769C42.0578 110.939 41.524 109.983 41.3819 108.901C41.2394 107.819 41.6471 106.624 42.604 105.317C43.3492 104.298 44.1621 103.633 45.0427 103.32C46.2356 102.893 47.3078 103.032 48.259 103.738C48.6537 104.031 48.9535 104.422 49.1599 104.914C49.3658 105.405 49.4853 106.186 49.5188 107.255C49.5449 108.002 49.6251 108.521 49.7594 108.811C49.893 109.102 50.1413 109.382 50.5034 109.65ZM49.191 112.925L51.2782 110.074L53.7772 111.926L51.6901 114.778L49.191 112.925Z" fill="#FD1B39"/>
<path d="M91.9459 161.729C91.314 161.729 90.704 161.383 90.3937 160.779C88.829 157.737 86.8637 154.168 83.3259 150.304C82.912 149.853 82.7629 149.216 82.9319 148.626C84.2455 144.037 86.3077 137.764 86.3283 137.702C86.6316 136.779 87.6197 136.281 88.535 136.586C89.4507 136.891 89.9471 137.885 89.6438 138.807C89.6248 138.865 87.8487 144.268 86.5592 148.664C89.8108 152.376 91.8155 155.897 93.4954 159.163C93.9389 160.025 93.604 161.086 92.7475 161.532C92.4906 161.666 92.2165 161.729 91.9459 161.729Z" fill="#FD1B39"/>
<path d="M94.855 163.141H81.3112L88.4887 159.043L94.5057 159.277L94.855 163.141Z" fill="#1B2B33"/>
<path d="M93.5543 146.637C99.72 144.697 103.424 138.956 101.827 133.813C100.23 128.671 93.9374 126.074 87.7717 128.013C81.606 129.953 77.9023 135.694 79.4991 140.836C81.0959 145.979 87.3887 148.576 93.5543 146.637Z" fill="#1B2B33"/>
<path d="M59.852 130.908C59.1668 130.908 58.5162 130.5 58.2379 129.823C57.8688 128.926 58.292 127.897 59.1828 127.526C60.197 127.103 60.3383 126.059 60.3391 126.049C60.4122 125.263 60.9966 124.623 61.7679 124.483C62.1841 124.408 62.5862 124.289 63.0515 124.152C65.4178 123.457 68.3478 122.594 77.5768 125.195C86.6796 120.071 86.7831 110.463 86.7831 110.048C86.7827 109.08 87.561 108.291 88.5234 108.287C88.5254 108.287 88.5273 108.287 88.5296 108.287C89.4893 108.287 90.2695 109.064 90.2758 110.031C90.2793 110.541 90.2224 122.602 78.5797 128.643C78.183 128.849 77.7239 128.895 77.2949 128.769C68.4981 126.213 66.0212 126.941 64.0314 127.526C63.855 127.578 63.6763 127.631 63.4941 127.682C63.0632 128.797 62.1662 130.087 60.5193 130.774C60.3013 130.865 60.0747 130.908 59.852 130.908Z" fill="#1B2B33"/>
<path d="M80.2634 118.334C76.9518 105.079 68.1227 70.8955 96.4075 68.8058C121.783 66.9308 128.748 100.926 130.44 112.703C131.427 119.568 131.759 125.793 131.816 130.658C131.891 136.933 127.51 142.345 121.4 143.594C107.574 146.42 94.4912 146.822 85.6797 143.322C83.297 142.375 81.8561 139.931 82.085 137.363C82.4245 133.556 82.4308 127.008 80.2634 118.334Z" fill="#FD1B39"/>
<path opacity="0.1" d="M130.439 112.702C128.844 101.603 122.567 70.7576 100.594 68.8289C98.0365 68.6044 95.5133 69.8712 94.3356 72.1663C93.3552 74.077 93.3868 76.3948 94.8553 78.6852C99.6981 86.2444 111.247 112.369 109.503 126.605C108.709 133.083 104.673 138.254 108.185 145.536C112.425 145.183 116.871 144.521 121.399 143.592C127.511 142.346 131.891 136.934 131.817 130.657C131.759 125.794 131.428 119.568 130.439 112.702Z" fill="black" fill-opacity="0.5"/>
<path d="M126.655 130.833C126.559 130.833 126.481 130.756 126.48 130.66C126.408 124.605 125.946 118.571 125.106 112.729C120.902 83.4759 109.582 68.6812 92.3648 69.9578C92.271 69.9692 92.185 69.8924 92.178 69.7956C92.171 69.6988 92.243 69.6142 92.3395 69.6075C109.763 68.314 121.217 83.2138 125.452 112.678C126.294 118.537 126.757 124.586 126.829 130.656C126.831 130.753 126.753 130.832 126.657 130.834C126.656 130.833 126.655 130.833 126.655 130.833Z" fill="#1B2B33"/>
<path d="M126.387 147.575C132.552 145.636 136.256 139.895 134.659 134.752C133.062 129.609 126.77 127.013 120.604 128.952C114.438 130.891 110.735 136.632 112.331 141.775C113.928 146.918 120.221 149.515 126.387 147.575Z" fill="#1B2B33"/>
<path d="M127.455 161.729C126.823 161.729 126.213 161.383 125.903 160.779C124.339 157.737 122.373 154.168 118.835 150.304C118.422 149.852 118.272 149.216 118.441 148.626C119.755 144.037 121.817 137.764 121.838 137.702C122.141 136.78 123.128 136.278 124.045 136.586C124.96 136.891 125.457 137.885 125.153 138.807C125.134 138.865 123.358 144.268 122.069 148.664C125.32 152.376 127.325 155.897 129.005 159.163C129.448 160.025 129.113 161.086 128.257 161.532C128 161.666 127.726 161.729 127.455 161.729Z" fill="#FD1B39"/>
<path d="M123.788 108.151C123.16 108.151 122.553 107.809 122.24 107.21C121.793 106.352 122.119 105.292 122.97 104.839C123.307 104.659 130.91 100.476 133.045 90.4309C127.976 88.2973 118.865 83.4803 116.872 81.059C116.679 80.8243 116.55 80.5437 116.498 80.2436C116.451 79.9791 116.124 77.9007 116.888 75.9324L115.968 74.1448C115.525 73.2827 115.859 72.2223 116.716 71.7756C117.572 71.3305 118.626 71.6663 119.07 72.5284L120.393 75.1001C120.676 75.6499 120.65 76.309 120.326 76.8352C119.908 77.5131 119.856 78.5053 119.89 79.1519C122.134 81.1918 131.196 86.0261 135.629 87.6825C136.407 87.9728 136.874 88.7742 136.747 89.5994C134.773 102.439 125.013 107.731 124.599 107.949C124.339 108.087 124.062 108.151 123.788 108.151Z" fill="#1B2B33"/>
<path d="M118.217 80.8168C118.053 80.8168 117.887 80.7706 117.74 80.6738C117.336 80.4081 117.223 79.8638 117.487 79.4575C117.547 79.3646 118.991 77.173 121.186 76.5809C121.652 76.4543 122.131 76.7337 122.256 77.2024C122.381 77.671 122.104 78.153 121.638 78.2784C120.105 78.6922 118.96 80.4014 118.949 80.4187C118.781 80.6765 118.502 80.8168 118.217 80.8168Z" fill="#1B2B33"/>
<path d="M130.364 163.141H116.82L123.998 159.043L130.015 159.277L130.364 163.141Z" fill="#1B2B33"/>
<path d="M102.002 110.64C107.126 110.183 110.948 106.05 110.54 101.409C110.132 96.7673 105.647 93.3749 100.523 93.8315C95.3993 94.2881 91.5766 98.421 91.9849 103.062C92.3933 107.704 96.878 111.096 102.002 110.64Z" fill="white"/>
<path d="M101.449 102.355C102.154 104.844 101.623 107.177 100.264 107.567C98.9043 107.957 97.2313 106.256 96.5267 103.767C95.822 101.279 96.353 98.945 97.7122 98.5551C99.0713 98.1652 100.745 99.8667 101.449 102.355Z" fill="#1B2B33"/>
<path d="M90.6638 103.823C96.5434 103.061 108.185 99.7217 110.106 98.3741C108.593 93.9215 101.557 90.1131 95.2621 92.2581C89.5881 94.1919 90.6638 103.823 90.6638 103.823Z" fill="#1B2B33"/>
<path d="M91.8081 106.683C99.1048 105.288 108.593 102.944 111.307 101.442C111.14 106.234 109.758 111.088 102.306 112.729C96.2184 114.069 91.8081 106.683 91.8081 106.683Z" fill="#1B2B33"/>
<path d="M85.7962 111.287C88.4357 109.53 88.7839 105.379 86.574 102.018C84.3641 98.6558 80.4329 97.3555 77.7934 99.1132C75.1539 100.871 74.8057 105.021 77.0156 108.383C79.2255 111.745 83.1567 113.045 85.7962 111.287Z" fill="white"/>
<path d="M81.9205 105.32C82.3631 107.419 81.9808 109.17 81.0667 109.231C80.1522 109.292 79.0519 107.64 78.6089 105.54C78.1662 103.441 78.5481 101.69 79.4627 101.629C80.3772 101.568 81.4778 103.22 81.9205 105.32Z" fill="#1B2B33"/>
<path d="M74.6833 104.516C78.628 104.984 86.4604 104.462 87.7619 103.745C86.8003 99.9428 82.1346 95.6445 77.8957 96.1959C74.0748 96.6927 74.6833 104.516 74.6833 104.516Z" fill="#1B2B33"/>
<path d="M75.416 106.99C80.3168 107.214 86.6959 107.088 88.53 106.394C88.3626 110.158 87.3811 113.75 82.374 113.691C78.283 113.642 75.416 106.99 75.416 106.99Z" fill="#1B2B33"/>
<path d="M103.626 89.8886C96.2732 89.8886 91.3845 86.2327 91.1443 86.0493C90.3758 85.4627 90.2255 84.36 90.8079 83.5865C91.3899 82.8149 92.4824 82.6629 93.2501 83.2452C93.3346 83.3075 99.1418 87.5697 107.203 86.0316C108.151 85.8526 109.064 86.478 109.244 87.4309C109.423 88.3851 108.801 89.3044 107.854 89.4854C106.373 89.7683 104.958 89.8886 103.626 89.8886Z" fill="#1B2B33"/>
<path d="M72.3979 86.858C72.2017 86.8584 72.0024 86.8247 71.8073 86.7541C70.8998 86.4258 70.4283 85.4191 70.7542 84.5057C71.68 81.912 73.2151 80.2278 75.3171 79.5002C79.1274 78.1792 83.2309 80.7474 83.4037 80.8575C84.2194 81.376 84.4627 82.4618 83.9476 83.2823C83.4333 84.1009 82.358 84.3474 81.5432 83.8325C80.7482 83.3344 78.283 82.1847 76.443 82.8278C75.3829 83.1985 74.5972 84.1366 74.0413 85.6938C73.7855 86.4117 73.1139 86.858 72.3979 86.858Z" fill="#1B2B33"/>
<path d="M86.1617 116.513C86.1134 116.513 86.0647 116.507 86.0161 116.492C85.7408 116.412 85.5804 116.127 85.6575 115.848C85.6707 115.801 85.9989 114.662 87.4336 113.917C89.4371 112.877 92.4902 113.093 96.5084 114.557C96.7805 114.656 96.9214 114.958 96.8226 115.232C96.7241 115.506 96.4235 115.649 96.1517 115.549C91.5445 113.869 89.1529 114.232 87.9572 114.833C86.9135 115.357 86.6748 116.106 86.6655 116.138C86.5958 116.365 86.3871 116.513 86.1617 116.513Z" fill="#1B2B33"/>
<path d="M69.6742 114.583C59.5124 115.502 52.2379 119.736 52.2379 119.736C55.247 119.164 66.0025 132.561 68.7679 142.893C73.8688 140.988 79.8177 139.692 86.1621 138.68C82.3195 128.03 75.2925 115.967 69.6742 114.583Z" fill="#FD1B39"/>
<path opacity="0.6" d="M69.6742 114.583C59.5124 115.502 52.2379 119.736 52.2379 119.736C55.247 119.164 66.0025 132.561 68.7679 142.893C73.8688 140.988 79.8177 139.692 86.1621 138.68C82.3195 128.03 75.2925 115.967 69.6742 114.583Z" fill="white"/>
<path d="M69.6742 114.583C63.0246 113.828 52.2282 119.431 52.2282 119.431C50.3155 120.659 50.8344 122.962 51.8782 123.934C52.8795 122.487 64.038 118.724 68.2325 118.22C66.145 116.276 68.0842 114.866 69.6742 114.583Z" fill="#FD1B39"/>
<path opacity="0.2" d="M69.6742 114.583C63.0246 113.828 52.2282 119.431 52.2282 119.431C50.3155 120.659 50.8344 122.962 51.8782 123.934C52.8795 122.487 64.038 118.724 68.2325 118.22C66.145 116.276 68.0842 114.866 69.6742 114.583Z" fill="white"/>
<path d="M59.8532 130.908C59.2828 130.908 58.7241 130.627 58.3889 130.111C57.1225 128.158 57.9136 125.177 58.0849 124.6C58.3609 123.67 59.3334 123.141 60.2581 123.419C61.1812 123.696 61.7064 124.674 61.4323 125.603C61.1469 126.586 61.0889 127.843 61.3135 128.19C61.8407 129.002 61.6133 130.092 60.8055 130.622C60.5111 130.816 60.1802 130.908 59.8532 130.908Z" fill="#1B2B33"/>
</g>
<defs>
<clipPath id="clip0_1444_2872">
<rect width="194.662" height="195.926" fill="white" transform="translate(0.809692 0.0368652)"/>
</clipPath>
</defs>
</svg>
