<svg width="52" height="48" viewBox="0 0 52 48" fill="none" xmlns="http://www.w3.org/2000/svg">
<path d="M50.9431 31.3826L23.3163 3.75627C23.0148 3.45526 22.6069 3.28586 22.1822 3.28586H12.0671C11.3386 2.35987 10.359 1.56631 9.20801 0.994899C6.43525 -0.382601 3.31115 -0.155542 1.60946 1.545C1.29519 1.85969 1.03659 2.21814 0.840547 2.61199C0.212949 3.87627 0.277495 5.37827 1.02196 6.84047C1.74022 8.25077 3.01317 9.46325 4.60875 10.2546C5.3246 10.6099 6.06354 10.8565 6.79474 11.0013V18.6717C6.79537 19.0967 6.96425 19.5057 7.26516 19.806L34.8916 47.4323C35.5183 48.0595 36.5338 48.0595 37.1604 47.4323L50.9431 33.6502C51.5691 33.0255 51.5691 32.0099 50.9431 31.3826ZM7.26516 3.75627C6.96425 4.05717 6.79527 4.46554 6.79527 4.89021V9.91131C6.22396 9.77982 5.64733 9.57772 5.08501 9.29771C3.69414 8.60723 2.58976 7.56301 1.97522 6.35607C1.38814 5.2026 1.32548 4.04171 1.79892 3.08856C1.94305 2.79905 2.13261 2.53418 2.36531 2.30211C3.74668 0.921057 6.36381 0.778179 8.73101 1.95389C9.45115 2.31161 10.0923 2.76563 10.6315 3.28638H8.3992C7.97391 3.28575 7.56679 3.45526 7.26516 3.75627ZM10.7945 7.28613C11.2245 6.85614 11.7573 6.59378 12.3151 6.49592C12.3642 7.08894 12.2693 7.65534 12.0172 8.16272C11.8736 8.45318 11.6829 8.71805 11.4502 8.94991C11.0588 9.34189 10.5652 9.63015 10.0075 9.82097C9.84375 8.92913 10.105 7.97504 10.7945 7.28613ZM14.8282 11.3192C13.7139 12.4332 11.9085 12.4332 10.7945 11.3192C10.6384 11.1624 10.5056 10.9918 10.3939 10.8115C11.0889 10.5701 11.71 10.2028 12.2067 9.70618C12.5209 9.39129 12.7795 9.03294 12.9756 8.63909C13.3022 7.98099 13.437 7.25835 13.3901 6.51106C13.9167 6.61979 14.4192 6.87713 14.8276 7.28613C15.9422 8.39918 15.9422 10.2052 14.8282 11.3192Z" fill="#F4CF1C"/>
<path d="M26.462 13.4864L26.1587 13.9298L25.9798 14.1087C25.8865 14.2953 25.7776 14.4716 25.6531 14.6376C25.259 15.1976 25.0309 15.5191 24.9686 15.6021C24.9064 15.685 24.8494 15.7628 24.7975 15.8354C24.7509 15.9132 24.7171 15.9521 24.6964 15.9521C24.6601 15.9988 24.6264 16.0377 24.5953 16.0688C24.5745 16.0999 24.5564 16.1284 24.5408 16.1543C24.5357 16.1803 24.5331 16.1984 24.5331 16.2088C24.5382 16.2243 24.5512 16.2321 24.572 16.2321C24.6238 16.2425 24.7742 16.1803 25.0231 16.0454C25.2149 15.978 25.3757 15.9002 25.5053 15.8121C25.5779 15.7602 25.6998 15.685 25.8709 15.5865C26.0161 15.5139 26.1535 15.4439 26.2832 15.3765C26.4076 15.3247 26.5269 15.2572 26.6409 15.1743C26.7602 15.0861 26.825 15.0369 26.8354 15.0265C26.8561 15.0161 26.8924 15.0006 26.9443 14.9798C27.1465 14.8813 27.2865 14.7931 27.3643 14.7154C27.4473 14.6324 27.5458 14.5546 27.6599 14.482C27.7895 14.3524 27.9995 14.215 28.2899 14.0698C28.3003 14.0594 28.3781 14.0127 28.5233 13.9298C28.6736 13.8416 28.8214 13.7716 28.9666 13.7198C29.2674 13.5849 29.5655 13.5875 29.8611 13.7275C29.9752 13.7898 30.0841 13.8727 30.1878 13.9764C30.2967 14.0853 30.3563 14.1709 30.3667 14.2331C30.3822 14.3005 30.3485 14.3809 30.2656 14.4742C30.2241 14.495 30.1671 14.5365 30.0945 14.5987L29.1066 15.1043L28.7488 15.2598L28.4688 15.3532C28.4584 15.3635 28.4144 15.3817 28.3366 15.4076L28.0021 15.5865C27.914 15.6539 27.8492 15.6928 27.8077 15.7032L27.2399 16.0065C27.1984 16.0065 27.118 16.0506 26.9987 16.1388C26.8173 16.2373 26.6824 16.2995 26.5943 16.3254C26.4543 16.3929 26.3635 16.4473 26.322 16.4888C26.2806 16.5303 26.208 16.5769 26.1043 16.6288C26.0057 16.6755 25.9461 16.6988 25.9254 16.6988C25.915 16.6988 25.8709 16.7221 25.7931 16.7688C25.7153 16.8155 25.6453 16.8699 25.5831 16.9321C25.552 16.9218 25.495 16.9581 25.412 17.041C25.3135 17.0773 25.1968 17.1525 25.062 17.2666C24.9894 17.2873 24.9064 17.3392 24.8131 17.4222C24.5642 17.5674 24.3412 17.6555 24.1442 17.6866C23.9523 17.7126 23.7656 17.6607 23.5841 17.5311C23.3923 17.4118 23.2834 17.3029 23.2574 17.2044C23.2315 17.1888 23.203 17.1499 23.1719 17.0877C23.146 17.0618 23.133 17.0384 23.133 17.0177C23.0967 16.9814 23.063 16.901 23.0319 16.7766C22.9956 16.6988 22.9774 16.6132 22.9774 16.5199C22.9878 16.4266 23.0008 16.3203 23.0163 16.201C23.0319 16.1647 23.0526 16.0817 23.0785 15.9521C23.1978 15.8017 23.2574 15.7006 23.2574 15.6487C23.273 15.6124 23.286 15.5891 23.2963 15.5787L23.4363 15.3454C23.4363 15.3558 23.4312 15.3713 23.4208 15.3921C23.5608 15.2313 23.6826 15.1043 23.7864 15.0109C23.8175 14.9383 23.8953 14.8606 24.0197 14.7776C24.1027 14.6946 24.1675 14.6142 24.2142 14.5365C24.3023 14.3342 24.3723 14.202 24.4242 14.1398C24.4812 14.0827 24.5642 13.9842 24.6731 13.8442C24.8079 13.7094 24.9194 13.5875 25.0075 13.4786L25.622 12.5997C25.7568 12.4027 25.8398 12.2938 25.8709 12.273C25.9072 12.2471 25.9254 12.2289 25.9254 12.2186C25.9357 12.2082 25.9513 12.1875 25.972 12.1563C25.998 12.1304 26.0291 12.0941 26.0654 12.0475C26.112 11.9282 26.1587 11.84 26.2054 11.783C26.475 11.14 26.7654 10.9222 27.0765 11.1296C27.118 11.1504 27.1906 11.2126 27.2943 11.3163C27.4032 11.4252 27.468 11.5004 27.4888 11.5419C27.5147 11.5782 27.5354 11.6352 27.551 11.713C27.5977 11.9049 27.3928 12.2808 26.9365 12.8408C26.7084 13.152 26.5787 13.3283 26.5476 13.3697C26.5269 13.4112 26.4983 13.4501 26.462 13.4864Z" fill="#1E2F38"/>
<path d="M29.2609 18.432C29.3594 18.375 29.4553 18.2738 29.5486 18.1286C29.5435 18.0612 29.5098 17.9964 29.4475 17.9342C29.3697 17.8564 29.2271 17.859 29.0197 17.942C28.8123 17.9835 28.6127 18.0586 28.4208 18.1675L28.413 18.1598C28.1382 18.3205 27.993 18.4087 27.9775 18.4242C28.0397 18.5279 28.0967 18.6057 28.1486 18.6576C28.2056 18.7042 28.2938 18.7353 28.413 18.7509C28.6464 18.7561 28.929 18.6498 29.2609 18.432ZM28.1175 19.5287L27.8063 19.2643C27.6456 19.1035 27.5341 18.9609 27.4719 18.8365L27.3474 19.0076C26.9326 19.4535 26.7692 19.8554 26.8574 20.2132C26.8937 20.3014 26.9326 20.3662 26.9741 20.4077C27.0156 20.4491 27.0907 20.4828 27.1996 20.5088C27.2411 20.5088 27.2878 20.4984 27.3396 20.4777C27.3915 20.4362 27.4382 20.4414 27.4797 20.4932C27.9619 20.4362 28.229 20.4906 28.2808 20.6566C28.3171 20.838 28.3145 20.9495 28.273 20.991C28.2523 21.0118 28.216 21.0221 28.1641 21.0221L28.1175 21.0688C28.0656 21.1207 27.9386 21.1803 27.7363 21.2477C27.5393 21.3203 27.3578 21.367 27.1919 21.3877C27.0778 21.4292 26.9767 21.437 26.8885 21.411C26.6189 21.3488 26.4011 21.214 26.2351 21.0066C26.1988 20.9599 26.1807 20.921 26.1807 20.8899C26.1496 20.838 26.1211 20.8043 26.0951 20.7888L26.0407 20.7188C25.994 20.6721 25.9655 20.6228 25.9551 20.571C25.9344 20.488 25.9136 20.4362 25.8929 20.4154C25.8099 20.2288 25.7659 20.1069 25.7607 20.0499C25.7607 19.998 25.7555 19.9565 25.7451 19.9254C25.7347 19.8943 25.7399 19.7906 25.7607 19.6143C25.7503 19.4898 25.7477 19.4146 25.7529 19.3887C25.7685 19.3109 25.7736 19.2487 25.7685 19.202C25.7685 19.1606 25.8022 19.1009 25.8696 19.0231C25.8748 18.9765 25.8981 18.9324 25.9396 18.8909L25.9707 18.7976C26.007 18.7613 26.0199 18.7172 26.0096 18.6653C26.0096 18.6031 26.0329 18.5487 26.0796 18.502L26.1418 18.4398C26.1314 18.4087 26.1574 18.3724 26.2196 18.3309L26.4218 18.1286L26.484 18.0509L26.5385 17.9964C26.554 17.9705 26.6033 17.9316 26.6863 17.8797L26.7485 17.802C26.7589 17.802 26.8081 17.7683 26.8963 17.7008C27.0259 17.6127 27.1167 17.5686 27.1685 17.5686L27.2385 17.4986C27.2593 17.4882 27.2826 17.4701 27.3085 17.4442C27.3345 17.4182 27.3682 17.3949 27.4096 17.3742C27.4563 17.3586 27.6145 17.2834 27.8841 17.1486L28.2808 17.0008C28.3949 16.9593 28.5375 16.9308 28.7086 16.9153C28.7397 16.8945 28.8071 16.8686 28.9108 16.8375L29.1053 16.8452C29.1831 16.8297 29.2634 16.8427 29.3464 16.8841C29.4553 16.9204 29.5279 16.9567 29.5642 16.993L29.8131 17.1797C29.8338 17.2108 29.8494 17.2316 29.8598 17.2419L29.9609 17.3431C30.0646 17.4675 30.1346 17.5842 30.1709 17.6931C30.2798 17.8953 30.3342 18.069 30.3342 18.2142C30.3135 18.5564 30.2202 18.8105 30.0542 18.9765C29.8883 19.1424 29.7198 19.2591 29.5486 19.3265C29.1234 19.4924 28.8434 19.5858 28.7086 19.6065C28.4441 19.6843 28.2471 19.6584 28.1175 19.5287Z" fill="#1E2F38"/>
<path d="M30.5045 20.0645C30.5511 20.0178 30.6004 19.9582 30.6522 19.8856L30.7067 19.8312C30.7482 19.8 30.7845 19.7586 30.8156 19.7067C30.8674 19.6549 30.9193 19.6134 30.9711 19.5823C31.0749 19.4785 31.1552 19.4241 31.2123 19.4189C31.2382 19.393 31.3341 19.3696 31.5001 19.3489C31.5415 19.3489 31.6141 19.3541 31.7178 19.3645C31.8267 19.4215 31.8993 19.463 31.9356 19.4889C31.9771 19.4889 32.0393 19.5667 32.1223 19.7223C32.169 19.7793 32.2312 19.8778 32.309 20.0178C32.3349 20.0645 32.3401 20.1527 32.3245 20.2823C32.2934 20.2927 32.1975 20.3523 32.0368 20.4612C31.8864 20.5701 31.7723 20.6686 31.6945 20.7568C31.7516 20.7619 31.8604 20.7619 32.0212 20.7568C32.1819 20.7516 32.2675 20.749 32.2779 20.749C32.4749 20.8216 32.6512 20.9097 32.8068 21.0134C33.009 21.1846 33.1179 21.3194 33.1335 21.4179C33.1646 21.4801 33.1776 21.5398 33.1724 21.5968C33.1776 21.685 33.1438 21.7964 33.0712 21.9313C33.0038 22.0609 32.939 22.1205 32.8768 22.1102C32.8198 22.105 32.6953 22.022 32.5034 21.8613C32.4931 21.8509 32.436 21.8353 32.3323 21.8146L31.609 21.729C31.4845 21.6875 31.3912 21.6668 31.3289 21.6668L30.9089 21.7913C30.8934 21.7964 30.8208 21.8587 30.6911 21.9779C30.5615 22.0972 30.4707 22.1879 30.4189 22.2502C30.3722 22.3072 30.1985 22.4809 29.8978 22.7713L29.5633 23.1058C29.3818 23.2873 29.2755 23.3884 29.2444 23.4091C29.2081 23.435 29.1355 23.4662 29.0266 23.5025C28.9851 23.5128 28.9229 23.4765 28.8399 23.3936C28.4873 23.3417 28.3655 23.2043 28.4743 22.9813L28.4355 22.818C28.4147 22.7557 28.4147 22.7039 28.4355 22.6624C28.451 22.5639 28.464 22.5094 28.4743 22.4991L28.5521 22.3591L28.5988 22.2191C28.5884 22.1983 28.674 22.0868 28.8555 21.8846C29.0422 21.6772 29.1562 21.5527 29.1977 21.5112C29.2444 21.4646 29.2885 21.4101 29.3299 21.3479C29.4025 21.3479 29.4803 21.3012 29.5633 21.2079C29.6514 21.1197 29.7137 21.0471 29.75 20.9901C29.7915 20.9279 29.8226 20.8968 29.8433 20.8968C29.8692 20.8916 29.9392 20.8164 30.0533 20.6712C30.0585 20.6349 30.0948 20.5934 30.1622 20.5467L30.5045 20.0645Z" fill="#1E2F38"/>
<path d="M33.0234 22.739C33.0804 22.6716 33.2023 22.5549 33.3889 22.389L33.7078 22.1789L34.1979 22.0001L34.4779 21.9689C34.5194 21.9275 34.7112 22.0052 35.0535 22.2023L35.0612 22.2101C35.1235 22.2619 35.2064 22.3553 35.3101 22.4901C35.419 22.6301 35.4865 22.8012 35.5124 23.0034C35.5435 23.2005 35.5513 23.3483 35.5357 23.4468C35.4268 23.7735 35.2713 24.0224 35.069 24.1935C35.0172 24.2453 34.929 24.2816 34.8046 24.3024C34.789 24.3076 34.7346 24.2842 34.6412 24.2324C34.5479 24.1805 34.4857 24.1235 34.4545 24.0613C34.4286 23.9939 34.4053 23.9083 34.3845 23.8046C34.3638 23.7009 34.4001 23.6075 34.4934 23.5246C34.4986 23.426 34.5557 23.3483 34.6646 23.2912C34.7372 23.2394 34.776 23.1849 34.7812 23.1279L34.7268 22.9957C34.6853 22.9749 34.6075 22.9905 34.4934 23.0423C34.3845 23.0994 34.2705 23.1875 34.1512 23.3068C33.9334 23.5246 33.7908 23.7761 33.7234 24.0613C33.7027 24.1546 33.6975 24.2842 33.7078 24.4502L33.6767 24.7613L33.6923 25.1502L33.6378 25.5002C33.6378 25.5728 33.6067 25.7025 33.5445 25.8891C33.4926 26.0758 33.4175 26.2184 33.3189 26.3169C33.2256 26.4103 33.0778 26.501 32.8756 26.5892L32.7045 26.6203C32.6941 26.6307 32.6319 26.6358 32.5178 26.6358C32.2067 26.6358 31.9422 26.5632 31.7244 26.4181L31.67 26.3636C31.4833 26.2184 31.3225 26.0525 31.1877 25.8658L31.0088 25.5625C30.9829 25.5365 30.9647 25.4976 30.9544 25.4458C30.9388 25.3991 30.9233 25.3576 30.9077 25.3213C30.8662 25.1243 30.8558 24.9895 30.8766 24.9169C30.8662 24.8754 30.9207 24.7846 31.0399 24.6446C31.0814 24.5306 31.1955 24.432 31.3822 24.3491C31.46 24.2713 31.5274 24.2194 31.5844 24.1935C31.797 24.1779 31.95 24.2791 32.0433 24.4968C32.0744 24.5694 32.0589 24.6369 31.9966 24.6991C31.9811 24.7146 31.9344 24.7769 31.8566 24.8858C31.7892 24.9946 31.7374 25.1087 31.7011 25.228C31.6648 25.3473 31.6829 25.4432 31.7555 25.5158C31.8281 25.5884 31.9318 25.6351 32.0666 25.6558C32.3104 25.578 32.44 25.5313 32.4556 25.5158L32.58 25.4224C32.6682 25.355 32.7252 25.2513 32.7511 25.1113C32.7978 25.0335 32.8237 24.935 32.8289 24.8158L32.8834 24.528L32.8756 24.3024C32.86 24.2765 32.8367 24.1702 32.8056 23.9835C32.8159 23.9627 32.8237 23.8979 32.8289 23.789C32.8341 23.6801 32.8548 23.5609 32.8911 23.4312C32.9326 23.2964 32.9508 23.159 32.9456 23.019C32.9767 22.9775 33.0026 22.8842 33.0234 22.739Z" fill="#1E2F38"/>
<path d="M38.7887 22.8729C38.7991 22.8729 38.8561 22.9144 38.9598 22.9974C39.1361 23.1218 39.2295 23.2359 39.2398 23.3396C39.2606 23.4433 39.258 23.5341 39.232 23.6118C39.0765 23.7881 38.838 23.98 38.5165 24.1874C38.2883 24.3015 38.112 24.3793 37.9875 24.4208L37.7931 24.4597C37.736 24.4856 37.6583 24.496 37.5597 24.4908C37.4612 24.4856 37.399 24.47 37.3731 24.4441C37.3575 24.4182 37.3368 24.3611 37.3108 24.273C37.2953 24.1848 37.2901 24.1278 37.2953 24.1019C37.3057 24.0811 37.3186 24.0578 37.3342 24.0319L37.4508 23.8374L37.4897 23.4874C37.5209 23.394 37.5675 23.3163 37.6297 23.254C37.7594 23.0933 37.889 23 38.0187 22.974C38.029 22.9637 38.0627 22.9455 38.1198 22.9196C38.2598 22.8314 38.4828 22.8159 38.7887 22.8729ZM35.0629 26.132C35.1096 26.0853 35.1796 26.0308 35.273 25.9686C35.3767 25.9064 35.4389 25.8545 35.4596 25.8131C35.4856 25.7768 35.5737 25.6886 35.7241 25.5486C35.8019 25.5019 35.8745 25.4345 35.9419 25.3464C36.0197 25.196 36.0923 25.1027 36.1597 25.0664C36.2271 25.0301 36.3178 25.0067 36.4319 24.9963C36.5512 24.9808 36.6549 24.9912 36.743 25.0275C36.8312 25.0638 36.9219 25.1597 37.0153 25.3153C37.0308 25.3619 37.0308 25.4656 37.0153 25.6264C37.0153 25.6575 36.9738 25.7353 36.8908 25.8597C36.813 25.9894 36.7145 26.119 36.5952 26.2486C36.4864 26.3783 36.3178 26.5624 36.0897 26.8009C35.8667 27.0342 35.5685 27.3531 35.1952 27.7576C34.827 28.1569 34.5911 28.398 34.4874 28.481C34.3888 28.5691 34.2851 28.6054 34.1762 28.5899C34.0673 28.5847 34.0051 28.5432 33.9896 28.4654C33.974 28.398 33.9481 28.3358 33.9118 28.2787C33.8288 28.1958 33.7899 28.0895 33.7951 27.9598C33.7795 27.9339 33.7536 27.8613 33.7173 27.742C33.6862 27.6176 33.7199 27.4854 33.8184 27.3454C33.8444 27.2676 34.0051 27.0913 34.3007 26.8164L34.5807 26.5364L34.8841 26.3109L35.0629 26.132Z" fill="#1E2F38"/>
<path d="M42.1143 25.9808L42.231 26.113C42.2932 26.2893 42.3062 26.5045 42.2699 26.7586C42.2595 26.8519 42.1818 26.8623 42.0366 26.7897C42.0158 26.8001 41.9614 26.7975 41.8732 26.7819C41.671 26.756 41.4636 26.7456 41.251 26.7508C41.0384 26.756 40.8776 26.756 40.7687 26.7508C40.4524 26.8597 40.1776 26.8286 39.9442 26.6575C39.8768 26.5901 39.8405 26.4915 39.8353 26.3619C39.8405 26.2323 39.9235 26.1182 40.0842 26.0197C40.1931 25.9626 40.4135 25.9185 40.7454 25.8874C40.7609 25.8719 40.8698 25.846 41.0721 25.8097C41.4402 25.763 41.7877 25.82 42.1143 25.9808ZM38.8008 28.3609C38.972 28.1172 38.9668 27.9201 38.7853 27.7698C38.6868 27.6816 38.5442 27.6635 38.3575 27.7153C38.0827 27.8035 37.8052 27.9979 37.5252 28.2987C37.2556 28.5994 37.0689 28.8276 36.9652 28.9832C36.8719 29.1387 36.8148 29.2995 36.7941 29.4654C36.763 29.5795 36.7915 29.6754 36.8796 29.7532C37.0248 29.8984 37.253 29.8828 37.5641 29.7065L37.813 29.5821C37.8649 29.5821 37.896 29.5613 37.9064 29.5198C38.0878 29.4421 38.2693 29.3176 38.4508 29.1465C38.4353 29.0583 38.4379 28.9935 38.4586 28.952C38.5156 28.8328 38.5597 28.7576 38.5908 28.7265C38.5805 28.6642 38.609 28.5942 38.6764 28.5165C38.7438 28.4387 38.7853 28.3868 38.8008 28.3609ZM36.6463 27.6686L37.0741 27.3031C37.4682 26.9816 37.883 26.7845 38.3186 26.7119C38.7075 26.6756 39.0653 26.8156 39.392 27.1319L39.4387 27.1786C39.7394 27.4794 39.8924 27.762 39.8976 28.0264C39.9287 28.2857 39.9105 28.5165 39.8431 28.7187C39.7809 28.9261 39.729 29.0713 39.6876 29.1543C39.6461 29.2372 39.5683 29.3409 39.4542 29.4654C39.2416 29.6987 39.0705 29.7817 38.9409 29.7143C38.5208 30.2795 38.0853 30.6269 37.6341 30.7566C37.463 30.824 37.2582 30.8784 37.0196 30.9199C36.8537 30.9407 36.6722 30.8629 36.4752 30.6866C36.2885 30.4999 36.1355 30.3262 36.0163 30.1654C35.9022 30.0099 35.8166 29.7947 35.7596 29.5198C35.7077 29.2398 35.7751 28.9391 35.9618 28.6176C36.1329 28.3013 36.3611 27.985 36.6463 27.6686Z" fill="#1E2F38"/>
<path d="M39.8183 32.1319C39.9739 32.0696 40.1502 31.9918 40.3472 31.8985L40.9539 31.634L41.1562 31.5718C38.859 31.7637 38.8824 31.7611 41.2262 31.564L41.8484 31.3463C41.8795 31.3463 41.9262 31.3255 41.9884 31.284L42.494 31.1829L42.7896 31.1985C42.8363 31.214 42.8959 31.2218 42.9685 31.2218C42.9685 31.2425 43.0203 31.2737 43.1241 31.3151C43.1707 31.3618 43.2563 31.4629 43.3807 31.6185L43.4818 31.8285L43.6219 32.3885C43.6219 32.5337 43.5752 32.6426 43.4818 32.7152C43.4144 32.7723 43.2148 32.9149 42.8829 33.143C42.6185 33.3245 42.3022 33.5216 41.934 33.7342C41.6592 33.926 41.4777 34.0816 41.3895 34.2008C41.3014 34.3201 41.2495 34.3875 41.234 34.4031C41.2132 34.4446 41.1821 34.5016 41.1406 34.5742C41.1043 34.652 41.0784 34.6883 41.0628 34.6831C41.094 34.7246 41.0862 34.7687 41.0395 34.8153C40.9721 34.9657 40.9125 35.0513 40.8606 35.072C40.8087 35.1031 40.731 35.1135 40.6273 35.1031C40.5287 35.0979 40.4095 35.0253 40.2695 34.8853C40.1969 34.792 40.1346 34.7194 40.0828 34.6675C40.0361 34.6209 39.9946 34.5431 39.9583 34.4342C39.9169 34.1749 39.9428 33.9779 40.0361 33.8431C40.0828 33.7445 40.1217 33.6745 40.1528 33.633C40.1839 33.5916 40.2072 33.563 40.2228 33.5475C40.3524 33.366 40.5158 33.2078 40.7128 33.073C40.7802 33.016 40.9306 32.9123 41.164 32.7619C41.4025 32.6063 41.5995 32.4922 41.7551 32.4196C41.8692 32.3056 41.9262 32.2433 41.9262 32.233L41.0317 32.5208C40.9176 32.5726 40.8269 32.6063 40.7595 32.6219C40.7076 32.6219 40.6636 32.64 40.6273 32.6763C40.5443 32.6763 40.4224 32.7204 40.2617 32.8086C40.2254 32.8449 40.1969 32.8682 40.1761 32.8786C40.1554 32.8889 40.0958 32.9071 39.9972 32.933C39.9091 32.9589 39.8313 32.99 39.7639 33.0263C39.7017 33.0678 39.6135 33.0938 39.4994 33.1041C39.4787 33.1249 39.3387 33.1975 39.0794 33.3219C39.0535 33.3375 38.9809 33.3012 38.8616 33.213L38.7294 33.0497C38.7035 33.003 38.6438 32.8915 38.5505 32.7152C38.4571 32.5389 38.4027 32.443 38.3871 32.4274C38.3768 32.4171 38.3716 32.4015 38.3716 32.3808C38.3042 32.2719 38.3223 32.1448 38.426 31.9996L38.5505 31.8752C38.6075 31.87 38.6698 31.8129 38.7372 31.7041C38.7994 31.6626 38.8668 31.6107 38.9394 31.5485C38.9342 31.5226 38.9498 31.5018 38.9861 31.4863C39.1624 31.3307 39.2842 31.2192 39.3516 31.1518L39.5383 30.9651C39.7198 30.8044 39.9169 30.6333 40.1295 30.4518C40.3421 30.2703 40.4769 30.151 40.5339 30.094L40.6895 29.9384C40.705 29.9021 40.7621 29.8399 40.8606 29.7517C40.9488 29.6428 40.9954 29.5702 41.0006 29.5339C41.011 29.4925 41.0421 29.451 41.094 29.4095L41.2806 29.3317C41.431 29.3473 41.584 29.4743 41.7395 29.7128C41.8121 29.8165 41.8821 29.9903 41.9495 30.234C41.9444 30.2599 41.9366 30.3195 41.9262 30.4129C41.9573 30.444 41.9314 30.5062 41.8484 30.5996C41.7966 30.641 41.7551 30.6773 41.724 30.7084C41.7136 30.7084 41.5658 30.7992 41.2806 30.9807C40.4458 31.5874 39.9972 31.9218 39.935 31.9841C39.8728 32.0463 39.8339 32.0956 39.8183 32.1319Z" fill="#1E2F38"/>
<path d="M23.3921 25.2431L23.781 25.1031C23.8796 25.0564 23.947 25.0098 23.9833 24.9631C24.0247 24.9216 24.0585 24.8879 24.0844 24.862C24.1103 24.836 24.1388 24.8023 24.1699 24.7609C24.2062 24.7142 24.227 24.6571 24.2322 24.5897C24.2477 24.5223 24.2451 24.4679 24.2244 24.4264C24.214 24.3849 24.1855 24.3097 24.1388 24.2008L23.9755 24.0219C23.851 23.8353 23.7058 23.716 23.5399 23.6641C23.4258 23.7782 23.1588 23.9882 22.7388 24.2942L22.1554 24.7842L21.8365 25.0253C21.8728 25.0616 21.9946 25.1264 22.2021 25.2198L22.4043 25.2353C22.4302 25.2509 22.5521 25.2587 22.7699 25.2587C22.8062 25.2742 22.8606 25.2768 22.9332 25.2664L23.1043 25.2509C23.1147 25.2716 23.1691 25.2742 23.2677 25.2587L23.3921 25.2431ZM20.4131 26.4176L20.242 26.6198C20.216 26.6872 20.1486 26.7547 20.0397 26.8221C19.9308 26.8895 19.8608 26.9543 19.8297 27.0165C19.7416 27.1047 19.6923 27.1591 19.6819 27.1799C19.7286 27.2265 19.8193 27.2758 19.9542 27.3277C20.0942 27.3847 20.1797 27.4236 20.2108 27.4443C20.242 27.4651 20.2964 27.478 20.3742 27.4832C20.5712 27.5454 20.7838 27.6025 21.012 27.6543L21.3542 27.6699C21.6861 27.6388 21.922 27.6103 22.0621 27.5843L22.2487 27.491C22.4613 27.4132 22.5339 27.211 22.4665 26.8843C22.4873 26.7806 22.4432 26.6535 22.3343 26.5032L22.3265 26.4954C22.1969 26.262 22.1113 26.135 22.0698 26.1143L21.6498 25.8498C21.5565 25.8187 21.4839 25.7772 21.432 25.7253C21.3854 25.6787 21.3568 25.6035 21.3465 25.4998L21.1365 25.7253C21.0016 25.7876 20.8953 25.8731 20.8175 25.982C20.745 26.0961 20.6101 26.2413 20.4131 26.4176ZM19.3708 28.1444L19.3008 28.0744C19.2386 28.0329 19.1452 27.924 19.0208 27.7477C18.7978 27.4417 18.6682 27.1462 18.6319 26.861C18.6267 26.7728 18.6267 26.6639 18.6319 26.5343C18.6474 26.4046 18.6682 26.3269 18.6941 26.3009C18.72 26.275 18.7537 26.2413 18.7952 26.1998C18.8419 26.1635 18.8808 26.1194 18.9119 26.0676L18.9741 26.0054C18.9897 25.9587 19.0467 25.9068 19.1452 25.8498C19.2489 25.7876 19.3215 25.7253 19.363 25.6631C19.4201 25.5853 19.4849 25.505 19.5575 25.422C19.5627 25.3857 19.6275 25.3364 19.7519 25.2742C20.4935 24.6157 20.8979 24.2527 20.9653 24.1853L21.2376 23.9908C21.3672 23.8093 21.5072 23.6797 21.6576 23.6019L21.8287 23.4308C21.8961 23.353 22.1269 23.1637 22.521 22.863C22.5625 22.78 22.5728 22.6296 22.5521 22.4118C22.5521 22.36 22.565 22.2952 22.591 22.2174C22.6221 22.1344 22.7206 22.0566 22.8865 21.984C22.9591 21.9737 23.1173 21.997 23.361 22.0541C23.4025 22.0333 23.6021 22.1137 23.9599 22.2952L24.1699 22.3807C24.2685 22.4274 24.424 22.5622 24.6366 22.7852C24.7403 22.92 24.8129 23.0393 24.8544 23.143C24.9892 23.5371 25.0852 23.9286 25.1422 24.3175C25.1785 24.416 25.1837 24.5042 25.1578 24.582C25.1889 24.7375 25.1733 24.9242 25.1111 25.142C25.0592 25.3598 25.0204 25.492 24.9944 25.5387C24.8544 25.7305 24.6289 25.9042 24.3177 26.0598C24.1622 26.1428 23.7421 26.2206 23.0577 26.2932C23.094 26.3606 23.138 26.4928 23.1899 26.6898C23.1847 26.7261 23.2029 26.8169 23.2443 26.9621C23.2392 26.988 23.234 27.0191 23.2288 27.0554C23.2288 27.0969 23.2262 27.1306 23.221 27.1565L23.2443 27.2576L23.2054 27.4521L23.221 27.6699C23.221 27.7736 23.2054 27.8721 23.1743 27.9655C23.1795 28.1158 23.1614 28.217 23.1199 28.2688L22.9877 28.4322C22.9254 28.484 22.661 28.5929 22.1943 28.7588C22.0232 28.8159 21.8624 28.8314 21.712 28.8055L21.4554 28.8288C21.3828 28.8392 21.2713 28.8314 21.1209 28.8055C20.9757 28.7848 20.8461 28.7744 20.732 28.7744C20.6957 28.7588 20.6309 28.7407 20.5375 28.7199C20.4494 28.7044 20.3249 28.6681 20.1642 28.6111C20.0086 28.5592 19.9075 28.5203 19.8608 28.4944C19.726 28.4218 19.5627 28.3051 19.3708 28.1444Z" fill="#1E2F38"/>
<path d="M26.0789 29.3922C26.1774 29.3351 26.2733 29.234 26.3667 29.0888C26.3615 29.0214 26.3278 28.9566 26.2656 28.8943C26.1878 28.8166 26.0452 28.8192 25.8378 28.9021C25.6303 28.9436 25.4307 29.0188 25.2388 29.1277L25.2311 29.1199C24.9562 29.2807 24.811 29.3688 24.7955 29.3844C24.8577 29.4881 24.9147 29.5659 24.9666 29.6177C25.0236 29.6644 25.1118 29.6955 25.2311 29.7111C25.4644 29.7162 25.747 29.6099 26.0789 29.3922ZM24.9355 30.4889L24.6244 30.2244C24.4636 30.0637 24.3521 29.9211 24.2899 29.7966L24.1654 29.9677C23.7506 30.4137 23.5873 30.8156 23.6754 31.1734C23.7117 31.2615 23.7506 31.3263 23.7921 31.3678C23.8336 31.4093 23.9088 31.443 24.0177 31.4689C24.0591 31.4689 24.1058 31.4586 24.1577 31.4378C24.2095 31.3963 24.2562 31.4015 24.2977 31.4534C24.7799 31.3963 25.047 31.4508 25.0988 31.6167C25.1351 31.7982 25.1325 31.9097 25.091 31.9512C25.0703 31.9719 25.034 31.9823 24.9822 31.9823L24.9355 32.029C24.8836 32.0808 24.7566 32.1404 24.5544 32.2078C24.3573 32.2804 24.1758 32.3271 24.0099 32.3479C23.8958 32.3893 23.7947 32.3971 23.7065 32.3712C23.4369 32.309 23.2191 32.1741 23.0532 31.9667C23.0169 31.9201 22.9987 31.8812 22.9987 31.8501C22.9676 31.7982 22.9391 31.7645 22.9132 31.7489L22.8587 31.6789C22.812 31.6323 22.7835 31.583 22.7731 31.5311C22.7524 31.4482 22.7317 31.3963 22.7109 31.3756C22.628 31.1889 22.5839 31.067 22.5787 31.01C22.5787 30.9582 22.5735 30.9167 22.5631 30.8856C22.5528 30.8544 22.558 30.7507 22.5787 30.5744C22.5683 30.45 22.5657 30.3748 22.5709 30.3489C22.5865 30.2711 22.5917 30.2089 22.5865 30.1622C22.5865 30.1207 22.6202 30.0611 22.6876 29.9833C22.6928 29.9366 22.7161 29.8925 22.7576 29.8511L22.7887 29.7577C22.825 29.7214 22.838 29.6774 22.8276 29.6255C22.8276 29.5633 22.8509 29.5088 22.8976 29.4622L22.9598 29.3999C22.9495 29.3688 22.9754 29.3325 23.0376 29.291L23.2398 29.0888L23.3021 29.011L23.3565 28.9566C23.3721 28.9306 23.4213 28.8918 23.5043 28.8399L23.5665 28.7621C23.5769 28.7621 23.6262 28.7284 23.7143 28.661C23.8439 28.5728 23.9347 28.5288 23.9865 28.5288L24.0565 28.4588C24.0773 28.4484 24.1006 28.4302 24.1266 28.4043C24.1525 28.3784 24.1862 28.3551 24.2277 28.3343C24.2743 28.3188 24.4325 28.2436 24.7021 28.1088L25.0988 27.961C25.2129 27.9195 25.3555 27.891 25.5266 27.8754C25.5577 27.8547 25.6251 27.8287 25.7289 27.7976L25.9233 27.8054C26.0011 27.7898 26.0815 27.8028 26.1644 27.8443C26.2733 27.8806 26.3459 27.9169 26.3822 27.9532L26.6311 28.1399C26.6519 28.171 26.6674 28.1917 26.6778 28.2021L26.7789 28.3032C26.8826 28.4277 26.9526 28.5443 26.9889 28.6532C27.0978 28.8555 27.1523 29.0292 27.1523 29.1744C27.1315 29.5166 27.0382 29.7707 26.8722 29.9366C26.7063 30.1026 26.5378 30.2192 26.3667 30.2866C25.9415 30.4526 25.6614 30.5459 25.5266 30.5667C25.2622 30.6444 25.0651 30.6185 24.9355 30.4889Z" fill="#1E2F38"/>
<path d="M28.2559 31.0558L28.3336 30.9935C28.2351 30.8743 28.1651 30.7887 28.1236 30.7369C28.0925 30.685 28.0329 30.6046 27.9447 30.4957C27.8566 30.3868 27.7943 30.2935 27.758 30.2157C27.6855 30.0705 27.7166 29.915 27.8514 29.749C27.9914 29.5779 28.1366 29.5312 28.287 29.609C28.4166 29.6868 28.5022 29.7464 28.5436 29.7879C28.5851 29.8294 28.6681 29.902 28.7925 30.0057C28.8807 30.0316 28.9766 30.0913 29.0803 30.1846L29.2281 30.2702C29.2229 30.2754 29.2489 30.2909 29.3059 30.3168L29.5081 30.1924C29.5911 30.1094 29.6974 30.0498 29.827 30.0135C29.8633 29.9772 29.9982 29.9098 30.2315 29.8113C30.2522 29.7905 30.4493 29.6868 30.8226 29.5001C30.8693 29.4949 31.0067 29.5131 31.2349 29.5546C31.3593 29.5961 31.4475 29.7413 31.4994 29.9902C31.546 30.1094 31.5538 30.2157 31.5227 30.3091C31.4605 30.3091 31.3723 30.3661 31.2582 30.4802C31.2167 30.5113 30.9886 30.6669 30.5737 30.9469L30.356 31.1647C30.3923 31.2113 30.4467 31.2917 30.5193 31.4058C30.5971 31.5251 30.6904 31.6651 30.7993 31.8258C31.0067 32.1369 31.0664 32.404 30.9782 32.627C30.8901 32.767 30.8045 32.8422 30.7215 32.8525C30.6386 32.8629 30.5167 32.8084 30.356 32.6892C30.2367 32.5803 30.0837 32.4325 29.897 32.2458C29.7156 32.0643 29.5678 31.9425 29.4537 31.8803C29.35 31.9632 29.2722 32.0306 29.2203 32.0825L29.0959 32.1914C29.0596 32.2277 28.8444 32.3962 28.4503 32.697C28.3725 32.7125 28.1055 32.9277 27.6492 33.3426L27.0813 33.9104C26.988 34.0037 26.9076 34.0996 26.8402 34.1982C26.7313 34.3174 26.6639 34.4108 26.638 34.4782C26.5913 34.5248 26.5058 34.6363 26.3813 34.8126C26.1687 34.9008 25.9898 34.8723 25.8446 34.7271C25.7046 34.5871 25.632 34.4108 25.6268 34.1982L25.6657 33.9881C25.6916 33.9311 25.7072 33.8896 25.7124 33.8637C25.7228 33.8429 25.7357 33.8196 25.7513 33.7937C25.8187 33.6537 25.855 33.5603 25.8602 33.5137C25.8705 33.4411 25.8861 33.3944 25.9068 33.3737C25.9276 33.3529 25.9535 33.327 25.9846 33.2959C26.0624 33.1974 26.1246 33.1092 26.1713 33.0314C26.1713 32.9796 26.2465 32.8785 26.3969 32.7281C26.6821 32.4636 26.8402 32.3055 26.8713 32.2536C26.9024 32.2536 27.0036 32.1577 27.1747 31.9658L27.3691 31.818C27.3899 31.7973 27.478 31.7299 27.6336 31.6158C27.644 31.5847 27.6958 31.5276 27.7892 31.4447C27.8877 31.3565 27.9603 31.2995 28.007 31.2736C28.0795 31.2217 28.1625 31.1491 28.2559 31.0558Z" fill="#1E2F38"/>
<path d="M31.3409 35.572C31.3617 35.5617 31.4628 35.4813 31.6443 35.3309C31.6495 35.305 31.6935 35.235 31.7765 35.1209C31.818 34.9964 31.8258 34.8798 31.7998 34.7709C31.7532 34.6516 31.7221 34.5842 31.7065 34.5686C31.6443 34.5375 31.5924 34.522 31.5509 34.522C31.5198 34.522 31.4032 34.5505 31.2009 34.6075C31.0039 34.6698 30.7316 34.8279 30.3842 35.082C30.042 35.3413 29.8034 35.5383 29.6686 35.6731C29.5338 35.808 29.3731 35.9791 29.1864 36.1865C29.0049 36.3887 28.9556 36.521 29.0386 36.5832C29.1164 36.6402 29.3964 36.5469 29.8786 36.3032C29.9097 36.2824 29.9746 36.2539 30.0731 36.2176L31.3409 35.572ZM32.5699 36.1632C32.2951 36.438 32.0721 36.718 31.901 37.0032C31.6987 37.2573 31.5017 37.5477 31.3098 37.8744C31.2217 37.9936 31.175 38.0507 31.1698 38.0455C31.0142 38.4603 30.9157 38.704 30.8742 38.7766C30.8379 38.8441 30.7913 38.8855 30.7342 38.9011L30.742 38.8933C30.6798 38.9244 30.589 38.9166 30.4698 38.87C30.3505 38.8337 30.2546 38.7896 30.182 38.7377C29.9227 38.6029 29.8812 38.4111 30.0575 38.1622C30.0523 38.1259 30.0523 38.0636 30.0575 37.9755C30.0731 37.8873 30.0938 37.8251 30.1198 37.7888C30.1509 37.7473 30.1664 37.6955 30.1664 37.6332C30.182 37.5969 30.1924 37.5399 30.1975 37.4621C30.2027 37.3843 30.2235 37.3221 30.2598 37.2755L30.4464 37.0421L30.4387 37.0188C30.1846 37.1069 30.0109 37.1717 29.9175 37.2132C29.679 37.3273 29.3679 37.4206 28.9841 37.4932C28.6108 37.514 28.3386 37.3558 28.1674 37.0188C28.0793 36.9202 28.0326 36.8165 28.0274 36.7076C28.0274 36.6039 28.0197 36.5391 28.0041 36.5132C27.9834 36.4717 27.9782 36.3887 27.9885 36.2643C28.0197 36.0465 28.1467 35.8054 28.3697 35.5409L28.5719 35.3387C28.6134 35.3283 28.7378 35.2039 28.9453 34.9653L28.9919 34.9187C29.1164 34.732 29.1942 34.6231 29.2253 34.592C29.2564 34.5609 29.303 34.5246 29.3653 34.4831C29.4275 34.4416 29.4612 34.4131 29.4664 34.3975C29.4768 34.3768 29.4975 34.3509 29.5286 34.3197L29.6453 34.2031L30.1042 33.8219C30.3427 33.6975 30.5683 33.5964 30.7809 33.5186C30.8898 33.4512 30.9987 33.4201 31.1076 33.4253C31.3772 33.4149 31.5276 33.4045 31.5587 33.3941C31.6728 33.3527 31.8698 33.4253 32.1499 33.6119L32.2743 33.7519C32.3262 33.8038 32.3651 33.8582 32.391 33.9153C32.4221 33.9671 32.4454 34.0008 32.461 34.0164C32.4973 34.1253 32.5388 34.2031 32.5854 34.2497C32.6321 34.2964 32.6736 34.4105 32.7099 34.592C32.7358 34.6283 32.7695 34.7501 32.811 34.9576C32.8577 35.1805 32.8862 35.3076 32.8966 35.3387L33.0288 35.6109C33.0392 35.7146 33.0418 35.7691 33.0366 35.7743C33.0314 35.7794 32.8758 35.9091 32.5699 36.1632Z" fill="#1E2F38"/>
</svg>
