<svg width="32" height="32" viewBox="0 0 32 32" fill="none" xmlns="http://www.w3.org/2000/svg">
<path d="M5.45656 11.7086C5.84286 11.332 6.25512 11.0422 6.69332 10.8393C7.1406 10.6365 7.60042 10.5067 8.07279 10.4499C8.54962 10.3977 9.03677 10.4161 9.53424 10.5053C10.0362 10.599 10.5372 10.7519 11.0375 10.9639C10.8408 10.456 10.703 9.94896 10.6242 9.44277C10.5498 8.94119 10.5455 8.452 10.6114 7.97521C10.6817 7.50304 10.822 7.04781 11.0324 6.60952C11.2518 6.17136 11.5547 5.764 11.941 5.38742L12.7688 4.58046C13.4126 3.95283 13.8213 3.28538 13.9947 2.5781C14.1772 1.87096 14.1284 1.16956 13.8483 0.473886L15.0521 0C15.6622 0.76872 16.1183 1.5261 16.4203 2.27214C16.7269 3.0228 16.8911 3.73726 16.9131 4.41552C16.9441 5.09392 16.8443 5.72492 16.6137 6.30851C16.3875 6.89672 16.0445 7.41497 15.5846 7.86328L14.0877 9.32252C13.821 9.58254 13.6059 9.87744 13.4424 10.2072C13.2834 10.5416 13.1786 10.895 13.1279 11.2673C13.0862 11.6398 13.101 12.0245 13.1724 12.4214C13.2482 12.8229 13.3876 13.2162 13.5906 13.6014C13.2083 13.3911 12.8182 13.2421 12.4205 13.1544C12.0318 13.0668 11.649 13.0408 11.2722 13.0762C10.9044 13.1118 10.5517 13.2045 10.214 13.3543C9.88079 13.5087 9.58081 13.7159 9.31407 13.976L7.81024 15.4419C7.35035 15.8902 6.82418 16.2193 6.23171 16.4291C5.64372 16.6435 5.01229 16.7253 4.33744 16.6745C3.66706 16.6284 2.96245 16.4407 2.22361 16.1114C1.48924 15.7868 0.748036 15.3073 0 14.6731L0.500031 13.486C1.18946 13.7827 1.88902 13.8498 2.59869 13.6872C3.30823 13.5337 3.98492 13.1431 4.62876 12.5155L5.45656 11.7086Z" fill="#DAD6D1"/>
<path d="M17.7307 22.6706C17.9975 22.4105 18.2103 22.1133 18.3693 21.7789C18.5328 21.4492 18.6353 21.098 18.677 20.7256C18.7277 20.3532 18.7151 19.9708 18.6391 19.5784C18.5678 19.1815 18.4329 18.7883 18.2345 18.3986C18.6123 18.6134 18.9978 18.7624 19.3911 18.8454C19.7843 18.9285 20.1649 18.9522 20.5326 18.9166C20.9095 18.8812 21.2645 18.7862 21.5977 18.6318C21.9354 18.482 22.2376 18.2771 22.5044 18.0171L24.0013 16.5579C24.4612 16.1096 24.9851 15.7782 25.5731 15.5638C26.1656 15.354 26.7992 15.2745 27.4741 15.3253C28.1535 15.3716 28.8605 15.557 29.5948 15.8817C30.3337 16.2109 31.0771 16.6927 31.8251 17.3269L31.3115 18.5138C30.6267 18.2126 29.9272 18.141 29.213 18.299C28.508 18.4571 27.8335 18.8499 27.1897 19.4776L26.3619 20.2845C25.9756 20.6611 25.5588 20.9508 25.1115 21.1536C24.6733 21.3565 24.2158 21.4841 23.7389 21.5363C23.2666 21.5931 22.7794 21.5746 22.2775 21.4809C21.78 21.3918 21.2812 21.2412 20.781 21.0292C20.9777 21.5371 21.1132 22.0418 21.1876 22.5434C21.2664 23.0496 21.2707 23.5388 21.2004 24.0109C21.1345 24.4877 20.9919 24.9452 20.7725 25.3834C20.5621 25.8216 20.2638 26.2291 19.8775 26.6057L19.0497 27.4126C18.4058 28.0402 17.995 28.7054 17.817 29.4081C17.639 30.1198 17.6877 30.8258 17.9633 31.5259L16.773 32C16.163 31.2313 15.7046 30.4716 15.3981 29.7209C15.096 28.9749 14.9295 28.2627 14.8985 27.5843C14.8675 26.9059 14.965 26.2726 15.1912 25.6844C15.4218 25.1008 15.767 24.5848 16.2269 24.1365L17.7307 22.6706Z" fill="#DAD6D1"/>
<path d="M29.8388 4.15437L30.0163 4.30675L28.909 9.03903C28.3004 11.6464 27.7425 13.8644 27.6749 13.966C27.3705 14.4316 26.2125 14.7533 25.8321 14.4824C25.6884 14.3724 25.7222 14.203 26.5084 10.8168C26.9648 8.86972 27.3536 7.21892 27.379 7.15966C27.3959 7.1004 26.5675 7.90464 25.5278 8.94591C24.4881 9.98718 23.1441 11.257 22.5439 11.765C17.0327 16.4549 10.9973 19.7904 4.10819 21.9491C2.92478 22.3216 2.30772 22.3893 2.08795 22.1607C1.92734 21.9999 1.92734 22.0083 2.07104 21.7205C2.2401 21.3988 2.6881 21.1702 3.89687 20.8147C10.0506 18.9946 16.5678 15.329 21.5634 10.8845C23.1948 9.42845 25.773 6.77871 25.4264 6.91416C25.1474 7.02421 23.6259 7.30358 22.3918 7.47289C20.9548 7.67606 20.6336 7.63374 20.6336 7.23585C20.6336 6.77871 21.3774 6.35543 22.3242 6.26231C25.0206 5.99141 26.483 5.58506 27.7932 4.7131C28.8921 3.99353 29.45 3.84114 29.8388 4.15437Z" fill="#28868B"/>
</svg>
