<svg width="99" height="25" viewBox="0 0 99 25" fill="none" xmlns="http://www.w3.org/2000/svg">
<path d="M0.329346 3.69542H4.18867V17.7421H11.3292V21.3046H0.329346V3.69542ZM13.0323 9.37504H16.7354V21.2968H13.0323V9.37504ZM14.8839 3.44542C15.3088 3.44542 15.7241 3.57143 16.0774 3.8075C16.4308 4.04357 16.7061 4.3791 16.8687 4.77167C17.0313 5.16424 17.0739 5.59622 16.991 6.01297C16.9081 6.42972 16.7035 6.81253 16.403 7.11299C16.1026 7.41345 15.7197 7.61807 15.303 7.70096C14.8862 7.78386 14.4543 7.74132 14.0617 7.57871C13.6691 7.4161 13.3336 7.14073 13.0975 6.78743C12.8614 6.43412 12.7354 6.01875 12.7354 5.59383C12.7354 5.02404 12.9618 4.47758 13.3647 4.07468C13.7676 3.67177 14.3141 3.44542 14.8839 3.44542ZM32.2352 3.69542H35.9383V14.2187L40.1414 9.35941H44.6804L39.8211 14.8828L44.5788 21.3046H39.9226L35.9852 15.4062H35.9383V21.3046H32.2352V3.69542ZM18.7901 9.37504H22.3213V11.0078H22.3681C22.7243 10.3996 23.2385 9.89917 23.856 9.55945C24.4736 9.21973 25.1715 9.05342 25.8759 9.07817C29.6337 9.07817 30.3212 11.5469 30.3212 14.7578V21.3046H26.6493V15.5C26.6493 14.1172 26.6493 12.375 24.7197 12.375C22.79 12.375 22.4931 13.8828 22.4931 15.4375V21.3358H18.7901V9.37504Z" fill="#1D1D1B"/>
<path d="M52.485 13.9453C52.4925 13.6447 52.4388 13.3457 52.3272 13.0665C52.2156 12.7873 52.0484 12.5337 51.8358 12.321C51.6232 12.1084 51.3696 11.9412 51.0904 11.8296C50.8111 11.7181 50.5121 11.6644 50.2116 11.6719C49.5641 11.6309 48.9266 11.8465 48.4368 12.2719C47.947 12.6974 47.6444 13.2985 47.5944 13.9453H52.485ZM55.6099 19.2343C54.9919 19.975 54.2173 20.5693 53.3419 20.9746C52.4665 21.3799 51.5121 21.586 50.5475 21.578C46.8444 21.578 43.8757 19.1093 43.8757 15.2734C43.8757 11.4375 46.8444 8.97661 50.5475 8.97661C54.0084 8.97661 56.1802 11.4453 56.1802 15.2734V16.4375H47.5866C47.6887 17.0997 48.0277 17.7023 48.5407 18.1334C49.0537 18.5645 49.7057 18.7947 50.3756 18.7812C50.9033 18.7804 51.4222 18.646 51.8839 18.3906C52.3457 18.1351 52.7352 17.7669 53.0162 17.3203L55.6099 19.2343ZM63.9067 12.25C63.302 12.2313 62.7055 12.3936 62.1935 12.716C61.6816 13.0384 61.2775 13.5062 61.0331 14.0596C60.7886 14.613 60.7149 15.2268 60.8213 15.8224C60.9278 16.4179 61.2096 16.9681 61.6306 17.4026C62.0517 17.837 62.5928 18.1359 63.1847 18.261C63.7767 18.386 64.3924 18.3316 64.9532 18.1046C65.514 17.8776 65.9943 17.4884 66.3326 16.9868C66.6708 16.4852 66.8517 15.894 66.852 15.289C66.8851 14.8876 66.8317 14.4837 66.6952 14.1047C66.5587 13.7257 66.3424 13.3804 66.0609 13.0923C65.7794 12.8041 65.4393 12.5798 65.0636 12.4345C64.6879 12.2892 64.2854 12.2263 63.8833 12.25M70.2894 21.2968H66.852V19.7343C66.4225 20.307 65.8676 20.7738 65.2298 21.0988C64.5919 21.4239 63.8881 21.5985 63.1723 21.6093C59.6099 21.6093 57.2662 19.039 57.2662 15.4062C57.2662 12.0703 59.3443 9.00785 62.7348 9.00785C63.4477 8.94522 64.1652 9.05441 64.8272 9.32627C65.4892 9.59813 66.0764 10.0247 66.5395 10.5703H66.5864V3.69542H70.2894V21.2968Z" fill="#1D1D1B"/>
<path d="M97.1485 0.000152168H75.8441C75.3605 -0.00402005 74.8951 0.183533 74.5495 0.521758C74.204 0.859983 74.0065 1.32133 74.0003 1.80482V23.1952C74.0065 23.6787 74.204 24.14 74.5495 24.4782C74.8951 24.8165 75.3605 25.004 75.8441 24.9998H97.1485C97.3886 25.0029 97.6269 24.9587 97.8499 24.8697C98.0729 24.7807 98.2761 24.6486 98.4481 24.481C98.62 24.3134 98.7572 24.1136 98.8519 23.893C98.9466 23.6724 98.997 23.4353 99 23.1952V1.80482C98.997 1.56474 98.9466 1.32762 98.8519 1.10699C98.7572 0.886367 98.62 0.686557 98.4481 0.518975C98.2761 0.351392 98.0729 0.219317 97.8499 0.130297C97.6269 0.0412772 97.3886 -0.00294545 97.1485 0.000152168Z" fill="#0076B2"/>
<path d="M77.7034 9.37504H81.4143V21.3046H77.7034V9.37504ZM79.5549 3.44542C79.9799 3.44542 80.3952 3.57143 80.7485 3.8075C81.1018 4.04357 81.3772 4.3791 81.5398 4.77167C81.7024 5.16424 81.745 5.59622 81.6621 6.01297C81.5792 6.42972 81.3746 6.81253 81.0741 7.11299C80.7736 7.41345 80.3908 7.61807 79.9741 7.70096C79.5573 7.78386 79.1254 7.74132 78.7328 7.57871C78.3402 7.4161 78.0047 7.14073 77.7686 6.78743C77.5325 6.43412 77.4065 6.01875 77.4065 5.59383C77.4065 5.02404 77.6329 4.47758 78.0358 4.07468C78.4387 3.67177 78.9852 3.44542 79.5549 3.44542ZM83.7346 9.37504H87.2892V11.0078H87.3361C87.6923 10.3996 88.2064 9.89917 88.824 9.55945C89.4415 9.21973 90.1395 9.05342 90.8439 9.07817C94.6016 9.07817 95.2891 11.5469 95.2891 14.7578V21.3046H91.5861V15.5C91.5861 14.1172 91.5861 12.375 89.6564 12.375C87.7267 12.375 87.4298 13.8828 87.4298 15.4375V21.3358H83.7268L83.7346 9.37504Z" fill="white"/>
</svg>
