<svg width="135" height="32" viewBox="0 0 135 32" fill="none" xmlns="http://www.w3.org/2000/svg">
<path d="M58.8954 12.0739L57.9133 11.8977V11.0164H64.8001L64.9638 13.2448H63.9692L63.5285 11.9732L61.0483 11.8473V15.1208L62.5843 15.083L62.8109 14.0506H63.6796V17.2107H62.8109L62.5969 16.1154L61.0483 16.0776V19.5021L63.8055 19.3259L64.5735 17.7017L65.6437 18.0039L65.3415 20.3709H57.9259V19.5399L58.8954 19.414V12.0739Z" fill="#539EA2"/>
<path d="M68.5297 16.9589L66.4775 14.315L65.848 14.1765V13.3707H69.7761V14.1765L68.9955 14.315L69.8768 15.5866L70.1916 16.1028L70.5063 15.574L71.4128 14.315L70.6071 14.1765V13.3707H73.3895V14.1765L72.6844 14.315L70.7707 16.6819L72.9111 19.4266L73.5909 19.5525V20.3709H69.688V19.5525L70.3804 19.4266L69.5243 18.0794L69.1466 17.5381L68.857 18.0794L67.9505 19.4266L68.8696 19.5525V20.3709H65.785V19.5525L66.5656 19.4266L68.5297 16.9589Z" fill="#539EA2"/>
<path d="M81.0865 16.6442C81.0865 17.3408 80.9396 17.9829 80.6459 18.5705C80.3605 19.158 79.9324 19.628 79.3617 19.9806C78.7993 20.3331 78.1194 20.5093 77.3221 20.5093C77.1878 20.5093 77.0409 20.4968 76.8814 20.4716C76.7303 20.4464 76.6128 20.417 76.5289 20.3834L76.5666 21.4032V22.4734L77.6494 22.6371V23.4177H73.7842V22.6371L74.5522 22.4734V14.6927L73.7842 14.4661V13.484L76.0379 13.207H76.063L76.403 13.4714V14.1513C76.596 13.8911 76.8646 13.6687 77.2087 13.484C77.5613 13.291 77.9432 13.1945 78.3544 13.1945C79.1602 13.1945 79.8149 13.4798 80.3185 14.0506C80.8305 14.6129 81.0865 15.4775 81.0865 16.6442ZM77.6116 14.3528C77.3934 14.3528 77.1878 14.3989 76.9947 14.4912C76.8017 14.5752 76.659 14.6801 76.5666 14.806V19.414C76.6254 19.4895 76.7261 19.5525 76.8688 19.6028C77.0199 19.6532 77.1836 19.6784 77.3598 19.6784C77.8299 19.6784 78.2034 19.4518 78.4803 18.9985C78.7657 18.5453 78.9084 17.8108 78.9084 16.7952C78.9084 15.9727 78.7909 15.36 78.5559 14.9571C78.3209 14.5542 78.0061 14.3528 77.6116 14.3528Z" fill="#539EA2"/>
<path d="M82.0767 16.9086C82.0767 16.1028 82.2362 15.4229 82.5551 14.8689C82.8741 14.3066 83.3021 13.8869 83.8393 13.6099C84.3849 13.3329 84.9808 13.1945 85.6271 13.1945C86.6847 13.1945 87.5115 13.5134 88.1074 14.1513C88.7117 14.7808 89.0139 15.6621 89.0139 16.7952C89.0139 17.6262 88.8544 18.3187 88.5355 18.8726C88.2165 19.4266 87.7884 19.8379 87.2513 20.1065C86.7141 20.375 86.114 20.5093 85.4509 20.5093C84.4017 20.5093 83.5749 20.1946 82.9706 19.5651C82.3747 18.9272 82.0767 18.0417 82.0767 16.9086ZM85.5768 19.628C85.9797 19.628 86.2776 19.414 86.4707 18.9859C86.6721 18.5495 86.7728 17.8696 86.7728 16.9463C86.7728 15.9643 86.6763 15.2425 86.4833 14.7808C86.2986 14.3108 85.9839 14.0758 85.539 14.0758C84.7164 14.0758 84.3052 14.9697 84.3052 16.7575C84.3052 17.7311 84.4059 18.4529 84.6073 18.923C84.8088 19.393 85.1319 19.628 85.5768 19.628Z" fill="#539EA2"/>
<path d="M90.1294 19.5399L90.8974 19.4266V14.6927L90.1546 14.4661V13.484L92.2445 13.207H92.2823L92.6348 13.4714V13.7736L92.5971 14.8186H92.6348C92.6936 14.6255 92.8279 14.4031 93.0377 14.1513C93.2476 13.8911 93.512 13.6687 93.8309 13.484C94.1582 13.291 94.5108 13.1945 94.8885 13.1945C95.1067 13.1945 95.2746 13.2238 95.3921 13.2826V15.4733C95.2578 15.3726 95.1109 15.2928 94.9514 15.2341C94.8003 15.1753 94.6031 15.1459 94.3597 15.1459C94.0575 15.1459 93.7847 15.1879 93.5413 15.2718C93.2979 15.3474 93.1049 15.4355 92.9622 15.5362V19.4266L94.3471 19.5525V20.3709H90.1294V19.5399Z" fill="#539EA2"/>
<path d="M98.2937 20.4842C97.7398 20.4842 97.3285 20.3583 97.0599 20.1065C96.7997 19.8463 96.6696 19.4476 96.6696 18.9104V14.4283H95.9016V13.6981L96.1534 13.5973C96.3548 13.5302 96.5311 13.4588 96.6822 13.3833C96.8501 13.2238 96.9843 13.014 97.0851 12.7538C97.211 12.4516 97.3495 12.0278 97.5005 11.4822H98.6714L98.747 13.3707H100.547V14.4283H98.7721V17.7647C98.7721 18.2263 98.7847 18.5495 98.8099 18.7341C98.8351 18.9188 98.8813 19.0405 98.9484 19.0992C99.024 19.1496 99.1582 19.1748 99.3513 19.1748C99.7458 19.1748 100.119 19.1076 100.472 18.9733L100.736 19.7665C100.501 19.9596 100.153 20.1274 99.6912 20.2701C99.2296 20.4128 98.7638 20.4842 98.2937 20.4842Z" fill="#539EA2"/>
<path d="M0.075541 19.6282L0.74282 19.5148V14.7809L0 14.5543V13.5723L2.29141 13.2953L2.39213 13.3457L2.64393 13.6982V14.3277C2.91252 14.0507 3.30702 13.8157 3.82741 13.6227C4.3478 13.4212 4.79266 13.3205 5.16197 13.3205C5.61521 13.3205 5.98033 13.396 6.25731 13.5471C6.54269 13.6982 6.75672 13.9332 6.89941 14.2522C7.18479 13.9836 7.54151 13.7611 7.96957 13.5849C8.40603 13.4086 8.84669 13.3205 9.29154 13.3205C10.0302 13.3205 10.559 13.5345 10.8779 13.9626C11.2052 14.3907 11.3689 15.0915 11.3689 16.0651V19.5148L12.1243 19.6282V20.4591H8.71239V19.6282L9.27895 19.5148V16.1155C9.27895 15.5112 9.20761 15.0915 9.06492 14.8565C8.93062 14.6215 8.67882 14.504 8.30951 14.504C7.92341 14.504 7.52053 14.6676 7.10085 14.995C7.15121 15.3055 7.17639 15.6623 7.17639 16.0651V19.5148L7.88144 19.6282V20.4591H4.44433V19.6282L5.07384 19.5148V16.0777C5.07384 15.4818 5.00669 15.0705 4.87239 14.8439C4.74649 14.6173 4.50308 14.504 4.14216 14.504C3.90715 14.504 3.67213 14.5585 3.43711 14.6676C3.21049 14.7684 3.01325 14.8943 2.84538 15.0453V19.5148L3.52525 19.6282V20.4591H0.075541V19.6282Z" fill="#DAD6D1"/>
<path d="M12.7591 18.4447C12.7591 17.7061 13.1326 17.1395 13.8796 16.745C14.635 16.3505 15.6254 16.1491 16.8509 16.1407V15.8889C16.8509 15.5867 16.8173 15.3475 16.7501 15.1712C16.683 14.995 16.5613 14.8649 16.385 14.7809C16.2088 14.6886 15.9486 14.6425 15.6044 14.6425C15.1931 14.6425 14.8238 14.6928 14.4965 14.7935C14.1775 14.8859 13.8418 15.0118 13.4893 15.1712L13.0612 14.2647C13.1955 14.1556 13.4137 14.0255 13.7159 13.8745C14.0181 13.715 14.379 13.5807 14.7987 13.4716C15.2267 13.3541 15.6716 13.2953 16.1332 13.2953C16.8047 13.2953 17.3293 13.3834 17.707 13.5597C18.0931 13.736 18.3659 14.0087 18.5253 14.3781C18.6932 14.7474 18.7771 15.251 18.7771 15.8889V19.6282H19.4318V20.4213C19.2388 20.4633 18.9702 20.5053 18.6261 20.5472C18.2819 20.5892 17.9882 20.6102 17.7448 20.6102C17.4258 20.6102 17.2118 20.564 17.1027 20.4717C17.0019 20.3794 16.9516 20.1947 16.9516 19.9177V19.6282C16.7417 19.88 16.4606 20.1066 16.108 20.308C15.7555 20.5011 15.3484 20.5976 14.8868 20.5976C14.4923 20.5976 14.1314 20.5137 13.804 20.3458C13.4851 20.1695 13.2291 19.9219 13.036 19.603C12.8514 19.2756 12.7591 18.8895 12.7591 18.4447ZM15.8688 19.4393C16.0199 19.4393 16.1878 19.3973 16.3724 19.3134C16.5571 19.2211 16.7166 19.112 16.8509 18.9861V16.9842C16.1962 16.9842 15.7093 17.1017 15.3904 17.3367C15.0798 17.5718 14.9246 17.8739 14.9246 18.2432C14.9246 18.6209 15.0085 18.9147 15.1764 19.1246C15.3442 19.3344 15.575 19.4393 15.8688 19.4393Z" fill="#DAD6D1"/>
<path d="M20.8207 14.7809L20.0779 14.5543V13.5723L22.3693 13.2953H22.4071L22.7344 13.5597V14.0255L22.7218 14.3151C23.0156 14.0381 23.3891 13.8031 23.8423 13.6101C24.2956 13.417 24.7698 13.3205 25.265 13.3205C25.7686 13.3205 26.1631 13.4128 26.4485 13.5975C26.7423 13.7737 26.9521 14.0591 27.078 14.4536C27.2123 14.8481 27.2794 15.3853 27.2794 16.0651V19.5148L27.9845 19.6156V20.4591H24.56V19.6282L25.1769 19.5148V16.0777C25.1769 15.6748 25.1475 15.3643 25.0888 15.1461C25.0384 14.9194 24.9461 14.7558 24.8118 14.655C24.6775 14.5543 24.4844 14.504 24.2326 14.504C23.8465 14.504 23.4101 14.6844 22.9232 15.0453V19.5148L23.6157 19.6282V20.4591H20.1282V19.6282L20.8207 19.5148V14.7809Z" fill="#DAD6D1"/>
<path d="M29.6515 14.5166H28.6695V13.736L29.6515 13.4842V12.9554C29.6515 12.393 29.8026 11.881 30.1048 11.4194C30.4069 10.9577 30.8098 10.5926 31.3134 10.324C31.8254 10.0554 32.3752 9.92114 32.9627 9.92114C33.2733 9.92114 33.5545 9.96311 33.8063 10.047V11.8726C33.7139 11.7719 33.5335 11.6754 33.2649 11.583C32.9963 11.4823 32.7319 11.432 32.4717 11.432C32.1947 11.432 31.9975 11.5033 31.88 11.646C31.7625 11.7887 31.7037 12.0237 31.7037 12.351V13.4716H33.2145V14.5166H31.7037V19.5148L32.9753 19.6282V20.4591H28.6821V19.6282L29.6515 19.5148V14.5166Z" fill="#DAD6D1"/>
<path d="M34.034 19.6282L34.802 19.5148V14.7809L34.0592 14.5543V13.5723L36.1491 13.2953H36.1869L36.5394 13.5597V13.8619L36.5016 14.9068H36.5394C36.5982 14.7138 36.7325 14.4914 36.9423 14.2396C37.1521 13.9794 37.4165 13.7569 37.7355 13.5723C38.0628 13.3792 38.4153 13.2827 38.7931 13.2827C39.0113 13.2827 39.1791 13.3121 39.2967 13.3708V15.5615C39.1624 15.4608 39.0155 15.3811 38.856 15.3223C38.7049 15.2636 38.5077 15.2342 38.2643 15.2342C37.9621 15.2342 37.6893 15.2762 37.4459 15.3601C37.2025 15.4356 37.0094 15.5238 36.8668 15.6245V19.5148L38.2517 19.6407V20.4591H34.034V19.6282Z" fill="#DAD6D1"/>
<path d="M43.3188 20.5976C42.1689 20.5976 41.317 20.2745 40.763 19.6282C40.209 18.9735 39.9321 18.0838 39.9321 16.959C39.9321 16.1952 40.0748 15.5364 40.3601 14.9824C40.6455 14.4284 41.0442 14.0087 41.5562 13.7234C42.0766 13.4296 42.6851 13.2827 43.3818 13.2827C44.2631 13.2827 44.9346 13.5051 45.3962 13.95C45.8662 14.3948 46.1096 15.0244 46.1264 15.8385C46.1264 16.3757 46.0887 16.808 46.0131 17.1353H42.0724C42.1144 17.8487 42.2864 18.3943 42.5886 18.772C42.8992 19.1413 43.3314 19.326 43.8854 19.326C44.1959 19.326 44.5191 19.2756 44.8548 19.1749C45.199 19.0658 45.4759 18.9441 45.6858 18.8098L46.0383 19.5778C45.8201 19.8212 45.4466 20.052 44.9178 20.2703C44.3974 20.4885 43.8644 20.5976 43.3188 20.5976ZM44.1246 16.3044L44.1372 15.7756C44.1372 15.2468 44.0658 14.8439 43.9231 14.5669C43.7805 14.2899 43.5371 14.1514 43.1929 14.1514C42.8404 14.1514 42.5676 14.3067 42.3746 14.6173C42.1815 14.9194 42.0766 15.4818 42.0598 16.3044H44.1246Z" fill="#DAD6D1"/>
<path d="M49.648 20.5976C48.8423 20.5976 48.1876 20.308 47.684 19.7289C47.1804 19.1497 46.9286 18.281 46.9286 17.1227C46.9286 16.4261 47.0712 15.7882 47.3566 15.209C47.6504 14.6215 48.0785 14.1556 48.6408 13.8115C49.2116 13.459 49.8998 13.2827 50.7056 13.2827C50.949 13.2827 51.2008 13.3121 51.461 13.3708V11.369L50.2524 11.1927V10.387L53.0348 10.1352H53.0977L53.4754 10.4373V19.6156H54.1301V20.4213C53.4838 20.5472 52.9467 20.6102 52.5186 20.6102C52.2248 20.6102 52.0108 20.5598 51.8765 20.4591C51.7506 20.3668 51.6876 20.1821 51.6876 19.9051V19.5904C51.4862 19.8842 51.1966 20.1276 50.8189 20.3206C50.4412 20.5053 50.0509 20.5976 49.648 20.5976ZM50.4034 19.4645C50.6385 19.4645 50.8441 19.4183 51.0204 19.326C51.205 19.2253 51.3519 19.1078 51.461 18.9735V14.4158C51.4023 14.3403 51.2932 14.2773 51.1337 14.227C50.9826 14.1766 50.8189 14.1514 50.6427 14.1514C50.1726 14.1514 49.7991 14.3781 49.5221 14.8313C49.2451 15.2762 49.1067 16.0064 49.1067 17.022C49.1067 17.8529 49.2242 18.4699 49.4592 18.8727C49.6942 19.2672 50.009 19.4645 50.4034 19.4645Z" fill="#DAD6D1"/>
<path d="M108.485 11.7086C108.871 11.332 109.283 11.0422 109.721 10.8393C110.169 10.6365 110.628 10.5067 111.101 10.4499C111.578 10.3977 112.065 10.4161 112.562 10.5053C113.064 10.599 113.565 10.7519 114.066 10.9639C113.869 10.456 113.731 9.94896 113.652 9.44277C113.578 8.94119 113.574 8.452 113.639 7.97521C113.71 7.50304 113.85 7.04781 114.06 6.60952C114.28 6.17136 114.583 5.764 114.969 5.38742L115.797 4.58046C116.441 3.95283 116.849 3.28538 117.023 2.5781C117.205 1.87096 117.156 1.16956 116.876 0.473886L118.08 0C118.69 0.76872 119.146 1.5261 119.448 2.27214C119.755 3.0228 119.919 3.73726 119.941 4.41552C119.972 5.09392 119.872 5.72492 119.642 6.30851C119.416 6.89672 119.073 7.41497 118.613 7.86328L117.116 9.32252C116.849 9.58254 116.634 9.87744 116.47 10.2072C116.312 10.5416 116.207 10.895 116.156 11.2673C116.114 11.6398 116.129 12.0245 116.2 12.4214C116.276 12.8229 116.416 13.2162 116.619 13.6014C116.236 13.3911 115.846 13.2421 115.449 13.1544C115.06 13.0668 114.677 13.0408 114.3 13.0762C113.933 13.1118 113.58 13.2045 113.242 13.3543C112.909 13.5087 112.609 13.7159 112.342 13.976L110.838 15.4419C110.378 15.8902 109.852 16.2193 109.26 16.4291C108.672 16.6435 108.04 16.7253 107.366 16.6745C106.695 16.6284 105.991 16.4407 105.252 16.1114C104.517 15.7868 103.776 15.3073 103.028 14.6731L103.528 13.486C104.218 13.7827 104.917 13.8498 105.627 13.6872C106.336 13.5337 107.013 13.1431 107.657 12.5155L108.485 11.7086Z" fill="#DAD6D1"/>
<path d="M120.759 22.6706C121.026 22.4105 121.238 22.1133 121.397 21.7789C121.561 21.4492 121.663 21.098 121.705 20.7256C121.756 20.3532 121.743 19.9708 121.667 19.5784C121.596 19.1815 121.461 18.7883 121.263 18.3986C121.64 18.6134 122.026 18.7624 122.419 18.8454C122.812 18.9285 123.193 18.9522 123.561 18.9166C123.938 18.8812 124.293 18.7862 124.626 18.6318C124.963 18.482 125.266 18.2771 125.532 18.0171L127.029 16.5579C127.489 16.1096 128.013 15.7782 128.601 15.5638C129.194 15.354 129.827 15.2745 130.502 15.3253C131.182 15.3716 131.889 15.557 132.623 15.8817C133.362 16.2109 134.105 16.6927 134.853 17.3269L134.34 18.5138C133.655 18.2126 132.955 18.141 132.241 18.299C131.536 18.4571 130.862 18.8499 130.218 19.4776L129.39 20.2845C129.004 20.6611 128.587 20.9508 128.14 21.1536C127.701 21.3565 127.244 21.4841 126.767 21.5363C126.295 21.5931 125.808 21.5746 125.306 21.4809C124.808 21.3918 124.309 21.2412 123.809 21.0292C124.006 21.5371 124.141 22.0418 124.216 22.5434C124.294 23.0496 124.299 23.5388 124.228 24.0109C124.163 24.4877 124.02 24.9452 123.801 25.3834C123.59 25.8216 123.292 26.2291 122.906 26.6057L122.078 27.4126C121.434 28.0402 121.023 28.7054 120.845 29.4081C120.667 30.1198 120.716 30.8258 120.991 31.5259L119.801 32C119.191 31.2313 118.733 30.4716 118.426 29.7209C118.124 28.9749 117.958 28.2627 117.927 27.5843C117.896 26.9059 117.993 26.2726 118.219 25.6844C118.45 25.1008 118.795 24.5848 119.255 24.1365L120.759 22.6706Z" fill="#DAD6D1"/>
<path d="M132.867 4.15437L133.044 4.30675L131.937 9.03903C131.328 11.6464 130.771 13.8644 130.703 13.966C130.399 14.4316 129.241 14.7533 128.86 14.4824C128.716 14.3724 128.75 14.203 129.536 10.8168C129.993 8.86972 130.382 7.21892 130.407 7.15966C130.424 7.1004 129.596 7.90464 128.556 8.94591C127.516 9.98718 126.172 11.257 125.572 11.765C120.061 16.4549 114.025 19.7904 107.136 21.9491C105.953 22.3216 105.336 22.3893 105.116 22.1607C104.955 21.9999 104.955 22.0083 105.099 21.7205C105.268 21.3988 105.716 21.1702 106.925 20.8147C113.079 18.9946 119.596 15.329 124.591 10.8845C126.223 9.42845 128.801 6.77871 128.454 6.91416C128.176 7.02421 126.654 7.30358 125.42 7.47289C123.983 7.67606 123.662 7.63374 123.662 7.23585C123.662 6.77871 124.406 6.35543 125.352 6.26231C128.049 5.99141 129.511 5.58506 130.821 4.7131C131.92 3.99353 132.478 3.84114 132.867 4.15437Z" fill="#28868B"/>
</svg>
