<svg width="44" height="13" viewBox="0 0 44 13" fill="none" xmlns="http://www.w3.org/2000/svg">
<path d="M1.89536 1.07396L0.91333 0.897699V0.0163879H7.80015L7.96382 2.24485H6.9692L6.52854 0.97324L4.04828 0.847339V4.12078L5.58428 4.08301L5.8109 3.05062H6.67963V6.21075H5.8109L5.59687 5.1154L4.04828 5.07763V8.50216L6.80553 8.3259L7.57353 6.70177L8.64369 7.00393L8.34153 9.37088H0.92592V8.53993L1.89536 8.41403V1.07396Z" fill="#539EA2"/>
<path d="M11.5297 5.95895L9.47749 3.31501L8.84799 3.17652V2.37075H12.7761V3.17652L11.9955 3.31501L12.8768 4.58662L13.1916 5.10281L13.5063 4.57403L14.4128 3.31501L13.6071 3.17652V2.37075H16.3895V3.17652L15.6844 3.31501L13.7707 5.68196L15.9111 8.42662L16.5909 8.55252V9.37088H12.688V8.55252L13.3804 8.42662L12.5243 7.07947L12.1466 6.53809L11.857 7.07947L10.9505 8.42662L11.8696 8.55252V9.37088H8.78503V8.55252L9.56563 8.42662L11.5297 5.95895Z" fill="#539EA2"/>
<path d="M24.0865 5.64419C24.0865 6.34085 23.9396 6.98295 23.6459 7.57049C23.3605 8.15803 22.9324 8.62806 22.3617 8.98059C21.7993 9.33311 21.1194 9.50937 20.3221 9.50937C20.1878 9.50937 20.0409 9.49678 19.8814 9.4716C19.7303 9.44642 19.6128 9.41704 19.5289 9.38347L19.5666 10.4033V11.4734L20.6494 11.6371V12.4177H16.7842V11.6371L17.5522 11.4734V3.69272L16.7842 3.46609V2.48406L19.0379 2.20708H19.063L19.403 2.47147V3.15134C19.596 2.89114 19.8646 2.66872 20.2087 2.48406C20.5613 2.29101 20.9432 2.19449 21.3544 2.19449C22.1602 2.19449 22.8149 2.47986 23.3185 3.05062C23.8305 3.61298 24.0865 4.4775 24.0865 5.64419ZM20.6116 3.35278C20.3934 3.35278 20.1878 3.39895 19.9947 3.49127C19.8017 3.57521 19.659 3.68013 19.5666 3.80603V8.41403C19.6254 8.48957 19.7261 8.55252 19.8688 8.60288C20.0199 8.65324 20.1836 8.67842 20.3598 8.67842C20.8299 8.67842 21.2034 8.4518 21.4803 7.99855C21.7657 7.54531 21.9084 6.81088 21.9084 5.79527C21.9084 4.97272 21.7909 4.35999 21.5559 3.95711C21.3209 3.55422 21.0061 3.35278 20.6116 3.35278Z" fill="#539EA2"/>
<path d="M25.0767 5.90859C25.0767 5.10281 25.2362 4.42295 25.5551 3.86898C25.8741 3.30662 26.3021 2.88695 26.8393 2.60996C27.3849 2.33298 27.9808 2.19449 28.6271 2.19449C29.6847 2.19449 30.5115 2.51344 31.1074 3.15134C31.7117 3.78085 32.0139 4.66216 32.0139 5.79527C32.0139 6.62622 31.8544 7.31868 31.5355 7.87265C31.2165 8.42662 30.7884 8.8379 30.2513 9.10649C29.7141 9.37508 29.114 9.50937 28.4509 9.50937C27.4017 9.50937 26.5749 9.19462 25.9706 8.56511C25.3747 7.92721 25.0767 7.0417 25.0767 5.90859ZM28.5768 8.62806C28.9797 8.62806 29.2776 8.41403 29.4707 7.98596C29.6721 7.5495 29.7728 6.86963 29.7728 5.94636C29.7728 4.96432 29.6763 4.24249 29.4833 3.78085C29.2986 3.31081 28.9839 3.0758 28.539 3.0758C27.7164 3.0758 27.3052 3.9697 27.3052 5.7575C27.3052 6.73114 27.4059 7.45298 27.6073 7.92301C27.8088 8.39304 28.1319 8.62806 28.5768 8.62806Z" fill="#539EA2"/>
<path d="M33.1294 8.53993L33.8974 8.42662V3.69272L33.1546 3.46609V2.48406L35.2445 2.20708H35.2823L35.6348 2.47147V2.77363L35.5971 3.81862H35.6348C35.6936 3.62557 35.8279 3.40314 36.0377 3.15134C36.2476 2.89114 36.512 2.66872 36.8309 2.48406C37.1582 2.29101 37.5108 2.19449 37.8885 2.19449C38.1067 2.19449 38.2746 2.22386 38.3921 2.28262V4.47331C38.2578 4.37259 38.1109 4.29285 37.9514 4.23409C37.8003 4.17534 37.6031 4.14596 37.3597 4.14596C37.0575 4.14596 36.7847 4.18793 36.5413 4.27186C36.2979 4.3474 36.1049 4.43554 35.9622 4.53626V8.42662L37.3471 8.55252V9.37088H33.1294V8.53993Z" fill="#539EA2"/>
<path d="M41.2937 9.48419C40.7398 9.48419 40.3285 9.35829 40.0599 9.10649C39.7997 8.84629 39.6696 8.4476 39.6696 7.91042V3.42832H38.9016V2.69809L39.1534 2.59737C39.3548 2.53022 39.5311 2.45888 39.6822 2.38334C39.8501 2.22386 39.9843 2.01403 40.0851 1.75383C40.211 1.45167 40.3495 1.0278 40.5005 0.482224H41.6714L41.747 2.37075H43.5474V3.42832H41.7721V6.76472C41.7721 7.22636 41.7847 7.5495 41.8099 7.73416C41.8351 7.91882 41.8813 8.04052 41.9484 8.09927C42.024 8.14963 42.1582 8.17482 42.3513 8.17482C42.7458 8.17482 43.1193 8.10767 43.4718 7.97337L43.7362 8.76655C43.5012 8.9596 43.1529 9.12747 42.6912 9.27016C42.2296 9.41285 41.7638 9.48419 41.2937 9.48419Z" fill="#539EA2"/>
</svg>
