<svg width="32" height="32" viewBox="0 0 32 32" fill="none" xmlns="http://www.w3.org/2000/svg">
<path d="M5.48469 11.7086C5.871 11.332 6.28325 11.0422 6.72146 10.8393C7.16873 10.6365 7.62855 10.5067 8.10092 10.4499C8.57776 10.3977 9.06491 10.4161 9.56238 10.5053C10.0643 10.599 10.5654 10.7519 11.0656 10.9639C10.8689 10.456 10.7311 9.94896 10.6523 9.44277C10.5779 8.94119 10.5737 8.452 10.6395 7.97521C10.7098 7.50304 10.8501 7.04781 11.0605 6.60952C11.2799 6.17136 11.5828 5.764 11.9691 5.38742L12.7969 4.58046C13.4407 3.95283 13.8494 3.28538 14.0228 2.5781C14.2053 1.87096 14.1565 1.16956 13.8764 0.473886L15.0802 0C15.6903 0.76872 16.1464 1.5261 16.4485 2.27214C16.755 3.0228 16.9193 3.73726 16.9412 4.41552C16.9722 5.09392 16.8724 5.72491 16.6418 6.30851C16.4157 6.89672 16.0727 7.41497 15.6128 7.86328L14.1158 9.32252C13.8491 9.58254 13.634 9.87744 13.4706 10.2072C13.3116 10.5416 13.2067 10.895 13.156 11.2673C13.1143 11.6398 13.1292 12.0245 13.2005 12.4214C13.2763 12.8229 13.4158 13.2162 13.6188 13.6014C13.2364 13.3911 12.8463 13.2421 12.4486 13.1544C12.0599 13.0668 11.6772 13.0408 11.3003 13.0762C10.9326 13.1118 10.5798 13.2045 10.2421 13.3543C9.90892 13.5087 9.60895 13.7159 9.34221 13.976L7.83838 15.4419C7.37849 15.8902 6.85232 16.2193 6.25985 16.4291C5.67185 16.6435 5.04043 16.7253 4.36558 16.6745C3.6952 16.6284 2.99059 16.4407 2.25175 16.1114C1.51738 15.7868 0.776173 15.3073 0.0281372 14.6731L0.528168 13.486C1.2176 13.7827 1.91715 13.8498 2.62682 13.6872C3.33636 13.5337 4.01305 13.1431 4.6569 12.5155L5.48469 11.7086Z" fill="#DAD6D1"/>
<path d="M17.7589 22.6706C18.0256 22.4105 18.2385 22.1133 18.3975 21.7789C18.5609 21.4492 18.6635 21.098 18.7051 20.7256C18.7558 20.3532 18.7432 19.9708 18.6673 19.5784C18.5959 19.1815 18.4611 18.7883 18.2627 18.3986C18.6404 18.6134 19.0259 18.7624 19.4192 18.8454C19.8125 18.9285 20.193 18.9522 20.5608 18.9166C20.9376 18.8812 21.2926 18.7862 21.6259 18.6318C21.9636 18.482 22.2658 18.2771 22.5325 18.0171L24.0294 16.5579C24.4893 16.1096 25.0133 15.7782 25.6013 15.5638C26.1937 15.354 26.8274 15.2745 27.5022 15.3253C28.1817 15.3716 28.8886 15.557 29.623 15.8817C30.3618 16.2109 31.1052 16.6927 31.8533 17.3269L31.3396 18.5138C30.6548 18.2126 29.9553 18.141 29.2412 18.299C28.5361 18.4571 27.8617 18.8499 27.2178 19.4776L26.39 20.2845C26.0037 20.6611 25.5869 20.9508 25.1396 21.1536C24.7014 21.3565 24.2439 21.4841 23.7671 21.5363C23.2947 21.5931 22.8076 21.5746 22.3056 21.4809C21.8082 21.3918 21.3093 21.2412 20.8091 21.0292C21.0058 21.5371 21.1413 22.0418 21.2157 22.5434C21.2945 23.0496 21.2988 23.5388 21.2285 24.0109C21.1627 24.4877 21.02 24.9452 20.8006 25.3834C20.5902 25.8216 20.2919 26.2291 19.9056 26.6057L19.0778 27.4126C18.434 28.0402 18.0231 28.7054 17.8452 29.4081C17.6671 30.1198 17.7159 30.8258 17.9914 31.5259L16.8012 32C16.1911 31.2313 15.7328 30.4716 15.4262 29.7209C15.1242 28.9749 14.9576 28.2627 14.9266 27.5843C14.8956 26.9059 14.9932 26.2726 15.2193 25.6844C15.4499 25.1008 15.7951 24.5848 16.255 24.1365L17.7589 22.6706Z" fill="#DAD6D1"/>
<path d="M29.8669 4.15437L30.0444 4.30675L28.9371 9.03903C28.3285 11.6464 27.7706 13.8644 27.703 13.966C27.3987 14.4316 26.2406 14.7533 25.8603 14.4824C25.7166 14.3724 25.7504 14.203 26.5365 10.8168C26.9929 8.86972 27.3818 7.21892 27.4071 7.15966C27.424 7.1004 26.5957 7.90464 25.556 8.94591C24.5162 9.98718 23.1722 11.257 22.5721 11.765C17.0608 16.4549 11.0254 19.7904 4.13633 21.9491C2.95292 22.3216 2.33586 22.3893 2.11609 22.1607C1.95548 21.9999 1.95548 22.0083 2.09918 21.7205C2.26824 21.3988 2.71624 21.1702 3.925 20.8147C10.0787 18.9946 16.5959 15.329 21.5915 10.8845C23.223 9.42845 25.8011 6.77871 25.4545 6.91416C25.1756 7.02421 23.6541 7.30358 22.4199 7.47289C20.9829 7.67606 20.6617 7.63374 20.6617 7.23585C20.6617 6.77871 21.4056 6.35543 22.3523 6.26231C25.0488 5.99141 26.5111 5.58506 27.8213 4.7131C28.9202 3.99353 29.4781 3.84114 29.8669 4.15437Z" fill="#28868B"/>
</svg>
