<svg width="55" height="12" viewBox="0 0 55 12" fill="none" xmlns="http://www.w3.org/2000/svg">
<path d="M0.075541 10.6281L0.74282 10.5148V5.78085L0 5.55423V4.5722L2.29141 4.29522L2.39213 4.34558L2.64393 4.6981V5.32761C2.91252 5.05062 3.30702 4.81561 3.82741 4.62256C4.3478 4.42112 4.79266 4.32039 5.16197 4.32039C5.61521 4.32039 5.98033 4.39594 6.25731 4.54702C6.54269 4.6981 6.75672 4.93312 6.89941 5.25207C7.18479 4.98348 7.54151 4.76105 7.96957 4.58479C8.40603 4.40853 8.84669 4.32039 9.29154 4.32039C10.0302 4.32039 10.559 4.53443 10.8779 4.96249C11.2052 5.39056 11.3689 6.09141 11.3689 7.06505V10.5148L12.1243 10.6281V11.459H8.71239V10.6281L9.27895 10.5148V7.11541C9.27895 6.51108 9.20761 6.09141 9.06492 5.85639C8.93062 5.62138 8.67882 5.50387 8.30951 5.50387C7.92341 5.50387 7.52053 5.66754 7.10085 5.99489C7.15121 6.30544 7.17639 6.66217 7.17639 7.06505V10.5148L7.88144 10.6281V11.459H4.44433V10.6281L5.07384 10.5148V7.07764C5.07384 6.48171 5.00669 6.07043 4.87239 5.8438C4.74649 5.61718 4.50308 5.50387 4.14216 5.50387C3.90715 5.50387 3.67213 5.55843 3.43711 5.66754C3.21049 5.76826 3.01325 5.89417 2.84538 6.04525V10.5148L3.52525 10.6281V11.459H0.075541V10.6281Z" fill="#DAD6D1"/>
<path d="M12.7591 9.44459C12.7591 8.70597 13.1326 8.13941 13.8796 7.74492C14.635 7.35043 15.6254 7.14899 16.8509 7.14059V6.88879C16.8509 6.58663 16.8173 6.34741 16.7501 6.17115C16.683 5.99489 16.5613 5.86479 16.385 5.78085C16.2088 5.68853 15.9486 5.64236 15.6044 5.64236C15.1931 5.64236 14.8238 5.69272 14.4965 5.79344C14.1775 5.88577 13.8418 6.01167 13.4893 6.17115L13.0612 5.26466C13.1955 5.15554 13.4137 5.02544 13.7159 4.87436C14.0181 4.71489 14.379 4.58059 14.7987 4.47148C15.2267 4.35397 15.6716 4.29522 16.1332 4.29522C16.8047 4.29522 17.3293 4.38335 17.707 4.55961C18.0931 4.73587 18.3659 5.00866 18.5253 5.37797C18.6932 5.74728 18.7771 6.25089 18.7771 6.88879V10.6281H19.4318V11.4212C19.2388 11.4632 18.9702 11.5052 18.6261 11.5471C18.2819 11.5891 17.9882 11.6101 17.7448 11.6101C17.4258 11.6101 17.2118 11.5639 17.1027 11.4716C17.0019 11.3793 16.9516 11.1946 16.9516 10.9176V10.6281C16.7417 10.8799 16.4606 11.1065 16.108 11.3079C15.7555 11.501 15.3484 11.5975 14.8868 11.5975C14.4923 11.5975 14.1314 11.5136 13.804 11.3457C13.4851 11.1694 13.2291 10.9218 13.036 10.6029C12.8514 10.2755 12.7591 9.88944 12.7591 9.44459ZM15.8688 10.4392C16.0199 10.4392 16.1878 10.3972 16.3724 10.3133C16.5571 10.221 16.7166 10.1119 16.8509 9.98597V7.98413C16.1962 7.98413 15.7093 8.10164 15.3904 8.33666C15.0798 8.57167 14.9246 8.87384 14.9246 9.24315C14.9246 9.62085 15.0085 9.91462 15.1764 10.1245C15.3442 10.3343 15.575 10.4392 15.8688 10.4392Z" fill="#DAD6D1"/>
<path d="M20.8207 5.78085L20.0779 5.55423V4.5722L22.3693 4.29522H22.4071L22.7344 4.55961V5.02544L22.7218 5.31502C23.0156 5.03803 23.3891 4.80302 23.8423 4.60997C24.2956 4.41692 24.7698 4.32039 25.265 4.32039C25.7686 4.32039 26.1631 4.41272 26.4485 4.59738C26.7423 4.77364 26.9521 5.05902 27.078 5.45351C27.2123 5.848 27.2794 6.38518 27.2794 7.06505V10.5148L27.9845 10.6155V11.459H24.56V10.6281L25.1769 10.5148V7.07764C25.1769 6.67476 25.1475 6.3642 25.0888 6.14597C25.0384 5.91935 24.9461 5.75567 24.8118 5.65495C24.6775 5.55423 24.4844 5.50387 24.2326 5.50387C23.8465 5.50387 23.4101 5.68433 22.9232 6.04525V10.5148L23.6157 10.6281V11.459H20.1282V10.6281L20.8207 10.5148V5.78085Z" fill="#DAD6D1"/>
<path d="M29.6515 5.51646H28.6695V4.73587L29.6515 4.48407V3.95528C29.6515 3.39292 29.8026 2.88092 30.1048 2.41928C30.4069 1.95764 30.8098 1.59253 31.3134 1.32394C31.8254 1.05535 32.3752 0.921051 32.9627 0.921051C33.2733 0.921051 33.5545 0.963018 33.8063 1.04695V2.87253C33.7139 2.77181 33.5335 2.67528 33.2649 2.58295C32.9963 2.48223 32.7319 2.43187 32.4717 2.43187C32.1947 2.43187 31.9975 2.50321 31.88 2.6459C31.7625 2.78859 31.7037 3.02361 31.7037 3.35095V4.47148H33.2145V5.51646H31.7037V10.5148L32.9753 10.6281V11.459H28.6821V10.6281L29.6515 10.5148V5.51646Z" fill="#DAD6D1"/>
<path d="M34.034 10.6281L34.802 10.5148V5.78085L34.0592 5.55423V4.5722L36.1491 4.29522H36.1869L36.5394 4.55961V4.86177L36.5016 5.90676H36.5394C36.5982 5.71371 36.7325 5.49128 36.9423 5.23948C37.1521 4.97928 37.4165 4.75685 37.7355 4.5722C38.0628 4.37915 38.4153 4.28262 38.7931 4.28262C39.0113 4.28262 39.1791 4.312 39.2967 4.37076V6.56144C39.1624 6.46072 39.0155 6.38099 38.856 6.32223C38.7049 6.26348 38.5077 6.2341 38.2643 6.2341C37.9621 6.2341 37.6893 6.27607 37.4459 6.36C37.2025 6.43554 37.0094 6.52367 36.8668 6.6244V10.5148L38.2517 10.6407V11.459H34.034V10.6281Z" fill="#DAD6D1"/>
<path d="M43.3188 11.5975C42.1689 11.5975 41.317 11.2744 40.763 10.6281C40.209 9.97338 39.9321 9.08367 39.9321 7.95895C39.9321 7.19515 40.0748 6.53626 40.3601 5.9823C40.6455 5.42833 41.0442 5.00866 41.5562 4.72328C42.0766 4.42951 42.6851 4.28262 43.3818 4.28262C44.2631 4.28262 44.9346 4.50505 45.3962 4.9499C45.8662 5.39476 46.1096 6.02426 46.1264 6.83843C46.1264 7.37561 46.0887 7.80787 46.0131 8.13521H42.0724C42.1144 8.84866 42.2864 9.39423 42.5886 9.77194C42.8992 10.1412 43.3314 10.3259 43.8854 10.3259C44.1959 10.3259 44.5191 10.2755 44.8548 10.1748C45.199 10.0657 45.4759 9.944 45.6858 9.80971L46.0383 10.5777C45.8201 10.8211 45.4466 11.0519 44.9178 11.2702C44.3974 11.4884 43.8644 11.5975 43.3188 11.5975ZM44.1246 7.30426L44.1372 6.77548C44.1372 6.24669 44.0658 5.8438 43.9231 5.56682C43.7805 5.28984 43.5371 5.15135 43.1929 5.15135C42.8404 5.15135 42.5676 5.30662 42.3746 5.61718C42.1815 5.91935 42.0766 6.48171 42.0598 7.30426H44.1246Z" fill="#DAD6D1"/>
<path d="M49.648 11.5975C48.8423 11.5975 48.1876 11.3079 47.684 10.7288C47.1804 10.1496 46.9286 9.28092 46.9286 8.12262C46.9286 7.42597 47.0712 6.78807 47.3566 6.20892C47.6504 5.62138 48.0785 5.15554 48.6408 4.81141C49.2116 4.45889 49.8998 4.28262 50.7056 4.28262C50.949 4.28262 51.2008 4.312 51.461 4.37076V2.36892L50.2524 2.19266V1.38689L53.0348 1.13508H53.0977L53.4754 1.43725V10.6155H54.1301V11.4212C53.4838 11.5471 52.9467 11.6101 52.5186 11.6101C52.2248 11.6101 52.0108 11.5597 51.8765 11.459C51.7506 11.3667 51.6876 11.182 51.6876 10.9051V10.5903C51.4862 10.8841 51.1966 11.1275 50.8189 11.3205C50.4412 11.5052 50.0509 11.5975 49.648 11.5975ZM50.4034 10.4644C50.6385 10.4644 50.8441 10.4182 51.0204 10.3259C51.205 10.2252 51.3519 10.1077 51.461 9.97338V5.41574C51.4023 5.3402 51.2932 5.27725 51.1337 5.22689C50.9826 5.17653 50.8189 5.15135 50.6427 5.15135C50.1726 5.15135 49.7991 5.37797 49.5221 5.83121C49.2451 6.27607 49.1067 7.0063 49.1067 8.0219C49.1067 8.85285 49.2242 9.46977 49.4592 9.87266C49.6942 10.2671 50.009 10.4644 50.4034 10.4644Z" fill="#DAD6D1"/>
</svg>
