<svg width="52" height="48" viewBox="0 0 52 48" fill="none" xmlns="http://www.w3.org/2000/svg">
<path d="M50.9432 31.3826L23.3163 3.75627C23.0148 3.45526 22.6069 3.28586 22.1822 3.28586H12.0671C11.3386 2.35987 10.359 1.56631 9.20801 0.994899C6.43525 -0.382601 3.31115 -0.155542 1.60946 1.545C1.29519 1.85969 1.03659 2.21814 0.840547 2.61199C0.212949 3.87627 0.277495 5.37827 1.02196 6.84047C1.74022 8.25077 3.01317 9.46325 4.60875 10.2546C5.3246 10.6099 6.06354 10.8565 6.79474 11.0013V18.6717C6.79537 19.0967 6.96425 19.5057 7.26516 19.806L34.8916 47.4323C35.5183 48.0595 36.5338 48.0595 37.1604 47.4323L50.9432 33.6502C51.5691 33.0255 51.5691 32.0099 50.9432 31.3826ZM7.26516 3.75627C6.96425 4.05717 6.79527 4.46554 6.79527 4.89021V9.91131C6.22396 9.77982 5.64733 9.57772 5.08501 9.29771C3.69414 8.60723 2.58976 7.56301 1.97522 6.35607C1.38814 5.2026 1.32548 4.04171 1.79892 3.08856C1.94305 2.79905 2.13261 2.53418 2.36531 2.30211C3.74668 0.921057 6.36381 0.778179 8.73101 1.95389C9.45115 2.31161 10.0923 2.76563 10.6315 3.28638H8.3992C7.97391 3.28575 7.56679 3.45526 7.26516 3.75627ZM10.7945 7.28613C11.2245 6.85614 11.7573 6.59378 12.3151 6.49592C12.3642 7.08894 12.2693 7.65534 12.0172 8.16272C11.8736 8.45318 11.6829 8.71805 11.4502 8.94991C11.0588 9.34189 10.5652 9.63015 10.0075 9.82097C9.84375 8.92913 10.105 7.97504 10.7945 7.28613ZM14.8282 11.3192C13.7139 12.4332 11.9085 12.4332 10.7945 11.3192C10.6384 11.1624 10.5056 10.9918 10.3939 10.8115C11.0889 10.5701 11.71 10.2028 12.2067 9.70618C12.5209 9.39129 12.7795 9.03294 12.9756 8.63909C13.3022 7.98099 13.437 7.25835 13.3901 6.51106C13.9167 6.61979 14.4192 6.87713 14.8276 7.28613C15.9422 8.39918 15.9422 10.2052 14.8282 11.3192Z" fill="#F4CF1C"/>
</svg>
