<svg width="26" height="28" viewBox="0 0 26 28" fill="none" xmlns="http://www.w3.org/2000/svg">
<path d="M8.46199 2.48641L8.15864 2.92977L7.97974 3.10867C7.8864 3.29534 7.77751 3.47165 7.65306 3.63758C7.25896 4.19761 7.0308 4.51911 6.96858 4.60208C6.90635 4.68504 6.84931 4.76283 6.79746 4.83542C6.75079 4.9132 6.71708 4.95209 6.69634 4.95209C6.66004 4.99876 6.62634 5.03765 6.59523 5.06877C6.57448 5.09988 6.55634 5.1284 6.54078 5.15433C6.53559 5.18025 6.533 5.1984 6.533 5.20877C6.53819 5.22433 6.55115 5.23211 6.57189 5.23211C6.62375 5.24248 6.77412 5.18025 7.02303 5.04543C7.21489 4.97802 7.37564 4.90024 7.50527 4.81209C7.57787 4.76023 7.69973 4.68504 7.87085 4.58652C8.01604 4.51392 8.15345 4.44392 8.28309 4.37651C8.40754 4.32466 8.52681 4.25724 8.64089 4.17428C8.76015 4.08612 8.82497 4.03686 8.83534 4.02649C8.85608 4.01612 8.89238 4.00056 8.94423 3.97982C9.14647 3.8813 9.28647 3.79315 9.36426 3.71536C9.44722 3.6324 9.54575 3.55462 9.65983 3.48202C9.78946 3.35238 9.99947 3.21497 10.2899 3.06978C10.3002 3.05941 10.378 3.01274 10.5232 2.92977C10.6736 2.84162 10.8214 2.77161 10.9666 2.71976C11.2673 2.58494 11.5655 2.58753 11.861 2.72754C11.9751 2.78976 12.084 2.87273 12.1877 2.97644C12.2966 3.08533 12.3563 3.17089 12.3666 3.23312C12.3822 3.30053 12.3485 3.3809 12.2655 3.47424C12.224 3.49498 12.167 3.53647 12.0944 3.59869L11.1066 4.10427L10.7488 4.25984L10.4688 4.35318C10.4584 4.36355 10.4143 4.38169 10.3365 4.40762L10.0021 4.58652C9.91391 4.65393 9.8491 4.69282 9.80761 4.70319L9.23981 5.00654C9.19832 5.00654 9.11795 5.05062 8.99868 5.13877C8.81719 5.23729 8.68237 5.29952 8.59422 5.32545C8.45421 5.39286 8.36346 5.44731 8.32198 5.48879C8.2805 5.53027 8.2079 5.57694 8.10419 5.6288C8.00567 5.67547 7.94604 5.6988 7.92529 5.6988C7.91492 5.6988 7.87085 5.72213 7.79307 5.7688C7.71528 5.81547 7.64528 5.86992 7.58305 5.93214C7.55194 5.92177 7.4949 5.95807 7.41193 6.04104C7.31341 6.07734 7.19674 6.15253 7.06192 6.26661C6.98932 6.28735 6.90635 6.3392 6.81301 6.42217C6.56411 6.56736 6.34114 6.65551 6.14409 6.68663C5.95223 6.71255 5.76555 6.6607 5.58406 6.53106C5.3922 6.4118 5.28331 6.3029 5.25738 6.20438C5.23145 6.18882 5.20293 6.14993 5.17182 6.08771C5.14589 6.06178 5.13293 6.03845 5.13293 6.0177C5.09663 5.98141 5.06293 5.90103 5.03181 5.77658C4.99551 5.6988 4.97737 5.61324 4.97737 5.5199C4.98774 5.42656 5.0007 5.32026 5.01626 5.201C5.03181 5.1647 5.05255 5.08173 5.07848 4.95209C5.19775 4.80172 5.25738 4.7006 5.25738 4.64875C5.27294 4.61245 5.2859 4.58911 5.29627 4.57874L5.43628 4.3454C5.43628 4.35577 5.43109 4.37132 5.42072 4.39207C5.56073 4.23132 5.68259 4.10427 5.7863 4.01094C5.81741 3.93834 5.89519 3.86056 6.01964 3.77759C6.10261 3.69462 6.16743 3.61425 6.2141 3.53647C6.30225 3.33423 6.37225 3.20201 6.42411 3.13978C6.48115 3.08274 6.56411 2.98422 6.67301 2.84421C6.80783 2.70939 6.91932 2.58753 7.00747 2.47864L7.62194 1.5997C7.75677 1.40265 7.83973 1.29376 7.87085 1.27302C7.90714 1.24709 7.92529 1.22894 7.92529 1.21857C7.93566 1.2082 7.95122 1.18746 7.97196 1.15635C7.99789 1.13042 8.029 1.09412 8.0653 1.04745C8.11197 0.928186 8.15864 0.840033 8.20531 0.782993C8.47495 0.139997 8.76534 -0.077792 9.07646 0.129626C9.11795 0.150368 9.19054 0.212593 9.29425 0.316302C9.40315 0.425197 9.46797 0.500386 9.48871 0.541869C9.51463 0.578168 9.53538 0.635208 9.55093 0.712989C9.5976 0.904851 9.39278 1.2808 8.93646 1.84082C8.7083 2.15195 8.57866 2.32826 8.54755 2.36974C8.52681 2.41122 8.49829 2.45011 8.46199 2.48641Z" fill="#1E2F38"/>
<path d="M11.2608 7.432C11.3593 7.37496 11.4552 7.27384 11.5486 7.12865C11.5434 7.06124 11.5097 6.99642 11.4475 6.93419C11.3697 6.85641 11.2271 6.859 11.0197 6.94197C10.8123 6.98345 10.6126 7.05864 10.4208 7.16754L10.413 7.15976C10.1381 7.32051 9.99295 7.40866 9.9774 7.42422C10.0396 7.52793 10.0967 7.60571 10.1485 7.65756C10.2056 7.70423 10.2937 7.73534 10.413 7.7509C10.6463 7.75609 10.9289 7.64978 11.2608 7.432ZM10.1174 8.52872L9.80628 8.26426C9.64553 8.10351 9.53404 7.96091 9.47181 7.83646L9.34736 8.00758C8.93253 8.45353 8.76919 8.8554 8.85734 9.2132C8.89364 9.30135 8.93253 9.36617 8.97401 9.40765C9.01549 9.44914 9.09068 9.48284 9.19958 9.50877C9.24106 9.50877 9.28773 9.4984 9.33958 9.47766C9.39144 9.43617 9.43811 9.44136 9.47959 9.49321C9.96184 9.43617 10.2289 9.49062 10.2807 9.65655C10.317 9.83804 10.3144 9.94953 10.273 9.99101C10.2522 10.0118 10.2159 10.0221 10.1641 10.0221L10.1174 10.0688C10.0655 10.1207 9.9385 10.1803 9.73627 10.2477C9.53922 10.3203 9.35773 10.367 9.1918 10.3877C9.07772 10.4292 8.9766 10.437 8.88845 10.411C8.61881 10.3488 8.40102 10.214 8.23508 10.0066C8.19879 9.9599 8.18064 9.92101 8.18064 9.8899C8.14952 9.83804 8.121 9.80434 8.09508 9.78878L8.04063 9.71878C7.99396 9.67211 7.96544 9.62285 7.95507 9.57099C7.93433 9.48803 7.91359 9.43617 7.89284 9.41543C7.80988 9.22875 7.7658 9.1069 7.76061 9.04986C7.76061 8.998 7.75543 8.95652 7.74506 8.9254C7.73469 8.89429 7.73987 8.79058 7.76062 8.61428C7.75024 8.48983 7.74765 8.41464 7.75284 8.38871C7.76839 8.31093 7.77358 8.2487 7.76839 8.20203C7.76839 8.16055 7.8021 8.10092 7.86951 8.02314C7.8747 7.97647 7.89803 7.93239 7.93951 7.89091L7.97063 7.79757C8.00692 7.76127 8.01989 7.71719 8.00952 7.66534C8.00952 7.60311 8.03285 7.54867 8.07952 7.502L8.14175 7.43977C8.13137 7.40866 8.1573 7.37236 8.21953 7.33088L8.42176 7.12865L8.48399 7.05086L8.53843 6.99642C8.55399 6.97049 8.60325 6.9316 8.68622 6.87975L8.74844 6.80196C8.75881 6.80196 8.80808 6.76826 8.89623 6.70085C9.02587 6.61269 9.11661 6.56862 9.16846 6.56862L9.23847 6.49861C9.25921 6.48824 9.28254 6.47009 9.30847 6.44417C9.3344 6.41824 9.3681 6.39491 9.40959 6.37416C9.45626 6.35861 9.61441 6.28342 9.88406 6.1486L10.2807 6.00081C10.3948 5.95933 10.5374 5.93081 10.7085 5.91525C10.7397 5.89451 10.8071 5.86858 10.9108 5.83747L11.1052 5.84525C11.183 5.82969 11.2634 5.84265 11.3464 5.88414C11.4552 5.92044 11.5278 5.95673 11.5641 5.99303L11.813 6.17971C11.8338 6.21082 11.8493 6.23156 11.8597 6.24193L11.9608 6.34305C12.0645 6.4675 12.1345 6.58417 12.1708 6.69307C12.2797 6.8953 12.3342 7.06901 12.3342 7.21421C12.3134 7.55645 12.2201 7.81053 12.0542 7.97647C11.8882 8.1424 11.7197 8.25907 11.5486 8.32649C11.1234 8.49242 10.8434 8.58576 10.7085 8.6065C10.4441 8.68428 10.247 8.65835 10.1174 8.52872Z" fill="#1E2F38"/>
<path d="M12.5044 9.0645C12.5511 9.01783 12.6003 8.9582 12.6522 8.8856L12.7066 8.83115C12.7481 8.80004 12.7844 8.75856 12.8155 8.7067C12.8674 8.65485 12.9192 8.61337 12.9711 8.58225C13.0748 8.47854 13.1552 8.4241 13.2122 8.41891C13.2381 8.39298 13.3341 8.36965 13.5 8.34891C13.5415 8.34891 13.6141 8.35409 13.7178 8.36446C13.8267 8.4215 13.8993 8.46299 13.9356 8.48892C13.9771 8.48892 14.0393 8.5667 14.1223 8.72226C14.1689 8.7793 14.2311 8.87782 14.3089 9.01783C14.3349 9.0645 14.34 9.15265 14.3245 9.28229C14.2934 9.29266 14.1974 9.35229 14.0367 9.46119C13.8863 9.57008 13.7722 9.66861 13.6945 9.75676C13.7515 9.76194 13.8604 9.76194 14.0211 9.75676C14.1819 9.75157 14.2674 9.74898 14.2778 9.74898C14.4749 9.82158 14.6512 9.90973 14.8067 10.0134C15.009 10.1846 15.1179 10.3194 15.1334 10.4179C15.1645 10.4801 15.1775 10.5398 15.1723 10.5968C15.1775 10.685 15.1438 10.7964 15.0712 10.9313C15.0038 11.0609 14.939 11.1205 14.8767 11.1102C14.8197 11.105 14.6952 11.022 14.5034 10.8613C14.493 10.8509 14.436 10.8353 14.3323 10.8146L13.6089 10.729C13.4844 10.6875 13.3911 10.6668 13.3289 10.6668L12.9089 10.7913C12.8933 10.7964 12.8207 10.8587 12.6911 10.9779C12.5614 11.0972 12.4707 11.1879 12.4188 11.2502C12.3722 11.3072 12.1984 11.4809 11.8977 11.7713L11.5632 12.1058C11.3817 12.2873 11.2754 12.3884 11.2443 12.4091C11.208 12.435 11.1354 12.4662 11.0265 12.5025C10.9851 12.5128 10.9228 12.4765 10.8399 12.3936C10.4873 12.3417 10.3654 12.2043 10.4743 11.9813L10.4354 11.818C10.4147 11.7557 10.4147 11.7039 10.4354 11.6624C10.451 11.5639 10.4639 11.5094 10.4743 11.4991L10.5521 11.3591L10.5987 11.2191C10.5884 11.1983 10.6739 11.0868 10.8554 10.8846C11.0421 10.6772 11.1562 10.5527 11.1977 10.5112C11.2443 10.4646 11.2884 10.4101 11.3299 10.3479C11.4025 10.3479 11.4803 10.3012 11.5632 10.2079C11.6514 10.1197 11.7136 10.0471 11.7499 9.9901C11.7914 9.92788 11.8225 9.89676 11.8432 9.89676C11.8692 9.89158 11.9392 9.81639 12.0533 9.6712C12.0584 9.6349 12.0947 9.59342 12.1622 9.54675L12.5044 9.0645Z" fill="#1E2F38"/>
<path d="M15.0233 11.739C15.0803 11.6716 15.2022 11.5549 15.3889 11.389L15.7078 11.1789L16.1978 11.0001L16.4778 10.9689C16.5193 10.9275 16.7112 11.0052 17.0534 11.2023L17.0612 11.2101C17.1234 11.2619 17.2064 11.3553 17.3101 11.4901C17.419 11.6301 17.4864 11.8012 17.5123 12.0034C17.5434 12.2005 17.5512 12.3483 17.5357 12.4468C17.4268 12.7735 17.2712 13.0224 17.069 13.1935C17.0171 13.2454 16.929 13.2816 16.8045 13.3024C16.7889 13.3076 16.7345 13.2842 16.6412 13.2324C16.5478 13.1805 16.4856 13.1235 16.4545 13.0613C16.4286 12.9939 16.4052 12.9083 16.3845 12.8046C16.3637 12.7009 16.4 12.6075 16.4934 12.5246C16.4986 12.426 16.5556 12.3483 16.6645 12.2912C16.7371 12.2394 16.776 12.1849 16.7812 12.1279L16.7267 11.9957C16.6852 11.9749 16.6075 11.9905 16.4934 12.0423C16.3845 12.0994 16.2704 12.1875 16.1511 12.3068C15.9333 12.5246 15.7907 12.7761 15.7233 13.0613C15.7026 13.1546 15.6974 13.2842 15.7078 13.4502L15.6767 13.7613L15.6922 14.1502L15.6378 14.5002C15.6378 14.5728 15.6067 14.7025 15.5444 14.8891C15.4926 15.0758 15.4174 15.2184 15.3189 15.3169C15.2255 15.4103 15.0778 15.501 14.8755 15.5892L14.7044 15.6203C14.694 15.6307 14.6318 15.6358 14.5177 15.6358C14.2066 15.6358 13.9421 15.5632 13.7243 15.4181L13.6699 15.3636C13.4832 15.2184 13.3225 15.0525 13.1877 14.8658L13.0088 14.5625C12.9828 14.5365 12.9647 14.4976 12.9543 14.4458C12.9388 14.3991 12.9232 14.3576 12.9076 14.3213C12.8662 14.1243 12.8558 13.9895 12.8765 13.9169C12.8662 13.8754 12.9206 13.7846 13.0399 13.6446C13.0814 13.5305 13.1954 13.432 13.3821 13.3491C13.4599 13.2713 13.5273 13.2194 13.5843 13.1935C13.7969 13.1779 13.9499 13.2791 14.0433 13.4968C14.0744 13.5694 14.0588 13.6369 13.9966 13.6991C13.981 13.7146 13.9344 13.7769 13.8566 13.8858C13.7892 13.9946 13.7373 14.1087 13.701 14.228C13.6647 14.3473 13.6829 14.4432 13.7555 14.5158C13.8281 14.5884 13.9318 14.6351 14.0666 14.6558C14.3103 14.578 14.4399 14.5313 14.4555 14.5158L14.5799 14.4224C14.6681 14.355 14.7251 14.2513 14.7511 14.1113C14.7977 14.0335 14.8237 13.935 14.8288 13.8158L14.8833 13.528L14.8755 13.3024C14.86 13.2765 14.8366 13.1702 14.8055 12.9835C14.8159 12.9627 14.8237 12.8979 14.8288 12.789C14.834 12.6801 14.8548 12.5609 14.8911 12.4312C14.9326 12.2964 14.9507 12.159 14.9455 12.019C14.9766 11.9775 15.0026 11.8842 15.0233 11.739Z" fill="#1E2F38"/>
<path d="M20.7886 11.8729C20.799 11.8729 20.856 11.9144 20.9598 11.9974C21.1361 12.1218 21.2294 12.2359 21.2398 12.3396C21.2605 12.4433 21.2579 12.5341 21.232 12.6118C21.0764 12.7881 20.8379 12.98 20.5164 13.1874C20.2882 13.3015 20.1119 13.3793 19.9875 13.4208L19.793 13.4597C19.736 13.4856 19.6582 13.496 19.5597 13.4908C19.4612 13.4856 19.3989 13.47 19.373 13.4441C19.3574 13.4182 19.3367 13.3611 19.3108 13.273C19.2952 13.1848 19.29 13.1278 19.2952 13.1019C19.3056 13.0811 19.3186 13.0578 19.3341 13.0319L19.4508 12.8374L19.4897 12.4874C19.5208 12.394 19.5675 12.3163 19.6297 12.254C19.7593 12.0933 19.889 12 20.0186 11.974C20.029 11.9637 20.0627 11.9455 20.1197 11.9196C20.2597 11.8314 20.4827 11.8159 20.7886 11.8729ZM17.0629 15.132C17.1096 15.0853 17.1796 15.0308 17.2729 14.9686C17.3766 14.9064 17.4388 14.8545 17.4596 14.8131C17.4855 14.7768 17.5737 14.6886 17.724 14.5486C17.8018 14.5019 17.8744 14.4345 17.9418 14.3464C18.0196 14.196 18.0922 14.1027 18.1596 14.0664C18.227 14.0301 18.3178 14.0067 18.4318 13.9963C18.5511 13.9808 18.6548 13.9912 18.743 14.0275C18.8311 14.0638 18.9219 14.1597 19.0152 14.3153C19.0308 14.3619 19.0308 14.4656 19.0152 14.6264C19.0152 14.6575 18.9737 14.7353 18.8908 14.8597C18.813 14.9894 18.7145 15.119 18.5952 15.2486C18.4863 15.3783 18.3178 15.5624 18.0896 15.8009C17.8666 16.0342 17.5685 16.3531 17.1951 16.7576C16.8269 17.1569 16.591 17.398 16.4873 17.481C16.3888 17.5691 16.2851 17.6054 16.1762 17.5899C16.0673 17.5847 16.0051 17.5432 15.9895 17.4654C15.9739 17.398 15.948 17.3358 15.9117 17.2787C15.8287 17.1958 15.7899 17.0895 15.795 16.9598C15.7795 16.9339 15.7536 16.8613 15.7173 16.742C15.6861 16.6176 15.7199 16.4854 15.8184 16.3454C15.8443 16.2676 16.0051 16.0913 16.3006 15.8164L16.5806 15.5364L16.884 15.3109L17.0629 15.132Z" fill="#1E2F38"/>
<path d="M24.1143 14.9808L24.231 15.113C24.2932 15.2893 24.3061 15.5045 24.2699 15.7586C24.2595 15.8519 24.1817 15.8623 24.0365 15.7897C24.0158 15.8001 23.9613 15.7975 23.8732 15.7819C23.6709 15.756 23.4635 15.7456 23.2509 15.7508C23.0383 15.756 22.8776 15.756 22.7687 15.7508C22.4524 15.8597 22.1775 15.8286 21.9442 15.6575C21.8768 15.5901 21.8405 15.4915 21.8353 15.3619C21.8405 15.2323 21.9234 15.1182 22.0842 15.0197C22.1931 14.9626 22.4135 14.9185 22.7453 14.8874C22.7609 14.8719 22.8698 14.846 23.072 14.8097C23.4402 14.763 23.7876 14.82 24.1143 14.9808ZM20.8008 17.3609C20.9719 17.1172 20.9667 16.9201 20.7852 16.7698C20.6867 16.6816 20.5441 16.6635 20.3574 16.7153C20.0826 16.8035 19.8052 16.9979 19.5252 17.2987C19.2555 17.5994 19.0688 17.8276 18.9651 17.9832C18.8718 18.1387 18.8148 18.2995 18.794 18.4654C18.7629 18.5795 18.7914 18.6754 18.8796 18.7532C19.0248 18.8984 19.2529 18.8828 19.5641 18.7065L19.813 18.5821C19.8648 18.5821 19.8959 18.5613 19.9063 18.5198C20.0878 18.4421 20.2693 18.3176 20.4508 18.1465C20.4352 18.0583 20.4378 17.9935 20.4585 17.952C20.5156 17.8328 20.5597 17.7576 20.5908 17.7265C20.5804 17.6642 20.6089 17.5942 20.6763 17.5165C20.7437 17.4387 20.7852 17.3868 20.8008 17.3609ZM18.6462 16.6686L19.074 16.3031C19.4681 15.9816 19.883 15.7845 20.3185 15.7119C20.7074 15.6756 21.0652 15.8156 21.3919 16.1319L21.4386 16.1786C21.7394 16.4794 21.8923 16.762 21.8975 17.0264C21.9286 17.2857 21.9105 17.5165 21.8431 17.7187C21.7808 17.9261 21.729 18.0713 21.6875 18.1543C21.646 18.2372 21.5682 18.3409 21.4542 18.4654C21.2415 18.6987 21.0704 18.7817 20.9408 18.7143C20.5208 19.2795 20.0852 19.6269 19.6341 19.7566C19.4629 19.824 19.2581 19.8784 19.0196 19.9199C18.8536 19.9407 18.6722 19.8629 18.4751 19.6866C18.2884 19.4999 18.1355 19.3262 18.0162 19.1654C17.9021 19.0099 17.8166 18.7947 17.7595 18.5198C17.7077 18.2398 17.7751 17.9391 17.9618 17.6176C18.1329 17.3013 18.361 16.985 18.6462 16.6686Z" fill="#1E2F38"/>
<path d="M21.8183 21.1319C21.9738 21.0696 22.1501 20.9918 22.3472 20.8985L22.9539 20.634L23.1561 20.5718C20.859 20.7637 20.8823 20.7611 23.2261 20.564L23.8484 20.3463C23.8795 20.3463 23.9262 20.3255 23.9884 20.284L24.494 20.1829L24.7895 20.1985C24.8362 20.214 24.8958 20.2218 24.9684 20.2218C24.9684 20.2425 25.0203 20.2737 25.124 20.3151C25.1707 20.3618 25.2562 20.4629 25.3807 20.6185L25.4818 20.8285L25.6218 21.3885C25.6218 21.5337 25.5751 21.6426 25.4818 21.7152C25.4144 21.7723 25.2147 21.9149 24.8829 22.143C24.6184 22.3245 24.3021 22.5216 23.9339 22.7342C23.6591 22.926 23.4776 23.0816 23.3895 23.2008C23.3013 23.3201 23.2495 23.3875 23.2339 23.4031C23.2132 23.4446 23.182 23.5016 23.1406 23.5742C23.1043 23.652 23.0783 23.6883 23.0628 23.6831C23.0939 23.7246 23.0861 23.7687 23.0394 23.8153C22.972 23.9657 22.9124 24.0513 22.8605 24.072C22.8087 24.1031 22.7309 24.1135 22.6272 24.1031C22.5287 24.0979 22.4094 24.0253 22.2694 23.8853C22.1968 23.792 22.1346 23.7194 22.0827 23.6675C22.0361 23.6209 21.9946 23.5431 21.9583 23.4342C21.9168 23.1749 21.9427 22.9779 22.0361 22.8431C22.0827 22.7445 22.1216 22.6745 22.1527 22.633C22.1838 22.5916 22.2072 22.563 22.2227 22.5475C22.3524 22.366 22.5157 22.2078 22.7128 22.073C22.7802 22.016 22.9305 21.9123 23.1639 21.7619C23.4024 21.6063 23.5995 21.4922 23.755 21.4196C23.8691 21.3056 23.9262 21.2433 23.9262 21.233L23.0317 21.5208C22.9176 21.5726 22.8268 21.6063 22.7594 21.6219C22.7076 21.6219 22.6635 21.64 22.6272 21.6763C22.5442 21.6763 22.4224 21.7204 22.2616 21.8086C22.2253 21.8449 22.1968 21.8682 22.1761 21.8786C22.1553 21.8889 22.0957 21.9071 21.9972 21.933C21.909 21.9589 21.8312 21.99 21.7638 22.0263C21.7016 22.0678 21.6134 22.0938 21.4994 22.1041C21.4786 22.1249 21.3386 22.1975 21.0793 22.3219C21.0534 22.3375 20.9808 22.3012 20.8616 22.213L20.7293 22.0497C20.7034 22.003 20.6438 21.8915 20.5504 21.7152C20.4571 21.5389 20.4026 21.443 20.3871 21.4274C20.3767 21.4171 20.3715 21.4015 20.3715 21.3808C20.3041 21.2719 20.3223 21.1448 20.426 20.9996L20.5504 20.8752C20.6075 20.87 20.6697 20.8129 20.7371 20.7041C20.7993 20.6626 20.8667 20.6107 20.9393 20.5485C20.9341 20.5226 20.9497 20.5018 20.986 20.4863C21.1623 20.3307 21.2842 20.2192 21.3516 20.1518L21.5383 19.9651C21.7197 19.8044 21.9168 19.6333 22.1294 19.4518C22.342 19.2703 22.4768 19.151 22.5339 19.094L22.6894 18.9384C22.705 18.9021 22.762 18.8399 22.8605 18.7517C22.9487 18.6428 22.9954 18.5702 23.0006 18.5339C23.0109 18.4925 23.042 18.451 23.0939 18.4095L23.2806 18.3317C23.4309 18.3473 23.5839 18.4743 23.7395 18.7128C23.8121 18.8165 23.8821 18.9903 23.9495 19.234C23.9443 19.2599 23.9365 19.3195 23.9262 19.4129C23.9573 19.444 23.9313 19.5062 23.8484 19.5996C23.7965 19.641 23.755 19.6773 23.7239 19.7084C23.7135 19.7084 23.5658 19.7992 23.2806 19.9807C22.4457 20.5874 21.9972 20.9218 21.9349 20.9841C21.8727 21.0463 21.8338 21.0956 21.8183 21.1319Z" fill="#1E2F38"/>
<path d="M5.39206 14.2431L5.78097 14.1031C5.87949 14.0564 5.9469 14.0098 5.9832 13.9631C6.02469 13.9216 6.05839 13.8879 6.08432 13.862C6.11025 13.836 6.13877 13.8023 6.16988 13.7609C6.20618 13.7142 6.22692 13.6571 6.2321 13.5897C6.24766 13.5223 6.24507 13.4679 6.22433 13.4264C6.21396 13.3849 6.18544 13.3097 6.13877 13.2008L5.97542 13.0219C5.85097 12.8353 5.70578 12.716 5.53985 12.6641C5.42577 12.7782 5.15872 12.9882 4.7387 13.2942L4.15533 13.7842L3.83643 14.0253C3.87272 14.0616 3.99458 14.1264 4.202 14.2198L4.40423 14.2353C4.43016 14.2509 4.55202 14.2587 4.76981 14.2587C4.80611 14.2742 4.86055 14.2768 4.93315 14.2664L5.10427 14.2509C5.11464 14.2716 5.16909 14.2742 5.26761 14.2587L5.39206 14.2431ZM2.41302 15.4176L2.2419 15.6198C2.21597 15.6872 2.14856 15.7547 2.03967 15.8221C1.93077 15.8895 1.86077 15.9543 1.82966 16.0165C1.74151 16.1047 1.69224 16.1591 1.68187 16.1799C1.72854 16.2265 1.81929 16.2758 1.95411 16.3277C2.09412 16.3847 2.17968 16.4236 2.21079 16.4443C2.2419 16.4651 2.29635 16.478 2.37413 16.4832C2.57118 16.5454 2.78378 16.6025 3.01194 16.6543L3.35418 16.6699C3.68605 16.6388 3.92199 16.6103 4.06199 16.5843L4.24867 16.491C4.46127 16.4132 4.53387 16.211 4.46646 15.8843C4.4872 15.7806 4.44312 15.6535 4.33423 15.5032L4.32645 15.4954C4.19682 15.262 4.11126 15.135 4.06977 15.1143L3.64975 14.8498C3.55641 14.8187 3.48382 14.7772 3.43196 14.7253C3.38529 14.6787 3.35677 14.6035 3.3464 14.4998L3.13639 14.7253C3.00157 14.7876 2.89527 14.8731 2.81749 14.982C2.74489 15.0961 2.61007 15.2413 2.41302 15.4176ZM1.37075 17.1444L1.30074 17.0744C1.23852 17.0329 1.14518 16.924 1.02073 16.7477C0.797753 16.4417 0.668117 16.1462 0.631819 15.861C0.626633 15.7728 0.626633 15.6639 0.631819 15.5343C0.647375 15.4046 0.668117 15.3269 0.694044 15.3009C0.719971 15.275 0.753677 15.2413 0.79516 15.1998C0.84183 15.1635 0.88072 15.1194 0.911833 15.0676L0.974058 15.0054C0.989615 14.9587 1.04665 14.9068 1.14518 14.8498C1.24889 14.7876 1.32148 14.7253 1.36297 14.6631C1.42001 14.5853 1.48483 14.505 1.55742 14.422C1.56261 14.3857 1.62743 14.3364 1.75188 14.2742C2.4934 13.6157 2.89786 13.2527 2.96527 13.1853L3.23751 12.9908C3.36714 12.8093 3.50715 12.6797 3.65753 12.6019L3.82865 12.4308C3.89606 12.353 4.12681 12.1637 4.52091 11.863C4.56239 11.78 4.57276 11.6296 4.55202 11.4118C4.55202 11.36 4.56498 11.2952 4.59091 11.2174C4.62202 11.1344 4.72055 11.0566 4.88648 10.984C4.95908 10.9737 5.11723 10.997 5.36095 11.0541C5.40243 11.0333 5.60207 11.1137 5.95987 11.2952L6.16988 11.3807C6.2684 11.4274 6.42397 11.5622 6.63657 11.7852C6.74028 11.92 6.81288 12.0393 6.85436 12.143C6.98918 12.5371 7.08511 12.9286 7.14215 13.3175C7.17845 13.416 7.18363 13.5042 7.15771 13.582C7.18882 13.7375 7.17326 13.9242 7.11104 14.142C7.05918 14.3598 7.02029 14.492 6.99437 14.5387C6.85436 14.7305 6.62879 14.9042 6.31766 15.0598C6.1621 15.1428 5.74208 15.2206 5.0576 15.2932C5.0939 15.3606 5.13797 15.4928 5.18983 15.6898C5.18464 15.7261 5.20279 15.8169 5.24428 15.9621C5.23909 15.988 5.23391 16.0191 5.22872 16.0554C5.22872 16.0969 5.22613 16.1306 5.22094 16.1565L5.24428 16.2576L5.20539 16.4521L5.22094 16.6699C5.22094 16.7736 5.20539 16.8721 5.17427 16.9655C5.17946 17.1158 5.16131 17.217 5.11983 17.2688L4.9876 17.4322C4.92537 17.484 4.66091 17.5929 4.19422 17.7588C4.0231 17.8159 3.86235 17.8314 3.71198 17.8055L3.4553 17.8288C3.3827 17.8392 3.27121 17.8314 3.12083 17.8055C2.97564 17.7848 2.84601 17.7744 2.73193 17.7744C2.69563 17.7588 2.63081 17.7407 2.53747 17.7199C2.44932 17.7044 2.32487 17.6681 2.16412 17.6111C2.00856 17.5592 1.90744 17.5203 1.86077 17.4944C1.72595 17.4218 1.56261 17.3051 1.37075 17.1444Z" fill="#1E2F38"/>
<path d="M8.07881 18.3922C8.17734 18.3351 8.27327 18.234 8.36661 18.0888C8.36142 18.0214 8.32771 17.9566 8.26549 17.8943C8.18771 17.8166 8.04511 17.8192 7.83769 17.9021C7.63027 17.9436 7.43063 18.0188 7.23877 18.1277L7.23099 18.1199C6.95616 18.2807 6.81097 18.3688 6.79541 18.3844C6.85764 18.4881 6.91468 18.5659 6.96653 18.6177C7.02357 18.6644 7.11173 18.6955 7.23099 18.7111C7.46434 18.7162 7.74694 18.6099 8.07881 18.3922ZM6.93542 19.4889L6.62429 19.2244C6.46355 19.0637 6.35206 18.9211 6.28983 18.7966L6.16538 18.9677C5.75055 19.4137 5.5872 19.8156 5.67536 20.1734C5.71166 20.2615 5.75055 20.3263 5.79203 20.3678C5.83351 20.4093 5.9087 20.443 6.0176 20.4689C6.05908 20.4689 6.10575 20.4586 6.1576 20.4378C6.20946 20.3963 6.25613 20.4015 6.29761 20.4534C6.77986 20.3963 7.04691 20.4508 7.09876 20.6167C7.13506 20.7982 7.13247 20.9097 7.09099 20.9512C7.07024 20.9719 7.03395 20.9823 6.98209 20.9823L6.93542 21.029C6.88357 21.0808 6.75652 21.1404 6.55429 21.2078C6.35724 21.2804 6.17575 21.3271 6.00982 21.3479C5.89574 21.3893 5.79462 21.3971 5.70647 21.3712C5.43683 21.309 5.21904 21.1741 5.0531 20.9667C5.01681 20.9201 4.99866 20.8812 4.99866 20.8501C4.96754 20.7982 4.93902 20.7645 4.9131 20.7489L4.85865 20.6789C4.81198 20.6323 4.78346 20.583 4.77309 20.5311C4.75235 20.4482 4.73161 20.3963 4.71086 20.3756C4.6279 20.1889 4.58382 20.067 4.57863 20.01C4.57863 19.9582 4.57345 19.9167 4.56308 19.8856C4.55271 19.8544 4.55789 19.7507 4.57863 19.5744C4.56826 19.45 4.56567 19.3748 4.57086 19.3489C4.58641 19.2711 4.5916 19.2089 4.58641 19.1622C4.58641 19.1207 4.62012 19.0611 4.68753 18.9833C4.69271 18.9366 4.71605 18.8925 4.75753 18.8511L4.78865 18.7577C4.82494 18.7214 4.83791 18.6774 4.82754 18.6255C4.82754 18.5633 4.85087 18.5088 4.89754 18.4622L4.95977 18.3999C4.94939 18.3688 4.97532 18.3325 5.03755 18.291L5.23978 18.0888L5.302 18.011L5.35645 17.9566C5.37201 17.9306 5.42127 17.8918 5.50424 17.8399L5.56646 17.7621C5.57683 17.7621 5.6261 17.7284 5.71425 17.661C5.84388 17.5728 5.93463 17.5288 5.98648 17.5288L6.05649 17.4588C6.07723 17.4484 6.10056 17.4302 6.12649 17.4043C6.15242 17.3784 6.18612 17.3551 6.22761 17.3343C6.27428 17.3188 6.43243 17.2436 6.70208 17.1088L7.09876 16.961C7.21284 16.9195 7.35544 16.891 7.52656 16.8754C7.55768 16.8547 7.62509 16.8287 7.7288 16.7976L7.92325 16.8054C8.00103 16.7898 8.08141 16.8028 8.16437 16.8443C8.27327 16.8806 8.34586 16.9169 8.38216 16.9532L8.63106 17.1399C8.65181 17.171 8.66736 17.1917 8.67773 17.2021L8.77885 17.3032C8.88256 17.4277 8.95256 17.5443 8.98886 17.6532C9.09775 17.8555 9.1522 18.0292 9.1522 18.1744C9.13146 18.5166 9.03812 18.7707 8.87219 18.9366C8.70625 19.1026 8.53773 19.2192 8.36661 19.2866C7.9414 19.4526 7.66138 19.5459 7.52656 19.5667C7.2621 19.6444 7.06506 19.6185 6.93542 19.4889Z" fill="#1E2F38"/>
<path d="M10.2558 20.0558L10.3336 19.9935C10.235 19.8743 10.165 19.7887 10.1236 19.7369C10.0924 19.685 10.0328 19.6046 9.94466 19.4957C9.85651 19.3868 9.79429 19.2935 9.75799 19.2157C9.68539 19.0705 9.7165 18.915 9.85133 18.749C9.99133 18.5779 10.1365 18.5312 10.2869 18.609C10.4165 18.6868 10.5021 18.7464 10.5436 18.7879C10.5851 18.8294 10.668 18.902 10.7925 19.0057C10.8806 19.0316 10.9766 19.0913 11.0803 19.1846L11.2281 19.2702C11.2229 19.2754 11.2488 19.2909 11.3058 19.3168L11.5081 19.1924C11.591 19.1094 11.6973 19.0498 11.827 19.0135C11.8633 18.9772 11.9981 18.9098 12.2314 18.8113C12.2522 18.7905 12.4492 18.6868 12.8226 18.5001C12.8693 18.4949 13.0067 18.5131 13.2348 18.5546C13.3593 18.5961 13.4474 18.7413 13.4993 18.9902C13.546 19.1094 13.5537 19.2157 13.5226 19.3091C13.4604 19.3091 13.3722 19.3661 13.2582 19.4802C13.2167 19.5113 12.9885 19.6669 12.5737 19.9469L12.3559 20.1647C12.3922 20.2113 12.4466 20.2917 12.5192 20.4058C12.597 20.5251 12.6904 20.6651 12.7993 20.8258C13.0067 21.1369 13.0663 21.404 12.9782 21.627C12.89 21.767 12.8044 21.8422 12.7215 21.8525C12.6385 21.8629 12.5166 21.8084 12.3559 21.6892C12.2366 21.5803 12.0837 21.4325 11.897 21.2458C11.7155 21.0643 11.5677 20.9425 11.4536 20.8803C11.3499 20.9632 11.2721 21.0306 11.2203 21.0825L11.0958 21.1914C11.0595 21.2277 10.8443 21.3962 10.4502 21.697C10.3725 21.7125 10.1054 21.9277 9.64909 22.3426L9.08129 22.9104C8.98795 23.0037 8.90757 23.0996 8.84016 23.1982C8.73127 23.3174 8.66386 23.4108 8.63793 23.4782C8.59126 23.5248 8.5057 23.6363 8.38125 23.8126C8.16865 23.9008 7.98975 23.8723 7.84456 23.7271C7.70455 23.5871 7.63195 23.4108 7.62677 23.1982L7.66566 22.9881C7.69159 22.9311 7.70714 22.8896 7.71233 22.8637C7.7227 22.8429 7.73566 22.8196 7.75122 22.7937C7.81863 22.6537 7.85493 22.5603 7.86011 22.5137C7.87048 22.4411 7.88604 22.3944 7.90678 22.3737C7.92752 22.3529 7.95345 22.327 7.98456 22.2959C8.06235 22.1974 8.12457 22.1092 8.17124 22.0314C8.17124 21.9796 8.24643 21.8785 8.39681 21.7281C8.68201 21.4636 8.84016 21.3055 8.87128 21.2536C8.90239 21.2536 9.0035 21.1577 9.17462 20.9658L9.36908 20.818C9.38982 20.7973 9.47797 20.7299 9.63354 20.6158C9.64391 20.5847 9.69576 20.5276 9.7891 20.4447C9.88762 20.3565 9.96022 20.2995 10.0069 20.2736C10.0795 20.2217 10.1625 20.1491 10.2558 20.0558Z" fill="#1E2F38"/>
<path d="M13.3409 24.572C13.3616 24.5617 13.4627 24.4813 13.6442 24.3309C13.6494 24.305 13.6935 24.235 13.7764 24.1209C13.8179 23.9964 13.8257 23.8798 13.7998 23.7709C13.7531 23.6516 13.722 23.5842 13.7064 23.5686C13.6442 23.5375 13.5924 23.522 13.5509 23.522C13.5198 23.522 13.4031 23.5505 13.2009 23.6075C13.0038 23.6698 12.7316 23.8279 12.3842 24.082C12.0419 24.3413 11.8034 24.5383 11.6686 24.6731C11.5337 24.808 11.373 24.9791 11.1863 25.1865C11.0048 25.3887 10.9556 25.521 11.0385 25.5832C11.1163 25.6402 11.3963 25.5469 11.8786 25.3032C11.9097 25.2824 11.9745 25.2539 12.073 25.2176L13.3409 24.572ZM14.5698 25.1632C14.295 25.438 14.072 25.718 13.9009 26.0032C13.6987 26.2573 13.5016 26.5477 13.3098 26.8744C13.2216 26.9936 13.1749 27.0507 13.1698 27.0455C13.0142 27.4603 12.9157 27.704 12.8742 27.7766C12.8379 27.8441 12.7912 27.8855 12.7342 27.9011L12.742 27.8933C12.6797 27.9244 12.589 27.9166 12.4697 27.87C12.3504 27.8337 12.2545 27.7896 12.1819 27.7377C11.9226 27.6029 11.8812 27.4111 12.0575 27.1622C12.0523 27.1259 12.0523 27.0636 12.0575 26.9755C12.073 26.8873 12.0938 26.8251 12.1197 26.7888C12.1508 26.7473 12.1664 26.6955 12.1664 26.6332C12.1819 26.5969 12.1923 26.5399 12.1975 26.4621C12.2027 26.3843 12.2234 26.3221 12.2597 26.2755L12.4464 26.0421L12.4386 26.0188C12.1845 26.1069 12.0108 26.1717 11.9175 26.2132C11.6789 26.3273 11.3678 26.4206 10.9841 26.4932C10.6107 26.514 10.3385 26.3558 10.1674 26.0188C10.0792 25.9202 10.0326 25.8165 10.0274 25.7076C10.0274 25.6039 10.0196 25.5391 10.004 25.5132C9.98329 25.4717 9.97811 25.3887 9.98848 25.2643C10.0196 25.0465 10.1466 24.8054 10.3696 24.5409L10.5718 24.3387C10.6133 24.3283 10.7378 24.2039 10.9452 23.9653L10.9919 23.9187C11.1163 23.732 11.1941 23.6231 11.2252 23.592C11.2563 23.5609 11.303 23.5246 11.3652 23.4831C11.4274 23.4416 11.4611 23.4131 11.4663 23.3975C11.4767 23.3768 11.4974 23.3509 11.5286 23.3197L11.6452 23.2031L12.1041 22.8219C12.3427 22.6975 12.5682 22.5964 12.7808 22.5186C12.8897 22.4512 12.9986 22.4201 13.1075 22.4253C13.3772 22.4149 13.5275 22.4045 13.5587 22.3941C13.6727 22.3527 13.8698 22.4253 14.1498 22.6119L14.2743 22.7519C14.3261 22.8038 14.365 22.8582 14.3909 22.9153C14.422 22.9671 14.4454 23.0008 14.4609 23.0164C14.4972 23.1253 14.5387 23.2031 14.5854 23.2497C14.632 23.2964 14.6735 23.4105 14.7098 23.592C14.7358 23.6283 14.7695 23.7501 14.8109 23.9576C14.8576 24.1805 14.8861 24.3076 14.8965 24.3387L15.0287 24.6109C15.0391 24.7146 15.0417 24.7691 15.0365 24.7743C15.0313 24.7794 14.8758 24.9091 14.5698 25.1632Z" fill="#1E2F38"/>
</svg>
